<svg width="25" height="23" viewBox="0 0 25 23" fill="none" xmlns="http://www.w3.org/2000/svg">
<path d="M20.1005 0.589323C19.91 0.765438 19.3655 1.08832 18.8892 1.26443C17.147 1.95422 16.1534 2.89351 15.4456 4.5666C15.1734 5.21236 15.1326 5.52057 15.1326 7.31108C15.1326 9.18964 15.119 9.33641 14.874 9.33641C14.6562 9.33641 14.629 9.42447 14.697 9.92346C14.7923 10.7013 15.1462 11.2884 15.4456 11.1856C15.6226 11.1269 15.7587 11.2443 15.9492 11.6553C16.099 11.9488 16.8067 12.8294 17.5281 13.5925C18.9708 15.1336 19.2839 15.794 19.2839 17.2176C19.2839 18.0688 18.9028 19.0521 18.2631 19.874L17.9092 20.3436L18.4944 21.0921C19.42 22.2809 19.91 22.3983 20.7266 21.6352C21.6385 20.7693 25.0004 16.5278 25.0004 16.249C25.0004 15.7793 24.3062 15.0455 23.4351 14.6052C22.986 14.3704 22.5504 14.1796 22.4552 14.1796C22.3735 14.1796 22.1285 14.1062 21.9244 14.0328L21.5569 13.8714L22.1693 13.2403C22.5096 12.8881 22.9588 12.301 23.1629 11.9194C23.3671 11.5525 23.6121 11.2443 23.7074 11.2443C23.9932 11.2443 24.4832 10.3931 24.5104 9.87943C24.524 9.51252 24.4696 9.40979 24.2926 9.42447C24.0749 9.45382 24.0476 9.30706 24.0476 8.27971C24.0476 6.76805 23.721 5.08028 23.231 3.96488C23.0132 3.48056 22.7682 2.74674 22.6866 2.3358C22.496 1.36717 22.2782 1.17638 21.6657 1.36717C21.1894 1.52861 21.1894 1.52861 20.9308 0.882849C20.781 0.530617 20.6041 0.237091 20.5497 0.237091C20.4816 0.237091 20.2775 0.398531 20.1005 0.589323Z" fill="#F61976"/>
<path d="M5.39987 2.40824C3.94352 2.93659 2.80022 3.99328 2.18773 5.43156C1.60247 6.79646 1.80663 9.24741 2.67772 11.1113C3.16771 12.124 3.14048 12.3588 2.44634 13.0045C2.01079 13.4302 1.8883 13.4595 1.23498 13.4155C0.772215 13.3861 0.5 13.4302 0.5 13.5329C0.5 13.7971 1.03082 14.3107 1.39831 14.4135C1.65691 14.4869 1.72497 14.5749 1.67052 14.7951C1.60247 15.1326 2.13329 15.793 2.47356 15.793C2.63689 15.793 2.66411 15.8517 2.54161 16.0719C2.47356 16.2333 2.4055 16.4828 2.4055 16.6296C2.4055 16.9525 6.4479 21.781 6.9651 22.0745C7.48231 22.3534 7.90425 22.1919 8.61201 21.4434L9.21088 20.783L8.72089 20.0932C7.91786 18.9631 7.64564 18.2146 7.65925 17.0405C7.65925 14.8831 9.1156 13.122 11.0619 12.9018C11.5655 12.8431 11.8105 12.7404 11.8514 12.5789C12.2869 10.8618 12.2869 6.62034 11.8514 5.24077C11.5519 4.25746 10.8578 3.42091 10.4086 3.49429C10.1909 3.52364 10.0275 3.42091 9.86419 3.14206C9.46948 2.46695 8.87061 2.23212 7.44148 2.1881C6.46151 2.15874 5.95791 2.20277 5.39987 2.40824Z" fill="#F61976"/>
<path d="M10.9104 14.1629C9.53576 14.5445 8.80078 15.5425 8.80078 17.0394C8.80078 17.4944 8.88245 18.0815 8.99133 18.3603C9.39965 19.417 11.0193 20.9433 12.6935 21.8533L13.3876 22.2349L14.5037 21.5451C15.892 20.7085 17.2531 19.3877 17.6478 18.4924C18.0697 17.5678 17.988 16.2029 17.4708 15.3957C16.627 14.0748 14.8712 13.7079 13.7143 14.6032C13.4012 14.8527 13.3604 14.8527 12.8296 14.5298C12.1762 14.1482 11.4821 14.0014 10.9104 14.1629ZM12.2443 15.1462C12.4893 15.2783 12.816 15.5131 12.9793 15.6745L13.2787 15.9828L13.8368 15.4984C14.6262 14.8233 15.5381 14.7206 16.2731 15.2489C16.8447 15.6599 17.2394 16.4084 17.2394 17.0688C17.2258 18.1695 16.1098 19.5784 14.2995 20.7379L13.3604 21.3396L12.571 20.8846C11.5365 20.2682 10.4205 19.329 9.94408 18.6538C9.46771 17.9787 9.34521 16.8046 9.67187 16.0561C10.1074 15.0875 11.3324 14.6472 12.2443 15.1462Z" fill="#F61976"/>
</svg>
