<svg width="23" height="17" viewBox="0 0 23 17" fill="none" xmlns="http://www.w3.org/2000/svg">
<path d="M6.2408 0.386715C5.4158 0.811715 5.0033 1.23672 4.6033 2.13671C4.1158 3.21172 4.3533 4.78672 5.1158 5.59922C5.2658 5.76172 5.3658 5.89922 5.3283 5.92422C5.3033 5.93672 4.8033 6.19922 4.2158 6.48672C3.6283 6.77422 2.8033 7.29922 2.3783 7.63672C0.965795 8.77422 -0.146705 10.7492 0.0157951 11.8117C0.215795 13.0242 1.4283 13.6242 2.4408 13.0117L2.8408 12.7617V14.4492V16.1367H3.2033H3.5783L3.6158 13.4117C3.6533 10.7367 3.6533 10.6742 3.9658 10.2242C4.6658 9.17422 5.8408 8.72422 7.7783 8.72422C9.7408 8.72422 10.8408 9.19922 11.4783 10.2992C11.7658 10.7992 11.7783 10.9367 11.8158 13.4742L11.8533 16.1367H17.1658H22.4783L22.4408 13.4742C22.4033 10.5367 22.3658 10.4117 21.5158 9.58672C20.8033 8.89922 19.9283 8.63672 17.9033 8.51172C15.7533 8.37422 14.2033 7.97422 13.0283 7.26172C12.8283 7.13672 12.1283 6.77422 11.4908 6.44922L10.3158 5.86172L10.5658 5.59922C11.5908 4.47422 11.4908 2.28672 10.3658 1.09922C9.7158 0.399215 9.0158 0.0992146 7.9783 0.0367146C7.1033 -0.000785828 6.9658 0.0242157 6.2408 0.386715ZM9.3283 1.19921C10.9408 2.31172 10.9408 4.62422 9.3158 5.71172C8.2658 6.42422 7.0408 6.36172 6.0908 5.53672C4.5408 4.22422 4.8408 1.86172 6.6533 0.986715C7.4158 0.624215 8.6408 0.711715 9.3283 1.19921Z" fill="#F61976"/>
<path d="M16.5273 0.311621C15.3398 0.86162 14.4648 2.22412 14.4648 3.52412C14.4648 4.23662 14.9148 5.31162 15.4398 5.84912C16.1398 6.56162 16.9523 6.91162 17.9648 6.91162C20.9648 6.91162 22.5398 3.44912 20.5648 1.19912C19.5398 0.0366206 17.8898 -0.32588 16.5273 0.311621Z" fill="#F61976"/>
</svg>
