<svg width="64" height="21" viewBox="0 0 64 21" fill="none" xmlns="http://www.w3.org/2000/svg">
<path d="M10.56 20.3C7.42 20.3 5.03 19.5 3.39 17.9C1.75 16.3 0.93 13.81 0.93 10.43C0.93 6.85 1.75 4.28 3.39 2.72C5.03 1.16 7.42 0.379999 10.56 0.379999C13.7 0.379999 16.09 1.16 17.73 2.72C19.37 4.28 20.19 6.85 20.19 10.43C20.19 13.81 19.37 16.3 17.73 17.9C16.09 19.5 13.7 20.3 10.56 20.3ZM10.56 16.19C12.18 16.19 13.36 15.73 14.1 14.81C14.86 13.87 15.24 12.41 15.24 10.43C15.24 8.27 14.86 6.75 14.1 5.87C13.36 4.97 12.18 4.52 10.56 4.52C8.92 4.52 7.72 4.97 6.96 5.87C6.22 6.75 5.85 8.27 5.85 10.43C5.85 12.41 6.22 13.87 6.96 14.81C7.72 15.73 8.92 16.19 10.56 16.19ZM22.653 20V0.679998H36.693V4.4H27.483V8.45H35.583V12.23H27.483V20H22.653Z" fill="white"/>
<path d="M36.1741 20L43.5541 0.679998H48.7741L56.1541 20H51.1141L49.3741 15.62H42.9241L41.2141 20H36.1741ZM43.5841 12.05H48.7141L46.1341 5.33L43.5841 12.05ZM58.6003 20V0.679998H63.4303V20H58.6003Z" fill="#FA06C3"/>
</svg>
