<svg width="25" height="25" viewBox="0 0 25 25" fill="none" xmlns="http://www.w3.org/2000/svg">
<path d="M13.6832 19.1417C12.6157 19.9629 11.4729 20.6114 10.2644 21.1417C10.1447 21.1942 10.0503 21.1889 9.93039 21.1361C8.24221 20.3925 6.68062 19.4407 5.35008 18.125C4.2618 17.0489 3.39941 15.8177 2.95312 14.3025C2.69152 13.4143 2.59096 12.5212 2.79963 11.6203C3.12499 10.2157 3.94102 9.22941 5.29044 8.77775C6.87273 8.24814 8.28392 8.64431 9.55371 9.69442C9.65753 9.78028 9.7435 9.8893 9.83646 9.98885C9.92264 10.0811 10.0071 10.1752 10.0924 10.2687C10.2247 10.2007 10.2754 10.0732 10.3617 9.98162C11.1165 9.18027 12.0365 8.72426 13.1074 8.59657C13.2924 8.5745 13.3464 8.51083 13.3431 8.32656C13.3335 7.78973 13.3254 7.25213 13.3422 6.71568C13.3897 5.19184 14.0163 3.99877 15.2984 3.21112C15.9128 2.83367 16.5911 2.63625 17.2979 2.50931C17.9673 2.38908 18.6411 2.38513 19.302 2.44771C20.6042 2.57101 21.819 2.9602 22.7409 4.00866C23.2632 4.60264 23.5818 5.28735 23.6915 6.08485C23.8754 7.42125 23.7273 8.7632 23.7768 10.1015C23.7833 10.2775 23.698 10.3514 23.5319 10.3503C23.0348 10.3473 22.5377 10.3454 22.0407 10.3481C21.856 10.3492 21.7876 10.2518 21.7888 10.0753C21.7961 9.02674 21.8385 7.97671 21.7987 6.93003C21.76 5.91329 21.535 5.16399 20.2775 4.72432C19.0738 4.3035 17.8414 4.3086 16.6413 4.78677C15.7496 5.14203 15.2947 5.86181 15.2949 6.84219C15.295 7.45242 15.3039 8.06275 15.2952 8.67283C15.2926 8.85226 15.3496 8.95625 15.5045 9.03566C16.2936 9.44024 16.8508 10.08 17.1842 10.9104C17.4991 11.6946 17.597 12.5092 17.4634 13.3628C17.1274 15.5091 15.956 17.1213 14.4329 18.5192C14.1972 18.7355 13.9566 18.9457 13.6832 19.1417ZM4.90402 13.8715C5.10158 14.746 5.53508 15.4953 6.0878 16.1718C7.14156 17.4614 8.49257 18.3305 9.95678 19.0344C10.0701 19.0889 10.171 19.0714 10.2736 19.0216C11.7126 18.3237 13.0515 17.4768 14.0874 16.2037C14.9023 15.2021 15.4922 14.0997 15.3839 12.7284C15.327 12.0065 15.0407 11.4181 14.4136 11.045C13.7506 10.6506 13.046 10.6311 12.3127 10.7805C11.4592 10.9544 10.7471 11.3491 10.2291 12.0848C10.1269 12.2301 10.0408 12.1863 9.95584 12.0569C9.74021 11.7285 9.45817 11.4716 9.13198 11.2643C8.73182 11.0099 8.29921 10.846 7.83641 10.763C7.18108 10.6456 6.53112 10.6367 5.92651 10.9639C4.86464 11.5386 4.67561 12.6051 4.90402 13.8715Z" fill="#F61976"/>
</svg>
