<svg width="20" height="20" viewBox="0 0 20 20" fill="none" xmlns="http://www.w3.org/2000/svg">
<g clip-path="url(#clip0_2429_4601)">
<path d="M13.6338 2.65956C13.9419 3.21862 14.0916 3.81646 14.1112 4.43647C14.131 5.0662 14.101 5.69755 14.0884 6.3281C14.0867 6.41311 14.0993 6.48065 14.1611 6.54494C14.3974 6.79055 14.4633 7.09953 14.4707 7.42294C14.4811 7.87911 14.4096 8.31576 14.1075 8.68545C13.9944 8.8238 13.8706 8.94423 13.6835 8.98862C13.64 8.99894 13.5929 9.07069 13.5807 9.12192C13.34 10.1288 12.8476 11.0099 12.1871 11.8004C11.8469 12.2075 11.3887 12.4609 10.8882 12.6346C10.7878 12.6695 10.6754 12.6821 10.5682 12.6841C10.1891 12.6909 9.80574 12.7237 9.43161 12.6812C8.93317 12.6245 8.52676 12.3493 8.18488 11.9981C7.40822 11.2002 6.84638 10.2807 6.6079 9.18694C6.58389 9.07682 6.54888 9.00392 6.42016 8.96106C6.23618 8.8998 6.10993 8.74432 6.01477 8.58082C5.70647 8.05111 5.62709 7.48974 5.81753 6.90285C5.85344 6.79218 5.91325 6.68357 5.98464 6.59101C6.07327 6.47609 6.09753 6.35779 6.09305 6.21743C6.0756 5.67099 6.04976 5.12396 6.05978 4.57773C6.07278 3.86883 6.22751 3.18819 6.60455 2.57404C7.06966 1.81645 7.7549 1.34134 8.61688 1.12723C9.76808 0.841277 10.9126 0.867739 12.0312 1.28654C12.7295 1.54796 13.2728 1.99614 13.6338 2.65956Z" fill="#F61976"/>
<path d="M17.8126 18.6882C16.2278 18.6824 14.6546 18.677 13.0814 18.6703C12.9809 18.6699 12.8805 18.658 12.7799 18.6551C12.6977 18.6528 12.6597 18.6191 12.6429 18.5346C12.5011 17.8222 12.3539 17.1108 12.2089 16.399C12.1494 16.1068 12.0883 15.8149 12.0351 15.5215C12.0228 15.4535 12.0243 15.3753 12.0458 15.3102C12.2379 14.7292 12.4384 14.1508 12.6298 13.5695C12.6649 13.4629 12.7094 13.4477 12.8121 13.4826C13.97 13.8755 15.0657 14.3987 16.1144 15.019C16.9347 15.5042 17.7076 16.0521 18.3595 16.7503C18.7486 17.1671 19.0831 17.62 19.2365 18.1776C19.2809 18.3388 19.2998 18.5068 19.3335 18.6882C18.8204 18.6882 18.3223 18.6882 17.8126 18.6882Z" fill="#F61976"/>
<path d="M7.18313 18.688C5.02595 18.688 2.88003 18.688 0.726562 18.688C0.743652 18.3646 0.829759 18.068 0.955479 17.7786C1.1669 17.2921 1.53353 16.9242 1.89576 16.5512C2.69447 15.7287 3.66587 15.1451 4.66486 14.601C5.48671 14.1533 6.3502 13.7967 7.23173 13.4814C7.26393 13.4699 7.29717 13.4613 7.34779 13.4458C7.42166 13.6472 7.49689 13.8426 7.56518 14.0403C7.71375 14.4705 7.85976 14.9016 8.00381 15.3333C8.01879 15.3782 8.02526 15.432 8.01599 15.4777C7.80408 16.523 7.58944 17.5678 7.37519 18.6126C7.37069 18.6345 7.36472 18.6562 7.35702 18.688C7.30092 18.688 7.24765 18.688 7.18313 18.688Z" fill="#F61976"/>
<path d="M9.55848 13.4507C10.1549 13.4507 10.7397 13.4507 11.3439 13.4507C11.3255 13.4983 11.3128 13.5354 11.2972 13.5713C11.0016 14.2525 10.7074 14.9344 10.4077 15.6139C10.3674 15.7052 10.3669 15.783 10.3985 15.8754C10.6988 16.7549 10.9954 17.6356 11.2928 18.516C11.3083 18.562 11.3217 18.6087 11.3405 18.6693C10.4572 18.6693 9.59093 18.6693 8.70846 18.6693C8.80364 18.3757 8.89293 18.0919 8.98754 17.8099C9.2065 17.1573 9.42699 16.5052 9.64983 15.8539C9.67749 15.7731 9.67669 15.7048 9.6413 15.6245C9.34345 14.9484 9.05038 14.2702 8.75614 13.5925C8.73825 13.5513 8.72261 13.5092 8.69922 13.4507C8.99254 13.4507 9.26969 13.4507 9.55848 13.4507Z" fill="#F61976"/>
</g>
<defs>
<clipPath id="clip0_2429_4601">
<rect width="20" height="20" fill="white"/>
</clipPath>
</defs>
</svg>
