<svg width="20" height="20" viewBox="0 0 20 20" fill="none" xmlns="http://www.w3.org/2000/svg">
<path d="M8.623 0.720011C7.94745 0.844456 7.11189 1.33334 6.71189 1.83112C6.12523 2.54223 5.91189 3.33334 5.91189 4.80001C5.903 5.7689 5.87634 6.07112 5.743 6.35557C5.44078 7.01334 5.72523 8.19557 6.223 8.38223C6.40967 8.45334 6.48967 8.5689 6.56967 8.89779C6.73856 9.54668 7.21856 10.4889 7.68078 11.0489C8.063 11.52 8.08967 11.5822 8.03634 11.9378C7.93856 12.56 7.77856 12.7822 7.35189 12.8889C6.29411 13.1556 4.60523 13.9378 3.37856 14.7289C2.31189 15.4222 1.23634 16.5333 0.987448 17.1911C0.88967 17.4667 0.800781 17.7511 0.800781 17.8222C0.800781 17.9378 1.37856 17.9556 5.05856 17.9556H9.31634L8.96967 17.28C8.53411 16.4089 8.35634 15.6089 8.35634 14.5245C8.35634 13.0667 8.79189 11.7956 9.67189 10.7022C10.463 9.72445 11.8052 8.84445 13.0052 8.53334C13.503 8.40001 13.8141 8.07112 13.9652 7.5289C14.0808 7.08446 14.0097 6.45334 13.8141 6.14223C13.6986 5.96445 13.6719 5.78668 13.7163 5.22668C13.8319 3.77779 13.4941 2.44446 12.8097 1.66223C12.463 1.27112 11.6097 0.835566 10.943 0.711121C10.383 0.604454 9.19189 0.613344 8.623 0.720011Z" fill="#F61976"/>
<path d="M13.1839 9.55571C10.8816 10.0535 9.24609 12.089 9.24609 14.4268C9.25498 17.1202 11.5039 19.3779 14.1794 19.3779C17.3616 19.369 19.7528 16.4446 19.0772 13.3957C18.8461 12.3735 18.4728 11.7068 17.6994 10.9246C16.4461 9.67126 14.8639 9.19126 13.1839 9.55571ZM14.9439 10.4179C15.7794 10.6668 16.3305 11.4846 16.2505 12.3735C16.1883 13.0846 15.9572 13.4846 15.095 14.3113C14.3039 15.0668 14.135 15.3602 14.135 15.929C14.135 16.169 14.1172 16.1779 13.6905 16.1779H13.2461V15.7068C13.255 15.0224 13.4861 14.6135 14.2505 13.929C14.9883 13.2624 15.2016 12.9157 15.2016 12.3557C15.2016 11.5735 14.775 11.2002 13.8861 11.2002C13.2905 11.2002 12.8728 11.3513 12.455 11.6979L12.1794 11.929V11.3513V10.7735L12.6061 10.5957C12.8372 10.4979 13.1039 10.4002 13.2016 10.3735C13.5572 10.2935 14.6061 10.3113 14.9439 10.4179ZM14.215 17.4757C14.4639 17.7868 14.4461 18.089 14.1794 18.3557C13.7972 18.7468 13.2372 18.569 13.0416 18.0179C12.9705 17.8402 13.1839 17.3779 13.3528 17.3068C13.6728 17.1735 14.0372 17.2535 14.215 17.4757Z" fill="#F61976"/>
</svg>
