<svg width="20" height="20" viewBox="0 0 20 20" fill="none" xmlns="http://www.w3.org/2000/svg">
<path d="M6.67007 9.96934V10.0184M10.0061 9.96934V10.0184M13.3299 10.0184V9.96934M2.80662 12.962C2.80662 12.3365 2.5 11.0732 2.5 9.93254C2.5 5.82379 5.94644 2.5 9.93254 2.5C14.2253 2.5 17.5 5.90965 17.5 10.0675C17.5 14.2253 14.0045 17.5 10.0675 17.5C9.01267 17.5 7.39616 17.1811 7.01349 17.1811C6.63083 17.1811 4.45012 17.3896 3.75102 17.3896C3.12551 17.3896 2.61038 16.9971 2.61038 16.249C2.61038 15.4763 2.80662 13.5703 2.80662 12.962Z" stroke="#F234B2" stroke-opacity="0.8" stroke-width="1.7" stroke-linecap="round"/>
</svg>
