<svg width="32" height="32" viewBox="0 0 32 32" fill="none" xmlns="http://www.w3.org/2000/svg">
<path d="M2.66504 20.6905C2.66504 22.0478 2.9844 22.946 2.9844 23.5448C2.9844 24.5229 2.76484 26.2674 2.76484 26.8582C2.76484 28.1556 3.75087 29.2335 5.21993 29.2335C6.29777 29.2335 7.85865 29.0339 8.4335 29.0339C9.00835 29.0339 10.1301 29.3333 11.188 29.3333C15.9784 29.3333 19.7309 25.5209 19.7309 20.7305C19.7309 15.94 15.8187 12.2874 11.188 12.2874C6.55725 12.2874 2.66504 16.0199 2.66504 20.6905Z" fill="#FE02C0"/>
<path d="M11.1909 9.59265C9.80169 9.59265 7.91745 9.91201 5.94141 10.91C8.23682 4.44295 13.8057 2.6665 17.3985 2.6665C23.0672 2.6665 29.3346 7.39704 29.3346 14.5827C29.3346 16.0198 28.9155 18.2952 28.9155 19.1336C28.9155 19.8681 29.1749 22.0278 29.1749 23.5248C29.1749 25.4609 27.8376 26.5188 26.161 26.5188C25.3226 26.5188 22.5682 26.2593 21.9294 26.2593C21.5302 26.2593 21.1111 26.2992 20.9514 26.3192C22.0053 24.419 22.4085 22.7264 22.4085 20.7903C22.4085 14.4629 17.0991 9.59265 11.1909 9.59265Z" fill="#FE02C0" fill-opacity="0.36"/>
</svg>
