<svg width="33" height="32" viewBox="0 0 33 32" fill="none" xmlns="http://www.w3.org/2000/svg">
<path d="M2.08398 15.4714C2.08398 11.0371 2.08398 8.81988 2.93077 7.12022C3.708 5.56016 4.96915 4.2953 6.52463 3.51578C8.21932 2.6665 10.43 2.6665 14.8514 2.6665H18.6499C23.0713 2.6665 25.282 2.6665 26.9767 3.51578C28.5322 4.2953 29.7933 5.56016 30.5705 7.12022C31.4173 8.81988 31.4173 11.0371 31.4173 15.4714V16.5282C31.4173 20.9626 31.4173 23.1798 30.5705 24.8795C29.7933 26.4395 28.5322 27.7044 26.9767 28.4839C25.282 29.3332 23.0713 29.3332 18.6499 29.3332H14.8514C10.43 29.3332 8.21932 29.3332 6.52463 28.4839C4.96915 27.7044 3.708 26.4395 2.93077 24.8795C2.08398 23.1798 2.08398 20.9626 2.08398 16.5282V15.4714Z" fill="#FE02C0" fill-opacity="0.36"/>
<ellipse cx="10.8094" cy="11.3363" rx="2.66294" ry="2.67078" fill="#FE02C0"/>
<path d="M28.7544 19.9855V12.3841C22.6092 12.2033 19.598 13.6278 16.7098 15.8561C13.7805 18.116 11.179 21.9783 10.6055 26.6419C11.5887 26.7241 18.485 26.7035 21.8103 26.683C24.125 26.683 25.8252 26.683 27.5459 24.7518C28.6522 23.5101 28.7544 21.8961 28.7544 19.9855Z" fill="#FE02C0"/>
</svg>
