<svg width="20" height="14" viewBox="0 0 20 14" fill="none" xmlns="http://www.w3.org/2000/svg">
<path fill-rule="evenodd" clip-rule="evenodd" d="M6.32109 0.783267C6.525 0.758317 6.73708 0.75 6.941 0.75C8.39288 0.758317 9.82846 1.30722 10.9296 2.25533C10.0166 3.46407 9.5362 4.91073 9.06044 6.34325C8.96662 6.62574 8.87298 6.90768 8.77625 7.18714C8.81703 6.66319 8.64574 6.1226 8.30316 5.7234C7.90348 5.29924 7.3162 5.05806 6.73708 5.13291C6.10901 5.20776 5.50542 5.63191 5.26888 6.24735C4.82026 7.20377 5.39123 8.48455 6.40265 8.759C7.21832 9.03345 8.1645 8.64257 8.56417 7.87743C8.56371 7.87923 8.56325 7.88104 8.56279 7.88285C8.64903 7.66428 8.71988 7.4381 8.77534 7.21191C8.86336 6.95404 8.94912 6.69386 9.03512 6.43297C9.51489 4.97747 10.0018 3.5002 10.9287 2.2801C11.3773 1.70624 12.0054 1.28209 12.6987 1.07417C13.6449 0.799722 14.6481 0.766455 15.6269 0.758138H15.627C16.8097 0.758138 17.9924 0.758138 19.1669 0.774771C18.8896 2.00565 18.2126 3.13672 17.242 3.91849C16.2632 4.73353 15.0478 5.19927 13.8162 5.45708C14.9255 5.7648 16.1 5.68164 17.2093 5.45708C16.9973 6.34697 16.6139 7.22023 15.994 7.88557C15.1539 8.85031 13.8977 9.37426 12.6498 9.48238C12.566 9.47628 12.5349 9.54617 12.505 9.61341C12.4941 9.63788 12.4834 9.662 12.4703 9.68198C11.9157 10.9045 10.9532 11.9192 9.78677 12.5346C8.914 13.0087 7.92704 13.2332 6.94824 13.2499C6.9507 13.2416 6.95315 13.2333 6.95561 13.225C6.34443 13.1917 5.73326 13.1334 5.14653 12.9423C3.67832 12.4683 2.3651 11.4287 1.62284 10.0481C0.774547 8.54277 0.603257 6.6715 1.1416 5.03311C1.84307 2.7377 3.98012 1.02445 6.32109 0.783267Z" fill="#F434B1" fill-opacity="0.8"/>
</svg>
