<svg width="32" height="32" viewBox="0 0 32 32" fill="none" xmlns="http://www.w3.org/2000/svg">
<path d="M4.2 20.4572C4.2 15.895 7.65366 10.2448 11.894 8.85137L10.9346 6.71345C10.7044 6.17898 10.359 5.66359 10.359 5.1482C10.359 4.53736 10.8579 3.96471 11.5294 3.96471C12.201 3.96471 12.9685 4.3083 13.7167 4.3083C14.465 4.3083 14.9831 4.1365 15.8657 3.60202C16.7483 3.06755 17.8036 2.66669 19.1083 2.66669C20.413 2.66669 21.5259 3.16299 22.1398 3.41114C22.7538 3.65929 22.9073 4.23195 22.9073 4.4801C22.9073 4.72825 22.8498 4.90004 22.7538 5.1482C22.585 5.62159 21.5834 8.09419 21.1037 9.27132C23.905 10.493 27.8 15.0933 27.8 20.7435C27.8 23.3777 27.1402 25.569 24.9987 27.3672C22.9073 29.1234 19.7798 29.3334 15.5011 29.3334C10.6852 29.3334 8.72813 28.6653 7.11642 27.4627C5.27447 26.0883 4.2 23.9122 4.2 20.4572Z" fill="#FE02C0" fill-opacity="0.36"/>
<path d="M18.5327 15.8186C18.2065 15.2651 17.5541 14.9596 16.9977 14.9596C16.7667 14.9596 16.3839 14.9596 16 14.9596M13.4673 22.1369C13.8319 22.7478 14.5034 23.015 14.9447 23.015C15.1379 23.015 15.566 23.015 16 23.015M16 23.015C16.3589 23.015 16.7219 23.015 16.9593 23.015C17.9954 23.015 18.8013 22.0988 18.8013 20.9916C18.8013 19.8272 17.8803 18.9873 17.0169 18.9873C16.3262 18.9873 15.4628 18.9873 15.1174 18.9873C14.0813 18.9873 13.1795 18.1283 13.1795 16.983C13.1795 15.8377 14.0237 14.9596 15.0406 14.9596C15.2784 14.9596 15.6397 14.9596 16 14.9596M16 23.015V24.0076M16 14.9596V13.967" stroke="#FE02C0" stroke-width="2.4" stroke-linecap="round"/>
</svg>
