<svg width="33" height="32" viewBox="0 0 33 32" fill="none" xmlns="http://www.w3.org/2000/svg">
<path d="M7.44727 17.3201C9.00087 20.1316 12.4699 23.4883 14.513 24.5618" stroke="#FE02C0" stroke-opacity="0.36" stroke-width="2.66667"/>
<path d="M2.91602 7.11805C2.91602 8.4812 3.57577 13.1457 5.95938 17.4056L6.27861 17.9594C6.39779 18.1638 6.64041 18.4106 6.87452 18.5132C7.41934 18.7517 7.91735 18.6092 8.30043 18.3428C9.30495 17.6441 10.4712 16.6783 11.131 16.085C12.3057 15.0286 13.7061 12.6133 13.7061 9.95085C13.7061 8.67289 13.2592 5.93306 11.6417 4.20005C10.4291 2.9008 9.08787 2.6665 7.64068 2.6665C4.10782 2.6665 2.91602 5.45671 2.91602 7.11805Z" fill="#FE02C0"/>
<path d="M13.6868 23.4969C13.3037 23.9016 13.1973 24.2211 13.1973 24.5832C13.1973 25.2818 13.7932 25.7262 14.0911 25.8611C16.3258 27.2243 18.8158 28.1401 21.3697 28.7791C22.5615 29.0773 24.264 29.3329 25.0089 29.3329C26.0305 29.3329 26.8226 29.056 27.3712 28.7152C28.6056 27.9484 29.5846 26.8196 29.5846 24.6684C29.5846 22.6662 28.9036 21.3008 27.8395 20.4085C26.2646 19.088 23.9022 18.449 21.9443 18.449C19.8799 18.449 17.9432 19.1518 16.1555 20.728C15.2616 21.5161 14.0698 23.0922 13.6868 23.4969Z" fill="#FE02C0"/>
</svg>
