<svg width="18" height="16" viewBox="0 0 18 16" fill="none" xmlns="http://www.w3.org/2000/svg">
<path d="M1.16541 7.724C1.6814 8.29706 2.70622 9.24508 3.18638 9.71909C3.53037 10.0587 3.68087 10.5256 3.68087 10.9076C3.68087 11.1963 3.48353 12.0962 3.37987 12.6693C3.29388 13.1447 3.20788 13.688 3.20788 14.2399C3.20788 15.2799 4.13236 15.9166 4.90635 15.9166C5.14715 15.9166 5.48684 15.8175 5.74484 15.7043C6.32533 15.4496 7.42182 14.8448 8.13131 14.4946C8.4753 14.3248 8.7075 14.2611 9.03429 14.2611C9.36109 14.2611 9.70078 14.4097 9.87278 14.4946C10.2512 14.6813 11.1843 15.1843 11.7218 15.4496C12.3753 15.7723 12.8182 15.9166 13.1622 15.9166C13.8502 15.9166 14.8177 15.2162 14.8177 14.2823C14.8177 13.3909 14.4982 12.266 14.3662 11.3321C14.263 10.602 14.43 10.0799 14.7962 9.74031C15.3638 9.21395 16.0854 8.5093 16.6667 7.91502C17.1483 7.42262 17.3332 7.12972 17.3332 6.45054C17.2687 5.70769 16.8817 5.07627 16.0002 4.85872C15.4776 4.72974 14.2157 4.58281 13.3342 4.45546C12.3452 4.31258 11.9951 3.86118 11.6358 3.0971C11.3563 2.50282 10.9681 1.7812 10.5823 1.05957C10.2555 0.44831 9.72228 0.083252 8.99129 0.083252C8.1958 0.083252 7.86396 0.422841 7.44332 1.05957C7.18532 1.4501 6.70158 2.4816 6.38983 3.0971C6.00284 3.86118 5.74484 4.24322 4.88485 4.41301C4.56236 4.47668 3.05738 4.64648 2.08989 4.8375C1.12241 5.02852 0.842913 5.68647 0.713915 6.17463C0.584917 6.66279 0.713915 7.23584 1.16541 7.724Z" fill="#F434B1"/>
</svg>
