<svg width="18" height="18" viewBox="0 0 18 18" fill="none" xmlns="http://www.w3.org/2000/svg">
<path d="M9.75 1.5C10.2834 5.69711 11.9421 8.28482 16.5 9C12.1751 9.67861 10.3084 12.1064 9.75 16.5C9.19159 12.1064 7.32487 9.67861 3 9C7.32487 8.32138 9.19159 5.89358 9.75 1.5Z" fill="#F434B1"/>
<path d="M3.75 1.5C3.95673 2.7551 4.70959 3.53745 6 3.75C4.70959 3.96255 3.95673 4.7449 3.75 6C3.54327 4.7449 2.79041 3.96255 1.5 3.75C2.7551 3.54327 3.53745 2.79041 3.75 1.5Z" fill="#F434B1"/>
<path d="M3.16667 13.7083V14.8333M3.16667 14.8333V15.9583M3.16667 14.8333H4.29167M3.16667 14.8333H2.04167M9.75 1.5C10.2834 5.69711 11.9421 8.28482 16.5 9C12.1751 9.67861 10.3084 12.1064 9.75 16.5C9.19159 12.1064 7.32487 9.67861 3 9C7.32487 8.32138 9.19159 5.89358 9.75 1.5ZM3.75 1.5C3.95673 2.7551 4.70959 3.53745 6 3.75C4.70959 3.96255 3.95673 4.7449 3.75 6C3.54327 4.7449 2.79041 3.96255 1.5 3.75C2.7551 3.54327 3.53745 2.79041 3.75 1.5Z" stroke="#F434B1" stroke-width="1.66667" stroke-linecap="round" stroke-linejoin="round"/>
</svg>
