<svg width="22" height="18" viewBox="0 0 22 18" fill="none" xmlns="http://www.w3.org/2000/svg">
<path d="M13.0438 1.61512e-07H8.95625C7.59322 -7.6081e-06 6.50917 -1.37836e-05 5.63459 0.0714427C4.73899 0.144616 3.97531 0.297677 3.27607 0.653962C2.29475 1.15397 1.47291 1.91286 0.896955 2.84423C0.760787 3.06443 0.838869 3.34851 1.05729 3.48751L7.24187 7.42314C8.86149 8.45381 9.47188 8.826 10.101 8.97111C10.6926 9.10756 11.3074 9.10756 11.899 8.97111C12.5281 8.826 13.1385 8.45382 14.7581 7.42315L20.9427 3.48749C21.1611 3.3485 21.2392 3.06441 21.1031 2.84422C20.5271 1.91285 19.7053 1.15397 18.724 0.653962C18.0247 0.297677 17.261 0.144616 16.3654 0.0714427C15.4908 -1.37836e-05 14.4068 -7.6081e-06 13.0438 1.61512e-07Z" fill="white"/>
<path d="M21.9477 5.90513C21.9286 5.60392 21.5947 5.4432 21.3401 5.60524L15.6723 9.21205C14.27 10.105 13.3546 10.6879 12.3485 10.9199C11.4612 11.1246 10.5388 11.1246 9.65147 10.9199C8.64539 10.6879 7.72998 10.105 6.32767 9.21204L0.659898 5.60524C0.405282 5.44321 0.0714481 5.60392 0.0522866 5.90511C-0.000119559 6.72886 -6.30639e-05 7.70191 4.84269e-06 8.87208L9.61106e-06 9.04376C4.24034e-08 10.4068 -4.93228e-06 11.4908 0.0714519 12.3654C0.144625 13.261 0.297686 14.0247 0.653971 14.7239C1.22921 15.8529 2.14709 16.7708 3.27607 17.346C3.97531 17.7023 4.73899 17.8554 5.63459 17.9286C6.50915 18 7.59314 18 8.95614 18H13.0438C14.4068 18 15.4909 18 16.3654 17.9286C17.261 17.8554 18.0247 17.7023 18.724 17.346C19.8529 16.7708 20.7708 15.8529 21.346 14.7239C21.7023 14.0247 21.8554 13.261 21.9286 12.3654C22 11.4909 22 10.4069 22 9.04387L22 8.87207C22.0001 7.70192 22.0001 6.72887 21.9477 5.90513Z" fill="white"/>
</svg>
