<svg width="21" height="20" viewBox="0 0 21 20" fill="none" xmlns="http://www.w3.org/2000/svg">
<path fill-rule="evenodd" clip-rule="evenodd" d="M5.6665 0C2.90508 0 0.666504 2.23857 0.666504 5V15C0.666504 17.7615 2.90508 20 5.6665 20H15.6665C18.428 20 20.6665 17.7615 20.6665 15V5C20.6665 2.23857 18.428 0 15.6665 0H5.6665ZM10.6665 6.36364C8.6582 6.36364 7.03014 7.99169 7.03014 10C7.03014 12.0083 8.6582 13.6364 10.6665 13.6364C12.6748 13.6364 14.3029 12.0083 14.3029 10C14.3029 7.99169 12.6748 6.36364 10.6665 6.36364ZM5.21196 10C5.21196 6.98754 7.65404 4.54545 10.6665 4.54545C13.679 4.54545 16.121 6.98754 16.121 10C16.121 13.0125 13.679 15.4545 10.6665 15.4545C7.65404 15.4545 5.21196 13.0125 5.21196 10ZM16.121 2.72727C15.1169 2.72727 14.3029 3.5413 14.3029 4.54545C14.3029 5.54961 15.1169 6.36364 16.121 6.36364C17.1252 6.36364 17.9392 5.54961 17.9392 4.54545C17.9392 3.5413 17.1252 2.72727 16.121 2.72727Z" fill="white"/>
</svg>
