<svg width="791" height="258" viewBox="0 0 791 258" fill="none" xmlns="http://www.w3.org/2000/svg">
    <path
        d="M250.3 6.4155C369.836 4.70116 489.444 5.32874 609.005 4.70117C631.219 24.5997 651.17 27.3396 659.409 64.3967C668.689 106.199 678.425 121.72 703.298 150.695C733.068 185.38 762.886 218.886 790.166 256.922C527.118 256.463 264.063 256.463 1 256.922C23.5254 234.177 52.5892 222.054 73.0069 196.569C91.0655 174.099 105.591 151.996 125.698 131.853C167.455 89.9127 201.908 33.8754 250.3 6.4155Z"
        stroke="#D2D2FF" stroke-width="0.524416" stroke-miterlimit="10" />
    <path
        d="M47.5586 218.993C85.005 228.559 123.41 243.483 161.838 244.524C188.878 245.274 215.104 236.427 241.114 228.146C267.459 219.773 293.613 211.095 320.964 211.982C348.316 212.87 375.02 222.115 401.569 229.906C458.512 246.59 513.107 243.805 571.138 241.6C599.783 240.498 628.799 241.861 657.36 238.799C691.501 235.156 724.72 222.284 758.371 214.799"
        stroke="#D2D2FF" stroke-width="0.524416" stroke-miterlimit="10" />
    <path
        d="M84.0601 180.725C114.824 183.71 146.331 187.766 177.203 184.123C207.141 180.587 236.205 169.521 265.448 161.163C290.872 153.877 318.391 145.75 344.413 152.286C368.363 158.301 389.104 176.225 410.276 190.766C459.758 224.808 509.671 217.752 564.421 217.553C592.407 217.446 620.597 218.685 648.559 217.262C679.982 215.731 706.962 202.154 736.17 188.287"
        stroke="#D2D2FF" stroke-width="0.524416" stroke-miterlimit="10" />
    <path
        d="M113.455 144.111C142.687 144.035 171.271 144.693 200.168 137.989C229.315 131.269 257.744 120.325 286.82 113.131C310.627 107.238 334.996 102.416 358.396 112.886C379.436 122.238 396.716 140.53 415.362 155.484C458.712 190.276 504.697 182.562 554.095 184.031C610.45 185.73 662.338 189.955 716.203 165.663"
        stroke="#D2D2FF" stroke-width="0.524416" stroke-miterlimit="10" />
    <path
        d="M139.614 117.863C196.616 117.679 246.409 88.8721 301.626 75.7697C346.689 65.0551 378.747 85.0914 419.175 106.505C455.879 125.929 493.876 122.501 532.784 126.894C584.409 132.725 633.794 138.052 685.527 129.955"
        stroke="#D2D2FF" stroke-width="0.524416" stroke-miterlimit="10" />
    <path
        d="M162.18 95.2096C212.823 88.7502 258.449 58.6728 308.469 49.2899C349.52 41.6367 384.715 62.8209 422.641 79C458.255 94.2147 494.384 92.3167 531.4 96.1739C577.109 100.934 621.573 105.021 667.498 101.914"
        stroke="#D2D2FF" stroke-width="0.524416" stroke-miterlimit="10" />
    <path
        d="M181.732 72.7387C224.376 60.2332 265.067 32.4365 308.956 27.5078C349.253 22.9159 388.436 43.3654 426.852 55.58C501.099 79.198 583.823 64.764 659.842 66.6467"
        stroke="#D2D2FF" stroke-width="0.524416" stroke-miterlimit="10" />
    <path
        d="M197.899 50.376C234.866 35.0694 271.618 10.181 311.16 9.04827C351.541 7.85436 391.765 25.8855 430.912 36.0031C503.698 54.8761 578.387 37.1511 651.998 38.6205"
        stroke="#D2D2FF" stroke-width="0.524416" stroke-miterlimit="10" />
    <path
        d="M212.661 30.7224C249.94 16.074 287.111 -2.43158 326.785 1.54812C362.279 5.11455 396.983 16.6098 432.011 24.1559C500.701 38.9879 570.923 26.7733 640.2 26.0692"
        stroke="#D2D2FF" stroke-width="0.524416" stroke-miterlimit="10" />
    <path
        d="M226.359 19.4562C260.392 11.1448 294.055 3.26187 328.855 5.25172C363.044 7.21096 396.886 14.4357 430.907 18.8746C496.28 27.3085 562.706 20.145 628.271 19.3797"
        stroke="#D2D2FF" stroke-width="0.524416" stroke-miterlimit="10" />
    <path
        d="M238.997 13.0129C302.957 6.75249 365.838 11.0077 429.786 13.8088C492.32 16.5487 555.07 13.518 617.629 13.0894"
        stroke="#D2D2FF" stroke-width="0.524416" stroke-miterlimit="10" />
    <path
        d="M576.156 4.83905C595.436 25.1508 611.135 30.2785 615.997 64.5346C618.225 80.285 617.099 96.6018 621.662 111.709C627.649 131.44 641.66 147.129 652.617 162.542C664.593 179.38 676.149 196.217 687.094 214.217C696.159 229.08 709.188 241.386 717.2 256.999"
        stroke="#D2D2FF" stroke-width="0.524416" stroke-miterlimit="10" />
    <path
        d="M543.365 5.03851C560.214 26.3758 573.662 30.8453 574.931 64.1983C573.874 80.7131 574.312 97.3287 576.237 113.715C582.804 130.559 590.392 146.721 598.93 162.053C615.06 192.88 627.059 228.147 644.495 256.954"
        stroke="#D2D2FF" stroke-width="0.524416" stroke-miterlimit="10" />
    <path
        d="M510.629 5.23657C526.197 30.2016 536.4 35.6966 533.837 70.3812C531.442 103.321 535.262 126.572 543.034 158.317C551.082 191.226 559.225 226.814 572.026 256.937"
        stroke="#D2D2FF" stroke-width="0.524416" stroke-miterlimit="10" />
    <path
        d="M477.923 5.42181C487.599 33.6318 498.065 35.9584 491.766 69.9083C486.317 99.3275 487.036 125.318 487.802 155.625C488.677 190.111 490.377 224.887 499.778 257"
        stroke="#D2D2FF" stroke-width="0.524416" stroke-miterlimit="10" />
    <path
        d="M445.282 5.6969C446.246 14.0129 448.629 21.956 452.263 28.9629C453 41.3647 451.308 53.8057 447.342 65.1629C441.186 92.3779 439.306 117.802 437.762 146.043C435.774 183.054 434.349 220.785 427.738 256.985"
        stroke="#D2D2FF" stroke-width="0.524416" stroke-miterlimit="10" />
    <path
        d="M412.68 5.78955C404.864 42.1267 398.509 78.9514 393.639 116.119C386.933 165.575 368.12 209.26 356.073 256.939"
        stroke="#D2D2FF" stroke-width="0.524416" stroke-miterlimit="10" />
    <path
        d="M380.035 5.77197C375.916 11.3946 371.329 12.2262 366.276 8.2669C359.091 12.7262 356.069 20.2213 357.211 30.7522C358.193 40.2213 358.193 49.8146 357.211 59.2836C353.535 70.0092 350.442 81.0459 347.954 92.3152C333.188 149.623 306.041 203.135 284.485 256.876"
        stroke="#D2D2FF" stroke-width="0.524416" stroke-miterlimit="10" />
    <path
        d="M347.465 5.80302C336.436 13.2573 332.592 -0.472666 322.724 3.17029C310.569 7.67042 314.988 20.329 313.396 32.513C310.234 56.5596 303.336 73.6417 294.535 95.8362C281.577 128.47 266.848 159.297 254.873 192.574C248.765 209.487 244.478 225.452 233.665 238.493C227.845 245.549 219.51 249.82 213.391 256.953"
        stroke="#D2D2FF" stroke-width="0.524416" stroke-miterlimit="10" />
    <path
        d="M315.065 6.04873C303.018 11.5132 291.45 -1.926 280.492 7.70182C273.798 13.5795 271.379 30.7688 269.212 39.8456C262.47 68.178 248.854 90.3572 235.549 114.235C216.102 149.104 206.557 177.268 192.774 216.468C187.768 230.718 185.661 239.933 174.572 246.545C164.369 252.668 153.124 250.693 142.334 256.954"
        stroke="#D2D2FF" stroke-width="0.524416" stroke-miterlimit="10" />
    <path
        d="M282.631 6.03088C270.655 11.3576 256.68 8.92383 246.106 18.9037C236.263 28.1795 230.97 45.8891 224.695 58.5936C211.522 85.2117 195.044 107.575 177.812 129.953C170.387 139.596 160.867 148.321 154.412 159.035C144.03 176.316 140.689 198.22 131.791 216.527C118.175 244.583 92.0093 240.543 71.5317 256.921"
        stroke="#D2D2FF" stroke-width="0.524416" stroke-miterlimit="10" />
</svg>