<svg width="46" height="46" viewBox="0 0 46 46" fill="none" xmlns="http://www.w3.org/2000/svg">
    <path opacity="0.4"
        d="M22.9315 42.0411C33.4854 42.0411 42.0411 33.4854 42.0411 22.9315C42.0411 12.3776 33.4854 3.82191 22.9315 3.82191C12.3775 3.82191 3.82188 12.3776 3.82188 22.9315C3.82188 33.4854 12.3775 42.0411 22.9315 42.0411Z"
        fill="black" />
    <path
        d="M16.5871 22.7595L19.7402 23.5431L17.9248 30.8811C17.5044 32.6009 18.3452 33.1743 19.7975 32.1615L29.6963 25.3011C30.9002 24.4603 30.7282 23.4857 29.295 23.1226L26.1419 22.3392L27.9573 15.001C28.3777 13.2812 27.5369 12.7079 26.0846 13.7207L16.1858 20.5811C14.9819 21.4219 15.1539 22.3964 16.5871 22.7595Z"
        fill="white" />
</svg>