<svg width="23" height="23" viewBox="0 0 23 23" fill="none" xmlns="http://www.w3.org/2000/svg">
<path d="M21.5081 4.22379C21.5081 6.14231 19.9529 7.69757 18.0343 7.69757C16.1158 7.69757 14.5605 6.14231 14.5605 4.22379C14.5605 2.30527 16.1158 0.75 18.0343 0.75C19.9529 0.75 21.5081 2.30527 21.5081 4.22379Z" stroke="#E84FC1" stroke-width="1.5"/>
<path d="M7.69757 4.22379C7.69757 6.14231 6.14231 7.69757 4.22379 7.69757C2.30527 7.69757 0.75 6.14231 0.75 4.22379C0.75 2.30527 2.30527 0.75 4.22379 0.75C6.14231 0.75 7.69757 2.30527 7.69757 4.22379Z" stroke="#E84FC1" stroke-width="1.5"/>
<path d="M21.5081 18.7765C21.5081 20.695 19.9529 22.2503 18.0343 22.2503C16.1158 22.2503 14.5605 20.695 14.5605 18.7765C14.5605 16.858 16.1158 15.3027 18.0343 15.3027C19.9529 15.3027 21.5081 16.858 21.5081 18.7765Z" stroke="#E84FC1" stroke-width="1.5"/>
<path d="M7.69757 18.7765C7.69757 20.695 6.14231 22.2503 4.22379 22.2503C2.30527 22.2503 0.75 20.695 0.75 18.7765C0.75 16.858 2.30527 15.3027 4.22379 15.3027C6.14231 15.3027 7.69757 16.858 7.69757 18.7765Z" stroke="#E84FC1" stroke-width="1.5"/>
</svg>
