<svg xmlns="http://www.w3.org/2000/svg" width="164" height="199" viewBox="0 0 164 199" fill="none">
    <path
        d="M18.78 74.6269L18.7719 74.6415L18.7653 74.6568L14.4623 84.0066L14.4576 84.0169L14.4534 84.0273L10.6371 93.5378L10.9155 93.6536L10.6288 93.56L7.33787 103.186L7.33374 103.198L7.33029 103.21L4.61136 112.911L5.48266 113.169L11.4821 93.8754L29.5509 56.9976L41.2446 40.1129L40.5047 39.5857L34.4337 47.8709L34.4266 47.8807L34.42 47.8908L28.7777 56.5184L29.028 56.6868L28.7657 56.5378L23.5554 65.4546L23.5498 65.4641L23.5447 65.474L18.78 74.6269Z"
        fill="#FF00BF" stroke="white" stroke-width="0.90864" />
    <path
        d="M54.8557 91.0712L53.8204 91.4159L54.7944 91.9078L59.9239 94.4982L51.9926 97.4351L51.0036 97.8013L51.9492 98.2685L58.0439 101.28L58.4676 101.489L58.6601 101.057L61.4681 94.7602L64.661 88.64L68.2307 82.7189L68.8329 81.7201L67.7137 82.0484L58.104 84.868L57.0154 85.1874L58.0235 85.7076L63.0986 88.3269L54.8557 91.0712Z"
        fill="#FF00BF" stroke="white" stroke-width="0.90864" />
    <path
        d="M54.6833 24.8427L53.9843 24.2629L40.5294 39.5547L40.512 39.5745L40.497 39.5961L28.7837 56.5089L29.5152 57.0474L54.6833 24.8427Z"
        fill="#FF00BF" stroke="white" stroke-width="0.90864" />
    <path
        d="M58.4403 84.9003L58.0383 84.6928L57.8291 85.0939L54.8037 90.8947L54.7792 90.8823L54.5901 91.3043L54.0769 92.2883L54.162 92.26L51.7358 97.6755L51.2933 98.663L52.3082 98.2873L61.2166 94.9886L62.1938 94.6267L61.2636 94.157L56.1781 91.5887L64.4082 88.8486L65.4308 88.5081L64.4731 88.0138L58.4403 84.9003ZM61.7164 78.8726L60.566 79.1618L61.6153 79.7151L67.6297 82.8863L67.9857 83.0741L68.215 82.7433L72.146 77.0715L72.8352 76.0771L71.6618 76.3721L61.7164 78.8726Z"
        fill="#FF00BF" stroke="white" stroke-width="0.90864" />
    <path
        d="M29.5854 56.9228L28.7505 56.5674L10.6513 93.5074L10.6296 93.5516L10.6179 93.5994L1.13534 132.39L2.00355 132.653L29.5854 56.9228Z"
        fill="#FF00BF" stroke="white" stroke-width="0.90864" />
    <path
        d="M49.1387 104.563L48.9191 105.146L48.9971 105.115L47.3385 110.546L46.6175 110.863L47.163 111.121L46.9884 111.693L47.7053 111.377L53.7078 114.215L54.1856 114.441L54.3372 113.935L56.2234 107.633L56.9329 107.321L56.4185 107.072L58.5999 101.218L59.352 100.913L58.8129 100.647L59.0304 100.063L58.2622 100.375L52.7427 97.6478L55.4071 91.7006L58.5441 85.6856L67.9683 82.9205L69.0431 82.6051L68.0523 82.0827L63.0872 79.4647L71.7112 77.2964L71.8901 77.3927L72.031 77.216L73.0177 76.9679L72.4658 76.6707L76.399 71.7386L77.1825 70.756L75.9518 71.0104L65.8368 73.1012L65.6234 72.9863L65.496 73.1717L64.4518 73.3875L65.1056 73.7395L61.6805 78.7229L61.6577 78.7109L61.5282 78.9266L51.9664 81.7001L50.872 82.0175L51.8846 82.5401L57.0589 85.2106L48.6913 87.9574L47.6483 88.2998L48.6282 88.7946L53.8561 91.4348L45.7928 94.3708L44.7943 94.7344L45.747 95.2051L51.5789 98.0863L49.4603 103.71L49.4305 103.695L49.3389 103.995L48.5912 104.299L49.1387 104.563Z"
        fill="#FF00BF" stroke="white" stroke-width="0.90864" />
    <path
        d="M54.6681 24.8631L53.9956 24.2522L47.045 31.6617L47.0351 31.6722L47.0259 31.6833L40.5216 39.5656L41.2132 40.1549L54.6681 24.8631Z"
        fill="#FF00BF" stroke="white" stroke-width="0.90864" />
    <path
        d="M52.3023 81.7325L51.9003 81.525L51.6911 81.9262L48.4311 88.1789L47.915 89.1688L48.9757 88.8206L58.3734 85.7356L59.4035 85.3974L58.4401 84.9002L52.3023 81.7325Z"
        fill="#FF00BF" stroke="white" stroke-width="0.90864" />
    <path
        d="M11.5006 93.8152L10.6254 93.5724L4.61556 112.899L4.60713 112.927L4.60213 112.955L1.1294 132.418L2.01798 132.606L11.5006 93.8152Z"
        fill="#FF00BF" stroke="white" stroke-width="0.90864" />
    <path
        d="M49.9824 88.4598L49.449 88.1905L52.4064 82.5181L61.7768 79.8002L61.9719 79.9031L62.1088 79.7038L63.0336 79.4356L62.4901 79.1491L66.0382 73.9869L75.9721 71.9336L76.1368 72.0241L76.2789 71.8701L77.343 71.6502L76.772 71.3363L80.876 66.8929L82.0122 66.7122L81.3735 66.3542L81.872 65.8145L80.7336 65.9954L74.8598 62.7026L74.5446 62.5259L74.3015 62.7933L69.9455 67.5846L69.9221 67.5717L69.7938 67.7345L68.6598 67.9148L68.7399 67.9588L60.6645 69.6184L60.7021 69.5632L59.7188 69.8061L59.5127 69.6951L59.3859 69.8812L58.3406 70.096L58.4049 70.1306L49.3714 72.3619L48.2126 72.6481L49.2684 73.2048L54.4427 75.9331L54.4955 75.9609L45.896 78.4261L45.6541 78.3013L45.5352 78.5296L44.6223 78.7913L45.2342 79.1071L42.3646 84.6128L42.3417 84.6012L42.2291 84.8502L41.3696 85.1283L41.9446 85.4187L41.6446 85.9943L41.723 85.9689L39.3041 91.3169L38.4775 91.6128L39.0438 91.8926L38.7833 92.4685L39.6103 92.1725L45.3544 95.0103L45.0924 95.5924L45.1703 95.5641L43.2169 100.691L43.1882 100.677L43.0958 100.974L42.3375 101.276L42.8922 101.544L42.6725 102.12L42.748 102.09L41.0423 107.565L40.3091 107.88L40.8626 108.141L40.6866 108.706L41.4049 108.398L47.1874 111.132L45.7993 117.128L45.1194 117.449L45.6664 117.702L45.5382 118.256L46.1943 117.946L52.2513 120.749L52.7626 120.985L52.8855 120.435L54.2972 114.12L54.9658 113.804L54.425 113.549L54.5484 112.997L53.9025 113.302L48.2617 110.635L50.0836 104.669L50.8049 104.359L50.2821 104.106L52.504 98.2087L53.266 97.9055L52.7198 97.6357L52.9374 97.0583L52.1695 97.3638L47.1025 94.8605L55.1538 91.9288L56.1403 91.5696L55.2032 91.0963L49.9824 88.4598Z"
        fill="#FF00BF" stroke="white" stroke-width="0.90864" />
    <path
        d="M29.5994 56.6576L29.2403 55.2151L28.7316 56.6119L1.14977 132.342L1.97936 132.708L33.4258 72.5038L33.5056 72.351L33.4639 72.1837L29.5994 56.6576Z"
        fill="#FF00BF" stroke="white" stroke-width="0.90864" />
    <path
        d="M36.9438 97.8211L35.9726 98.1999L36.9112 98.6535L43.2669 101.725L43.7128 101.941L43.8891 101.478L46.3727 94.9591L46.7373 94.0019L45.783 94.3741L36.9438 97.8211ZM49.6917 72.4012L49.3099 72.1999L49.0893 72.5709L45.4569 78.6805L44.8715 79.6651L45.9726 79.3495L55.8318 76.5231L56.9183 76.2117L55.9185 75.6845L49.6917 72.4012ZM64.1498 64.3997L63.8104 64.2131L63.5725 64.5188L59.2986 70.0103L58.5421 70.9824L59.7486 70.7344L70.1317 68.6005L71.341 68.3519L70.259 67.7573L64.1498 64.3997Z"
        fill="#FF00BF" stroke="white" stroke-width="0.90864" />
    <path
        d="M29.5114 56.4812L28.7176 56.8771L32.5822 72.4032L32.8507 73.4817L33.4146 72.5239L37.0845 66.2908L37.2445 66.0191L37.0459 65.7741L29.5114 56.4812ZM5.49665 113.114L4.60517 112.939L2.51694 122.675L2.5136 122.69L2.51137 122.706L1.12687 132.434L2.02392 132.577L5.49665 113.114Z"
        fill="#FF00BF" stroke="white" stroke-width="0.90864" />
    <path
        d="M39.8394 91.2727L39.3932 91.0522L39.2142 91.5167L36.6849 98.0811L36.3148 99.0418L37.274 98.6677L46.1132 95.2207L47.073 94.8464L46.1493 94.3901L39.8394 91.2727ZM75.7785 62.519L75.8433 62.4477L74.5771 62.6486L73.1745 62.8L73.2735 62.8555L63.8598 64.3492L62.5496 64.5571L63.7122 65.1961L69.8214 68.5537L70.1353 68.7262L70.3764 68.4611L74.7302 63.6721L80.4264 66.8654L80.7142 67.0268L80.9567 66.8031L85.8893 62.2521L86.9009 61.3189L85.5325 61.4665L75.7785 62.519ZM46.7177 117.188L48.1546 110.98L48.3635 110.078L47.5222 110.465L39.6414 114.09L38.7466 114.501L39.6405 114.915L45.6912 117.714L44.7438 123.921L44.6109 124.792L45.3974 124.395L52.646 120.742L53.4858 120.319L52.6323 119.924L46.7177 117.188Z"
        fill="#FF00BF" stroke="white" stroke-width="0.90864" />
    <path
        d="M29.2823 56.3306L27.8963 55.9335L28.8043 57.0535L36.3389 66.3464L36.7284 66.8268L37.0703 66.3114L41.0479 60.3163L41.391 59.7992L40.7945 59.6283L29.2823 56.3306Z"
        fill="#FF00BF" stroke="white" stroke-width="0.90864" />
    <path
        d="M44.988 123.584L44.1395 124.012L45.005 124.404L51.3231 127.265L51.8747 127.515L51.9603 126.915L52.8908 120.401L53.0139 119.539L52.2366 119.931L44.988 123.584ZM53.1665 66.5335L52.1202 66.7472L52.7815 67.1033L49.1958 72.4112L39.367 75.1953L38.2606 75.5087L39.2825 76.0361L44.6635 78.8132L36.0369 81.5638L34.9783 81.9014L35.9701 82.4022L41.403 85.1458L33.0651 88.0787L32.0473 88.4367L33.0146 88.9146L39.4364 92.0873L39.8579 92.2955L40.0516 91.8672L42.9679 85.4195L46.2439 79.134L49.7727 73.1986L59.5955 70.7725L59.7793 70.8714L59.9184 70.6927L60.9094 70.4479L60.3453 70.1442L64.2891 65.0769L65.0442 64.1066L63.8396 64.3527L53.5095 66.4634L53.2927 66.3466L53.1665 66.5335ZM47.9057 110.467L41.9641 107.658L43.8349 101.653L44.5684 101.345L44.0143 101.077L44.1882 100.519L43.4772 100.818L37.3061 97.8354L36.8342 97.6073L36.6754 98.1068L34.633 104.531L33.8874 104.844L34.4491 105.11L34.2715 105.668L34.9914 105.366L40.8851 108.153L39.3889 114.396L39.171 115.306L40.0206 114.915L47.9014 111.29L48.7865 110.883L47.9057 110.467Z"
        fill="#FF00BF" stroke="white" stroke-width="0.90864" />
    <path
        d="M29.0887 56.3184L29.0321 57.2043L40.5442 60.502L40.8453 60.5883L41.033 60.3376L45.3042 54.6331L45.9697 53.7443L44.872 53.9117L29.0887 56.3184Z"
        fill="#FF00BF" stroke="white" stroke-width="0.90864" />
    <path
        d="M39.0952 75.4119L38.5226 76.3796L38.6028 76.3569L35.9809 81.3893L35.9588 81.3781L35.7679 81.7979L35.2642 82.7648L35.3394 82.7408L32.9979 87.8924L32.9741 87.8806L32.7986 88.331L32.3628 89.2898L32.4348 89.2644L30.2909 94.7658L29.496 95.0696L30.0653 95.3447L29.8455 95.9087L30.62 95.6128L36.9123 98.6538L37.3565 98.8685L37.5339 98.4081L39.9904 92.0324L40.7727 91.7335L40.2123 91.4566L40.4299 90.8918L39.6625 91.185L34.3859 88.5781L42.7115 85.6497L43.7169 85.296L42.7655 84.8155L37.3731 82.0923L45.9865 79.3459L47.0319 79.0126L46.0568 78.5093L40.7227 75.7564L49.4298 73.2901L49.6293 73.3953L49.7644 73.1953L50.6971 72.9311L50.141 72.6379L53.7133 67.3498L63.8595 65.2767L64.0298 65.3703L64.1629 65.2216L74.5536 63.5728L74.7068 63.6587L74.8385 63.5347L85.6311 62.3702L87.0253 62.2197L85.8077 61.524L80.3118 58.3837L80.8514 57.876L79.6509 58.0061L79.4869 57.9124L79.353 58.0384L69.6477 59.0903L69.7096 59.0211L68.6046 59.1961L68.4243 59.0951L68.2977 59.2366L67.0584 59.371L67.1558 59.4256L57.7969 60.9079L57.5916 60.7951L57.4645 60.9605L56.3324 61.1398L57.0314 61.524L53.1777 66.5384L43.203 68.9797L42.9728 68.8583L42.8499 69.0661L41.8724 69.3053L42.5096 69.6413L39.3198 75.0323L39.2986 75.0214L39.0952 75.4119Z"
        fill="#FF00BF" stroke="white" stroke-width="0.90864" />
    <path
        d="M28.9952 56.3433L29.2257 57.2168L45.009 54.8102L45.1767 54.7846L45.2867 54.6553L49.841 49.2989L49.3329 48.5802L28.9952 56.3433Z"
        fill="#FF00BF" stroke="white" stroke-width="0.90864" />
    <path
        d="M40.3604 114.246L41.8037 108.223L42.5006 107.911L41.9418 107.647L42.0709 107.108L41.4192 107.4L35.5569 104.628L37.4782 98.5844L38.224 98.2786L37.6618 98.0069L37.8372 97.4551L37.1247 97.7473L31.2165 94.8919L33.6357 88.684L36.5089 82.3625L37.3396 82.0755L36.7916 81.7987L39.8079 76.0095L40.6814 75.7351L40.1281 75.4496L43.4368 69.8576L53.3786 67.4244L53.565 67.5248L53.7032 67.345L54.6963 67.1019L54.126 66.7949L57.9638 61.8011L68.5796 60.1198L79.4555 58.941L85.3565 62.3128L85.6193 62.4629L85.8591 62.2783L90.9528 58.3563L92.0897 57.481L90.6561 57.5425L79.6645 58.0139L73.6413 54.5723L73.3463 54.4038L73.1012 54.6391L68.4479 59.1083L62.514 55.7817L62.1935 55.6021L61.9507 55.8779L57.6135 60.8071L51.6036 57.5041L51.2599 57.3152L51.0229 57.6276L46.985 62.9497L46.964 62.9384L46.8384 63.126L45.791 63.3387L45.8526 63.3719L36.7523 65.5784L36.5208 65.4564L36.3985 65.6642L35.4178 65.902L36.0593 66.2402L32.849 71.6928L32.8286 71.6823L32.7104 71.9091L31.7873 72.1674L32.3872 72.477L32.0587 73.035L32.1352 73.0136L29.4821 78.1074L29.4609 78.0967L29.3486 78.3424L28.4751 78.6168L29.0624 78.9133L28.7688 79.4769L28.8407 79.4543L26.3478 84.9121L25.5041 85.2036L26.0838 85.49L25.8264 86.0536L26.6491 85.7693L32.0746 88.4498L23.8964 91.5102L22.9015 91.8825L23.858 92.3447L30.0863 95.3548L28.1111 101.443L27.3529 101.754L27.9228 102.024L27.7437 102.576L28.4653 102.28L34.473 105.121L32.9699 111.183L32.261 111.5L32.8263 111.762L32.6922 112.303L33.3545 112.006L39.3281 114.77L38.3516 120.772L37.6957 121.093L38.2581 121.347L38.1729 121.871L38.7697 121.579L44.7195 124.274L44.3304 130.181L43.7333 130.501L44.293 130.75L44.2601 131.25L44.7859 130.968L50.978 133.715L51.5802 133.982L51.6159 133.325L51.9515 127.131L52.5377 126.817L51.9822 126.566L52.009 126.07L51.4949 126.345L45.6946 123.718L46.6057 117.749L47.25 117.434L46.6931 117.176L46.7725 116.656L46.1871 116.942L40.3604 114.246Z"
        fill="#FF00BF" stroke="white" stroke-width="0.90864" />
    <path
        d="M30.0868 78.9144L27.0941 85.4664L27.0884 85.4788L27.082 85.4909L1.97936 132.708L1.97933 132.708L1.97781 132.711L1.19043 132.296L1.1901 132.296M30.0868 78.9144L1.1901 132.296M30.0868 78.9144L33.4257 72.5038L33.4258 72.5036L33.426 72.5032L32.6204 72.0829L32.6201 72.0834L1.18132 132.273L1.17551 132.284L30.0868 78.9144ZM1.1901 132.296L1.17399 132.287L1.17396 132.287L1.1901 132.296ZM28.8005 56.4874L29.1459 56.7966L29.3205 57.1917L49.6581 49.4286L49.7514 49.393L49.8211 49.3216L54.6516 44.3762L54.1218 43.6532L31.5799 55.0356L83.1764 4.5993L82.5955 3.90416L54.0633 24.1923L54.0094 24.2307L53.9686 24.2828L28.8005 56.4874Z"
        fill="#FF00BF" stroke="white" stroke-width="0.90864" />
    <path
        d="M26.8814 84.8705L26.4387 84.6518L26.2575 85.1112L23.633 91.769L23.2585 92.719L24.2149 92.3611L33.3762 88.9328L34.3593 88.5649L33.4182 88.1L26.8814 84.8705ZM84.8485 54.0821L84.5813 53.9267L84.3387 54.1182L79.2715 58.1167L78.168 58.9875L79.5724 58.9273L90.6951 58.4502L92.2455 58.3837L90.904 57.6036L84.8485 54.0821ZM63.4058 55.5997L63.4648 55.5326L62.2317 55.7275L60.8312 55.88L60.9271 55.9338L51.3139 57.4534L50.0023 57.6608L51.166 58.3003L57.4951 61.7788L57.8144 61.9543L58.055 61.6808L62.3902 56.754L68.2974 60.0656L68.5913 60.2303L68.8343 59.997L73.7306 55.2944L74.6923 54.3708L73.3667 54.5151L63.4058 55.5997ZM33.8888 111.252L35.4445 104.978L35.6661 104.085L34.8221 104.452L26.585 108.041L25.6576 108.445L26.5757 108.87L32.8505 111.773L31.8075 117.802L31.1343 118.121L31.7074 118.381L31.618 118.897L32.2193 118.612L38.5749 121.491L39.1155 121.736L39.2108 121.15L40.242 114.811L40.9032 114.497L40.3357 114.235L40.4192 113.721L39.8296 114.001L33.8888 111.252Z"
        fill="#FF00BF" stroke="white" stroke-width="0.90864" />
    <path
        d="M1.17551 132.285L1.97404 132.718L24.4537 92.1561L24.4681 92.1301L24.479 92.1025L27.1035 85.4447L26.2797 85.0648L1.17551 132.285Z"
        fill="#FF00BF" stroke="white" stroke-width="0.90864" />
    <path
        d="M40.3946 59.6571L39.3461 59.8688L40.0152 60.2291L36.313 65.8092L35.6722 66.775L36.7986 66.5019L47.049 64.0165L47.2381 64.1183L47.3753 63.9374L48.3705 63.6961L47.794 63.3857L51.7459 58.1768L52.4726 57.2189L51.2941 57.4569L40.7401 59.5874L40.5196 59.4687L40.3946 59.6571ZM28.6717 101.373L28.1741 101.138L28.0374 101.671L26.3256 108.345L26.0945 109.245L26.9471 108.874L35.1842 105.285L36.1014 104.886L35.1969 104.458L28.6717 101.373ZM73.3951 54.5129L71.8255 54.5818L73.1897 55.3612L79.3267 58.8679L79.5929 59.0199L79.8336 58.83L84.9007 54.8315L86.0062 53.9592L84.5994 54.021L73.3951 54.5129Z"
        fill="#FF00BF" stroke="white" stroke-width="0.90864" />
    <path
        d="M68.9813 12.6431L68.406 11.94L61.2306 17.5621L61.216 17.5735L61.2023 17.5861L54.0177 24.2292L54.6212 24.9082L68.9813 12.6431Z"
        fill="#FF00BF" stroke="white" stroke-width="0.90864" />
    <path
        d="M38.949 120.664L38.359 120.396L38.3087 121.042L37.8224 127.287L37.2057 127.606L37.7778 127.86L37.7394 128.353L38.2706 128.079L44.5823 130.879L45.1771 131.142L45.2198 130.493L45.6293 124.276L46.2346 123.963L45.6668 123.706L45.699 123.217L45.1798 123.486L38.949 120.664ZM21.2768 98.8819L21.096 99.428L21.8194 99.1385L28.2834 102.195L28.7504 102.415L28.9097 101.924L31.0064 95.4612L31.7649 95.1576L31.1944 94.8819L31.3713 94.3365L30.6572 94.6223L24.2526 91.527L23.7864 91.3017L23.6237 91.7932L21.4696 98.2998L20.6984 98.6084L21.2768 98.8819Z"
        fill="#FF00BF" stroke="white" stroke-width="0.90864" />
    <path
        d="M1.17929 132.278L1.96651 132.731L22.2257 98.8763L22.2514 98.8334L22.2671 98.7858L24.4876 92.0788L23.6589 91.7158L1.17929 132.278Z"
        fill="#FF00BF" stroke="white" stroke-width="0.90864" />
    <path
        d="M84.636 54.0206L84.3921 54.8674L90.4476 58.3889L90.6834 58.526L90.9153 58.3823L95.9837 55.2416L97.257 54.4526L95.76 54.4014L84.636 54.0206ZM56.174 52.2271L55.8507 52.0459L55.6082 52.3262L51.0416 57.6048L50.2283 58.5449L51.4561 58.3508L62.3523 56.6283L73.4654 55.4182L74.8572 55.2667L73.6417 54.5721L67.3935 51.002L67.0953 50.8316L66.85 51.0721L62.2173 55.615L56.174 52.2271ZM44.9518 130.047L44.2904 129.754L44.3135 130.477L44.5099 136.629L44.5333 137.36L45.1783 137.015L51.3768 133.7L52.1972 133.262L51.3468 132.885L44.9518 130.047Z"
        fill="#FF00BF" stroke="white" stroke-width="0.90864" />
    <path
        d="M28.9335 56.3723L29.362 57.1733L54.5301 44.4649L54.5814 44.439L54.6246 44.4012L59.567 40.074L59.044 39.3368L28.9335 56.3723Z"
        fill="#FF00BF" stroke="white" stroke-width="0.90864" />
    <path
        d="M44.6895 53.9405L43.5595 54.1187L44.2655 54.5068L40.3077 59.7926L39.5939 60.7459L40.7613 60.5102L51.3131 58.3801L51.4894 58.477L51.6283 58.3165L52.6929 58.1016L52.0973 57.7743L56.054 53.2008L62.0711 56.574L62.3682 56.7405L62.6113 56.5021L67.4873 51.7207L68.4241 50.802L67.1198 50.9447L57.0532 52.0459L57.1094 51.9809L55.8928 52.1728L54.4934 52.3259L54.5876 52.3788L45.0252 53.8875L44.8155 53.7722L44.6895 53.9405ZM44.7508 136.214L43.9231 136.656L44.7838 137.031L51.2616 139.85L51.9299 140.141L51.8968 139.413L51.6175 133.279L51.5848 132.559L50.9494 132.899L44.7508 136.214ZM78.6846 50.4964L78.4139 50.339L78.1704 50.536L73.1315 54.6133L72.0594 55.4808L73.4373 55.4203L84.6415 54.9284L86.189 54.8605L84.85 54.0818L78.6846 50.4964Z"
        fill="#FF00BF" stroke="white" stroke-width="0.90864" />
    <path
        d="M1.18681 132.265L1.95222 132.754L20.4315 105.609L20.4752 105.545L20.4951 105.47L22.275 98.7598L21.446 98.41L1.18681 132.265Z"
        fill="#FF00BF" stroke="white" stroke-width="0.90864" />
    <path
        d="M27.2999 108.204L28.8619 102.114L29.5886 101.807L29.0109 101.533L29.1459 101.007L28.4879 101.286L22.0288 98.2322L21.5354 97.9989L21.3954 98.5264L19.6726 105.021L18.9333 105.335L19.5178 105.605L19.3777 106.133L20.0466 105.85L26.2554 108.722L25.1435 114.778L24.4527 115.095L25.0367 115.36L24.943 115.87L25.549 115.592L31.7329 118.393L31.1963 124.34L30.5595 124.657L31.1442 124.917L31.1004 125.403L31.6372 125.135L37.8067 127.873L37.9121 133.752L37.9251 134.481L38.5736 134.148L44.9738 130.867L45.8202 130.434L44.9508 130.048L38.7337 127.29L39.1947 121.369L39.8196 121.058L39.2394 120.795L39.2769 120.313L38.7524 120.574L32.7219 117.843L33.7639 111.82L34.4424 111.509L33.864 111.241L33.9518 110.734L33.3577 111.007L27.2999 108.204ZM67.1467 50.9431L65.5802 51.0134L66.9417 51.7914L73.1899 55.3615L73.4596 55.5156L73.7011 55.3202L78.4965 51.4399L83.7471 54.4934L83.1433 54.8792L84.4899 54.9253L84.6306 55.0071L84.7451 54.934L95.7279 55.3099L95.9745 54.4647L90.5212 51.2437L91.1326 50.8531L89.7846 50.8086L89.6442 50.7257L89.5277 50.8002L79.6879 50.4758L79.8139 50.3739L78.4337 50.4359L67.1467 50.9431ZM49.717 48.6083L49.3909 48.4255L49.1487 48.7103L44.5944 54.0668L43.8001 55.0009L45.0113 54.8098L56.0216 53.0726L57.3161 52.8684L56.173 52.2276L49.717 48.6083Z"
        fill="#FF00BF" stroke="white" stroke-width="0.90864" />
    <path
        d="M1.2011 132.242L1.92471 132.79L19.1077 112.31L19.1832 112.22L19.2056 112.104L20.5019 105.44L19.6804 105.097L1.2011 132.242Z"
        fill="#FF00BF" stroke="white" stroke-width="0.90864" />
    <path
        d="M61.0301 47.367L60.7286 47.1947L60.4832 47.4405L55.6292 52.3028L54.7178 53.2156L56.0001 53.0754L67.2164 51.8484L68.6069 51.6963L67.3924 51.0023L61.0301 47.367Z"
        fill="#FF00BF" stroke="white" stroke-width="0.90864" />
    <path
        d="M28.9269 56.3761L29.3809 57.1632L59.4914 40.1276L59.5139 40.1149L59.5348 40.0997L64.4088 36.558L63.9114 35.7988L28.9269 56.3761Z"
        fill="#FF00BF" stroke="white" stroke-width="0.90864" />
    <path
        d="M38.1604 133.339L37.3063 133.777L38.1864 134.16L44.7831 137.031L45.4414 137.318L45.4185 136.6L45.222 130.448L45.1991 129.731L44.5607 130.058L38.1604 133.339ZM72.4056 46.8455L72.1312 46.686L71.887 46.8887L66.8783 51.047L65.8374 51.9111L67.1889 51.8504L78.4759 51.3432L80.0204 51.2738L78.6839 50.4966L72.4056 46.8455ZM49.4466 48.5527L48.0378 48.7075L49.2741 49.4005L55.73 53.0198L56.0304 53.1882L56.2737 52.9445L61.1278 48.0822L62.0398 47.1686L60.7566 47.3096L49.4466 48.5527Z"
        fill="#FF00BF" stroke="white" stroke-width="0.90864" />
    <path
        d="M2.03042 132.505L1.1227 132.47L0.546537 141.839L0.545225 141.861L0.545921 141.882L0.828267 150.546L1.73661 150.538L2.03042 132.505Z"
        fill="#FF00BF" stroke="white" stroke-width="0.90864" />
    <path
        d="M89.8013 50.8179L83.6831 47.2042L83.4388 47.0599L83.202 47.216L78.2045 50.51L77.0115 51.2964L78.4396 51.3434L89.5229 51.7088L95.5128 55.2467L95.7194 55.3687L95.9367 55.2669L100.944 52.9195L102.401 52.2367L100.802 52.0566L89.8013 50.8179ZM20.2459 104.94L19.7198 104.697L19.6091 105.266L18.358 111.698L17.6491 112.013L18.2443 112.283L18.1463 112.787L18.7571 112.515L25.0626 115.371L24.4484 121.338L23.7909 121.654L24.3886 121.919L24.3392 122.399L24.8819 122.138L31.4421 125.048L32.0219 125.306L32.0788 124.674L32.644 118.409L33.2892 118.099L32.6962 117.831L32.7391 117.356L32.2091 117.61L26.0591 114.825L27.1698 108.775L27.8661 108.466L27.2767 108.193L27.3686 107.692L26.77 107.959L20.2459 104.94ZM45.1447 136.198L44.3951 135.872L44.5139 136.681L45.2876 141.948L44.6965 142.238L45.3727 142.527L45.4263 142.892L45.7983 142.709L52.1699 145.436L52.9296 145.761L52.797 144.945L51.9437 139.693L52.5229 139.409L51.8499 139.116L51.7914 138.756L51.4298 138.933L45.1447 136.198ZM60.7844 47.3074L59.2211 47.3793L60.5799 48.1557L66.9421 51.791L67.2155 51.9472L67.4577 51.7461L72.4664 47.5878L73.5091 46.7222L72.1553 46.7844L60.7844 47.3074Z"
        fill="#FF00BF" stroke="white" stroke-width="0.90864" />
    <path
        d="M1.22861 132.206L1.87033 132.845L18.2911 118.934L18.428 118.818L18.4487 118.639L19.2109 112.07L19.3856 110.565L18.4116 111.726L1.22861 132.206Z"
        fill="#FF00BF" stroke="white" stroke-width="0.90864" />
    <path
        d="M72.1921 46.7842L71.9493 47.631L78.2277 51.2821L78.471 51.4236L78.7061 51.2687L83.7036 47.9747L84.8992 47.1866L83.4679 47.1413L72.1921 46.7842Z"
        fill="#FF00BF" stroke="white" stroke-width="0.90864" />
    <path
        d="M83.2495 4.50423L82.54 3.94953L28.8396 56.4423L29.3876 57.1588L64.3721 36.5815L64.4739 36.5216L64.5337 36.4197L83.2495 4.50423Z"
        fill="#FF00BF" stroke="white" stroke-width="0.90864" />
    <path
        d="M31.8107 124.218L31.1697 123.934L31.1721 124.635L31.1936 130.821L31.1961 131.548L31.8482 131.228L38.4565 127.982L39.3295 127.554L38.4405 127.159L31.8107 124.218ZM54.5512 43.6646L54.2463 43.4904L54.0008 43.7416L49.1704 48.687L48.2838 49.5946L49.545 49.456L60.855 48.213L62.2443 48.0603L61.0308 47.3669L54.5512 43.6646Z"
        fill="#FF00BF" stroke="white" stroke-width="0.90864" />
    <path
        d="M83.1216 4.64467L82.6345 3.87905L68.4624 11.902L68.4244 11.9236L68.3911 11.9519L54.0311 24.2171L54.5894 24.9328L83.1216 4.64467Z"
        fill="#FF00BF" stroke="white" stroke-width="0.90864" />
    <path
        d="M31.4476 130.412L30.5665 130.845L31.4666 131.236L37.9496 134.058L38.6061 139.078L37.9865 139.367L38.6829 139.665L38.7297 140.023L39.1077 139.846L45.6066 142.627L46.3528 142.947L46.2348 142.144L45.4621 136.883L46.0691 136.6L45.3763 136.299L45.3243 135.945L44.957 136.116L38.8158 133.444L38.7104 127.566L38.6976 126.851L38.0559 127.167L31.4476 130.412ZM95.5725 48.8783L96.2272 48.5591L94.7682 48.3968L94.6419 48.3212L94.539 48.3713L83.5991 47.1546L77.366 43.473L77.1177 43.3264L76.8793 43.4886L72.1572 46.7017L66.5647 43.4495L67.088 43.0035L65.8944 43.0597L65.732 42.9653L65.6053 43.0733L54.3044 43.6052L52.7443 43.6786L54.1004 44.4534L60.0185 47.835L59.5009 48.2761L60.6944 48.2212L60.8571 48.3141L60.9816 48.208L72.1795 47.693L83.3213 48.0458L88.6958 51.2203L88.05 51.5352L89.5066 51.6992L89.6334 51.7741L89.7344 51.7248L100.701 52.9596L100.985 52.1184L95.5725 48.8783ZM18.9463 111.603L18.3793 111.347L18.3075 111.965L17.5746 118.281L16.8959 118.595L17.5068 118.866L17.4519 119.339L18.0005 119.085L24.6901 122.053L25.2622 122.307L25.3263 121.684L25.9736 115.396L26.6395 115.088L26.0335 114.813L26.0818 114.345L25.5461 114.593L18.9463 111.603Z"
        fill="#FF00BF" stroke="white" stroke-width="0.90864" />
    <path
        d="M18.0248 125.217L18.2772 125.097L18.2847 124.818L18.4516 118.599L18.4788 117.583L17.7037 118.24L1.28299 132.151L1.77099 132.909L18.0248 125.217Z"
        fill="#FF00BF" stroke="white" stroke-width="0.90864" />
    <path
        d="M54.349 44.5132L65.6712 43.9803L71.9497 47.6315L72.1971 47.7753L72.4337 47.6143L77.154 44.4024L82.5094 47.5656L81.8914 47.8791L83.3068 48.0365L83.4373 48.1136L83.5385 48.0623L94.4731 49.2784L100.52 52.8984L100.695 53.0029L100.889 52.9421L105.793 51.4079L105.744 50.5282L94.7864 48.4069L89.3147 45.1313L89.9413 44.8134L88.5236 44.6577L88.3935 44.5798L88.2904 44.6321L78.4105 43.5474L78.5494 43.4529L77.2673 43.414L70.9323 39.6723L70.6799 39.5232L70.44 39.6918L65.7605 42.9811L59.4983 39.3394L59.2162 39.1754L58.9707 39.3904L54.0283 43.7175L53.0497 44.5743L54.349 44.5132ZM25.0604 121.223L24.4298 120.943L24.4219 121.633L24.3541 127.551L23.7034 127.857L24.3474 128.138L24.3426 128.561L24.8124 128.34L31.228 131.132L31.8012 136.154L31.1521 136.442L31.8689 136.749L31.9091 137.1L32.2935 136.93L38.9229 139.767L39.6554 140.08L39.5521 139.29L38.8631 134.022L39.499 133.741L38.7857 133.43L38.7403 133.083L38.367 133.248L32.103 130.522L32.0835 124.921L32.7215 124.622L32.0815 124.338L32.0801 123.919L31.6227 124.134L25.0604 121.223ZM45.9659 141.792L45.0866 141.416L45.3504 142.335L46.675 146.951L46.06 147.214L46.8456 147.545L46.9276 147.831L47.2235 147.705L53.6963 150.435L54.5902 150.812L54.3075 149.884L52.9038 145.276L53.5058 145.019L52.7235 144.684L52.6375 144.402L52.3505 144.524L45.9659 141.792Z"
        fill="#FF00BF" stroke="white" stroke-width="0.90864" />
    <path
        d="M18.3312 130.889L18.7628 130.835L18.7285 130.402L18.2834 124.77L18.2315 124.114L17.6362 124.395L1.38233 132.087L1.63229 132.949L18.3312 130.889Z"
        fill="#FF00BF" stroke="white" stroke-width="0.90864" />
    <path
        d="M100.555 47.3542L101.277 47.1157L99.6424 46.8015L99.5329 46.7352L99.4464 46.7638L88.4606 44.6523L88.1415 45.4883L93.5364 48.7179L92.8256 48.9529L94.4563 49.2686L94.5662 49.3344L94.6512 49.3063L105.571 51.4203L105.893 50.5856L100.555 47.3542ZM59.2827 39.278L59.0411 40.1249L65.5548 43.9129L65.8064 44.0592L66.0445 43.8918L70.9621 40.4352L72.0806 39.649L70.714 39.6094L59.2827 39.278ZM18.1822 118.172L17.562 117.896L17.5438 118.575L17.3769 124.794L17.3575 125.517L18.0174 125.221L25.0621 122.052L25.9896 121.635L25.0599 121.223L18.1822 118.172Z"
        fill="#FF00BF" stroke="white" stroke-width="0.90864" />
    <path
        d="M2.0296 132.458L1.12276 132.491L0.828943 150.524L0.828103 150.575L0.838846 150.626L4.02434 165.585L4.92129 165.451L2.0296 132.458Z"
        fill="#FF00BF" stroke="white" stroke-width="0.90864" />
    <path
        d="M39.2799 138.932L38.4196 138.564L38.6624 139.467L40.0068 144.471L40.1396 144.965L40.6147 144.775L45.9558 142.632L46.9732 142.224L45.9654 141.793L39.2799 138.932ZM17.6447 124.392L16.7082 124.813L17.6498 125.223L24.6234 128.258L25.2512 128.531L25.259 127.847L25.33 121.643L25.3381 120.932L24.6894 121.224L17.6447 124.392Z"
        fill="#FF00BF" stroke="white" stroke-width="0.90864" />
    <path
        d="M83.0815 4.66978L82.6575 3.86659L75.617 7.32317L75.5939 7.33451L75.5723 7.34838L68.4406 11.9148L68.9094 12.6928L83.0815 4.66978Z"
        fill="#FF00BF" stroke="white" stroke-width="0.90864" />
    <path
        d="M82.9372 41.3129L83.5361 40.9964L82.1594 40.8473L82.0253 40.767L81.9221 40.8216L70.8478 39.6219L64.3751 35.7988L64.1182 35.6471L63.877 35.8224L59.0029 39.3641L57.9252 40.1472L59.2568 40.1858L70.5711 40.5137L76.2061 43.842L75.6155 44.1541L76.9899 44.305L77.1244 44.3844L77.2258 44.3309L88.3076 45.5476L99.3115 47.6626L105.422 51.3624L105.562 51.4469L105.723 51.4233L110.475 50.7285L110.531 49.8413L99.6592 46.8109L93.4147 43.0303L93.2316 42.9194L93.0296 42.99L88.4262 44.5989L82.9372 41.3129ZM40.2769 143.931L39.252 144.342L40.2695 144.771L46.8848 147.561L48.8484 151.763L49.0203 152.13L49.405 152.001L54.018 150.446L55.1545 150.063L54.0495 149.597L47.5991 146.876L46.2238 142.084L46.085 141.601L45.618 141.788L40.2769 143.931ZM24.9865 127.424L24.2785 127.116L24.353 127.885L24.8655 133.175L24.1858 133.46L24.9237 133.776L24.9572 134.122L25.3483 133.958L32.1117 136.852L32.8304 137.159L32.7418 136.383L32.1397 131.107L32.8055 130.827L32.0713 130.508L32.0324 130.166L31.6529 130.325L24.9865 127.424Z"
        fill="#FF00BF" stroke="white" stroke-width="0.90864" />
    <path
        d="M19.2503 135.892L19.9056 136.001L19.7694 135.351L18.7203 130.345L18.6346 129.936L18.22 129.987L1.52103 132.047L1.50226 132.946L19.2503 135.892Z"
        fill="#FF00BF" stroke="white" stroke-width="0.90864" />
    <path
        d="M49.4992 151.011L47.8541 147.491L48.5459 147.276L47.5595 146.86L47.4658 146.66L47.2457 146.728L40.8267 144.02L39.6469 139.629L40.3197 139.376L39.4827 139.018L39.41 138.748L39.1121 138.86L33.5414 136.476L32.4687 136.017L31.6275 135.657L25.7758 133.153L25.2898 128.137L25.9866 127.86L25.2311 127.531L25.1986 127.196L24.8126 127.349L18.0124 124.39L17.3185 124.088L17.3781 124.842L17.7968 130.14L17.0855 130.423L17.8449 130.748L17.8718 131.088L18.2698 130.929L24.9585 133.792L26.0583 138.573L26.1723 139.068L26.6518 138.9L31.9701 137.029L33.001 141.157L32.3133 141.416L33.1541 141.77L33.2226 142.045L33.5302 141.929L40.1039 144.702L41.7677 148.425L41.0597 148.645L42.0503 149.057L42.1411 149.261L42.3687 149.19L47.9707 151.526L49.0847 151.99L50.168 152.442L55.8231 154.799L56.9329 155.262L56.4064 154.181L54.2809 149.817L54.1059 149.458L53.7273 149.585L49.4992 151.011ZM81.8631 41.7296L81.9643 41.7903L88.1415 45.4882L88.324 45.5975L88.5248 45.5273L93.1268 43.9189L99.2414 47.6209L99.3844 47.7075L99.4509 47.6967L110.287 50.717L110.646 49.8917L104.41 46.0822L104.266 45.9945L104.198 46.0055L94.6986 43.3695L94.9258 43.2901L93.3444 42.9884L87.8023 39.633L88.4548 39.3919L86.9259 39.1024L86.8087 39.0314L86.7215 39.0637L76.8518 37.1951L77.0098 37.1081L75.6736 36.9653L75.5355 36.8826L69.1499 33.0599L68.9213 32.9231L68.6903 33.0557L63.9173 35.7964L62.7034 36.4934L63.9973 36.6317L69.7841 40.0496L69.2203 40.36L70.5543 40.5045L70.6929 40.5864L70.7944 40.5305L81.8631 41.7296Z"
        fill="#FF00BF" stroke="white" stroke-width="0.90864" />
    <path
        d="M1.72756 150.436L0.833626 150.596L1.98427 158.497L1.98874 158.528L1.99731 158.558L4.03216 165.616L4.91306 165.396L1.72756 150.436Z"
        fill="#FF00BF" stroke="white" stroke-width="0.90864" />
    <path
        d="M26.3492 138.042L25.24 138.432L26.3234 138.889L33.3622 141.858L34.1998 142.211L33.9796 141.329L32.7297 136.324L32.6088 135.84L32.1381 136.005L26.3492 138.042ZM104.329 46.0431L103.935 46.8569L110.171 50.6664L110.272 50.7281L110.39 50.7327L114.931 50.9093L115.106 50.0292L104.329 46.0431Z"
        fill="#FF00BF" stroke="white" stroke-width="0.90864" />
    <path
        d="M83.2688 4.47031L82.467 4.04459L63.7512 35.9601L62.8858 37.4357L64.3693 36.5839L69.1423 33.8432L69.2649 33.7728L69.3259 33.6451L83.2688 4.47031Z"
        fill="#FF00BF" stroke="white" stroke-width="0.90864" />
    <path
        d="M49.4331 151.151L47.9561 150.536L42.7315 148.358L41.0731 144.646L41.812 144.436L40.786 144.004L40.6986 143.808L40.4738 143.872L33.7152 141.021L32.6812 140.585L33.1206 141.618L34.7692 145.493L34.013 145.707L35.0434 146.137L35.1278 146.335L35.3606 146.269L42.093 149.076L44.5548 152.616L44.7215 152.856L45.009 152.804L49.0567 152.069L51.1105 154.93L50.348 155.089L51.5936 155.604L51.6901 155.738L51.8426 155.706L58.5392 158.474L60.0495 159.098L59.0781 157.784L56.7838 154.68L57.5278 154.526L56.2874 154.009L56.1891 153.876L56.0419 153.907L50.8522 151.743L49.4331 151.151ZM108.738 46.1316L98.0146 42.1762L97.9053 42.1094L97.8371 42.1216L86.941 39.1123L81.24 35.6607L81.8591 35.4187L80.3821 35.1413L80.2607 35.0678L80.1731 35.102L68.9991 33.0032L68.6819 33.8395L74.4966 37.3205L73.8869 37.5588L75.3608 37.8378L75.4826 37.9107L75.5685 37.8771L86.5944 39.9646L92.9424 43.808L93.0892 43.8968L93.1561 43.8848L103.989 46.8907L104.039 46.921L104.085 46.9222L114.791 50.8821L115.186 50.069L108.889 46.1969L108.785 46.1328L108.738 46.1316ZM18.4536 130.02L17.6512 129.677L17.8302 130.531L18.796 135.14L18.0296 135.392L18.9282 135.771L18.9835 136.035L19.3042 135.929L26.3232 138.89L27.1417 139.235L26.9426 138.369L25.884 133.767L26.6336 133.521L25.7393 133.138L25.6794 132.878L25.3694 132.98L18.4536 130.02Z"
        fill="#FF00BF" stroke="white" stroke-width="0.90864" />
    <path
        d="M83.2893 4.42126L82.4494 4.07851L68.5066 33.2533L67.9961 34.3214L69.0901 33.8691L73.7222 31.9537L73.9121 31.8752L73.9785 31.6807L83.2893 4.42126Z"
        fill="#FF00BF" stroke="white" stroke-width="0.90864" />
    <path
        d="M102.314 42.1823L91.5351 38.2175L91.422 38.1484L84.9663 34.2046L84.8109 34.1097L84.633 34.1483L80.2979 35.09L73.7828 31.1455L73.5863 31.0265L73.3739 31.1143L68.7419 33.0297L67.3292 33.6139L68.8316 33.8961L80.0526 36.0037L86.5244 39.922L86.675 40.0132L86.7424 39.9999L97.6335 43.0078L97.6858 43.0398L97.7324 43.0403L108.452 46.9944L114.71 50.8428L114.769 50.8791L114.836 50.8961L119.101 51.9802L119.405 51.1286L108.868 46.1833L102.469 42.2488L102.362 42.1829L102.314 42.1823ZM44.8468 151.91L43.3254 152.186L44.7545 152.777L51.6409 155.623L54.7895 158.47L54.9235 158.591L55.0092 158.59L61.8326 161.394L62.3068 160.634L59.0144 157.714L58.8811 157.596L58.7984 157.598L52.1806 154.863L49.6275 151.306L49.46 151.072L49.1773 151.124L44.8468 151.91ZM26.6766 138.052L25.6702 137.628L26.0786 138.641L27.636 142.503L26.8293 142.712L27.9005 143.159L27.9786 143.353L28.217 143.291L35.0883 146.155L37.4543 149.677L37.6158 149.918L37.902 149.873L42.461 149.156L44.0489 148.907L42.5653 148.288L35.7348 145.44L34.1633 141.747L34.9513 141.542L33.8848 141.093L33.8036 140.902L33.5736 140.961L26.6766 138.052Z"
        fill="#FF00BF" stroke="white" stroke-width="0.90864" />
    <path
        d="M83.3068 4.35738L82.4302 4.12757L73.1194 31.387L72.8531 32.1667L73.6546 31.9758L78.0985 30.9177L78.3859 30.8492L78.4399 30.5587L83.3068 4.35738Z"
        fill="#FF00BF" stroke="white" stroke-width="0.90864" />
    <path
        d="M73.6684 31.096L73.3132 31.9228L79.9831 35.961L80.138 36.0548L80.3149 36.0164L84.8268 35.0363L84.8503 34.1541L73.6684 31.096ZM37.7619 148.975L36.1645 149.226L37.6589 149.844L44.6804 152.746L47.7384 155.57L47.869 155.69L48.0469 155.69L51.8885 155.687L52.0617 154.813L45.2258 151.988L42.7645 148.448L42.602 148.214L42.3209 148.259L37.7619 148.975ZM19.5018 135.026L18.5233 134.613L18.9005 135.606L20.3632 139.455L19.5039 139.658L20.6167 140.122L20.6888 140.312L20.9331 140.254L28.0769 143.232L29.0792 143.65L28.6731 142.643L27.1201 138.791L27.9595 138.593L26.8517 138.126L26.7764 137.939L26.5409 137.995L19.5018 135.026ZM113.088 47.2249L113.027 47.1872L113.001 47.1809L102.425 42.2244L101.994 43.0228L108.414 46.9707L108.475 47.0081L108.5 47.0142L119.02 51.9511L119.452 51.1532L113.088 47.2249Z"
        fill="#FF00BF" stroke="white" stroke-width="0.90864" />
    <path
        d="M96.5043 1.44159L96.3299 0.550733L89.6761 1.55144L89.6379 1.55719L89.6013 1.5693L82.7145 3.84319L82.9637 4.71619L96.5043 1.44159Z"
        fill="#FF00BF" stroke="white" stroke-width="0.90864" />
    <path
        d="M95.9207 38.222L95.8103 38.1541L95.7625 38.1543L84.9272 34.1805L78.2275 30.0876L78.0677 29.99L77.8855 30.0334L73.4415 31.0915L73.4269 31.9717L84.5468 35.0129L91.0987 39.0155L91.2087 39.0827L91.2556 39.0825L102.073 43.0615L102.468 42.2481L95.9207 38.222ZM48.0445 154.781L47.8721 155.655L54.9207 158.553L55.3982 157.796L52.1912 154.895L52.0613 154.778L51.8861 154.778L48.0445 154.781ZM28.4248 142.393L27.0727 141.829L27.8686 143.059L30.2112 146.679L30.3676 146.921L30.6531 146.882L35.4489 146.238L37.1132 146.015L35.5633 145.369L28.4248 142.393Z"
        fill="#FF00BF" stroke="white" stroke-width="0.90864" />
    <path
        d="M19.7784 135.42L19.759 135.056L19.3991 134.996L1.65106 132.05L0.853407 131.917L1.15516 132.668L21.4277 183.064L22.3029 182.871L19.7784 135.42Z"
        fill="#FF00BF" stroke="white" stroke-width="0.90864" />
    <path
        d="M30.5333 145.982L28.8589 146.207L30.4202 146.852L37.6583 149.844L39.0467 150.417L38.2089 149.17L35.7667 145.535L35.6092 145.3L35.3291 145.338L30.5333 145.982Z"
        fill="#FF00BF" stroke="white" stroke-width="0.90864" />
    <path
        d="M1.99816 132.328L1.12408 132.537L4.01576 165.53L4.03018 165.694L4.14687 165.811L21.5277 183.215L22.2707 182.725L1.99816 132.328ZM83.313 4.28604L82.4121 4.19144L77.5453 30.3927L77.4414 30.9517L78.0095 30.9297L82.2099 30.7672L82.6357 30.7508L82.6466 30.3249L83.313 4.28604Z"
        fill="#FF00BF" stroke="white" stroke-width="0.90864" />
    <path
        d="M106.592 43.2148L106.535 43.1794L106.509 43.1733L95.9006 38.2092L89.2443 34.1161L89.1304 34.0461L89.0821 34.0471L78.1486 30.0494L77.7558 30.8638L84.4938 34.98L84.6072 35.0493L84.6545 35.0484L95.4855 39.0206L101.994 43.0228L102.057 43.0613L102.082 43.0673L112.633 48.0118L118.975 51.9265L118.989 51.9354L119.004 51.9431L122.917 53.9733L123.19 53.4752L123.365 53.1835L116.929 49.2068L116.914 49.1976L116.908 49.1947L106.592 43.2148ZM51.617 157.711L54.9272 158.559L58.6462 160.596L58.6981 160.625L58.723 160.631L65.6851 163.488L66.0745 162.668L62.2235 160.575L62.1722 160.547L62.1481 160.541L55.2681 157.713L48.295 154.847L45.2374 152.023L45.1105 151.906L45.0235 151.904L38.0061 149.004L37.5206 149.754L40.5446 152.611L40.6724 152.731L40.7627 152.733L47.8499 155.646L51.5102 157.668L51.5609 157.696L51.617 157.711ZM21.147 139.358L19.8377 138.813L20.5863 140.018L22.8248 143.621L22.9763 143.865L23.1453 143.846L30.421 146.853L31.7675 147.409L30.9759 146.186L29.032 143.182L30.0445 143.068L28.5568 142.448L28.4805 142.33L28.318 142.348L21.147 139.358Z"
        fill="#FF00BF" stroke="white" stroke-width="0.90864" />
    <path
        d="M83.3104 4.22014L82.4051 4.26279L81.7387 30.3016L81.7289 30.6839L82.104 30.7588L85.9971 31.5357L86.612 31.6584L86.5371 31.0359L83.3104 4.22014Z"
        fill="#FF00BF" stroke="white" stroke-width="0.90864" />
    <path
        d="M99.9754 39.1307L99.9104 39.0906L99.8843 39.0847L89.2213 34.1024L82.4303 29.9265L82.3127 29.8542L82.1747 29.8595L77.9743 30.022L77.8358 30.9026L88.8065 34.914L95.4459 38.9966L95.5105 39.0363L95.5362 39.0421L106.166 44.0162L106.597 43.2181L99.9754 39.1307ZM51.8419 156.83L51.5566 157.691L58.6912 160.618L59.082 159.799L55.3129 157.735L55.2628 157.707L55.2074 157.693L51.8419 156.83ZM30.7673 146.013L30.2778 146.759L33.2037 149.591L33.3289 149.712L33.4219 149.716L40.6831 152.7L41.1678 151.95L38.1438 149.094L38.0195 148.976L37.93 148.973L30.7673 146.013Z"
        fill="#FF00BF" stroke="white" stroke-width="0.90864" />
    <path
        d="M4.85467 165.254L4.05734 165.687L6.99626 171.8L7.01659 171.843L7.04513 171.88L10.9094 176.922L11.6579 176.409L4.85467 165.254Z"
        fill="#FF00BF" stroke="white" stroke-width="0.90864" />
    <path
        d="M110.36 45.1493L110.345 45.1398L110.339 45.1369L99.9632 39.1242L99.4968 39.9039L106.118 43.9913L106.134 44.0008L106.139 44.0036L116.46 49.9863L116.927 49.2067L110.36 45.1493ZM41.0272 151.86L40.6333 152.677L44.2261 154.68L44.2759 154.708L44.331 154.722L47.9284 155.675L48.2174 154.816L41.0272 151.86Z"
        fill="#FF00BF" stroke="white" stroke-width="0.90864" />
    <path
        d="M108.609 3.71345L108.674 2.81277L96.4803 0.553284L96.385 0.53562L96.2907 0.55841L82.7501 3.83301L82.8748 4.72857L108.609 3.71345Z"
        fill="#FF00BF" stroke="white" stroke-width="0.90864" />
    <path
        d="M93.2177 34.9601L93.1506 34.9186L93.1242 34.913L82.383 29.9018L81.9529 30.7005L88.7661 34.89L88.833 34.9311L88.8589 34.9366L99.543 39.9289L99.974 39.1307L93.2177 34.9601ZM44.5635 153.844L44.2747 154.703L51.5552 157.691L51.9474 156.873L48.2643 154.838L48.2152 154.811L48.1609 154.797L44.5635 153.844ZM23.382 142.961L22.8882 143.703L25.7115 146.509L25.8344 146.631L26.0074 146.641L30.5679 146.886L30.7659 146.013L23.382 142.961Z"
        fill="#FF00BF" stroke="white" stroke-width="0.90864" />
    <path
        d="M83.2991 4.17013L82.4059 4.32869L85.6326 31.1444L85.6617 31.3867L85.8798 31.4962L89.393 33.2598L90.2623 33.6962L90.039 32.7495L83.2991 4.17013Z"
        fill="#FF00BF" stroke="white" stroke-width="0.90864" />
    <path
        d="M26.0581 145.733L25.861 146.607L33.3475 149.685L33.8362 148.938L30.9102 146.106L30.7882 145.988L30.6187 145.979L26.0581 145.733ZM103.661 41.0087L103.645 40.9988L103.639 40.9959L93.2087 34.9536L92.7424 35.7333L99.4986 39.9038L99.5144 39.9136L99.52 39.9165L109.895 45.9288L110.362 45.1492L103.661 41.0087Z"
        fill="#FF00BF" stroke="white" stroke-width="0.90864" />
    <path
        d="M21.4262 139.768L21.4246 139.689L21.3967 139.616L19.7499 135.282L18.8715 135.468L21.396 182.918L22.3039 182.885L21.4262 139.768Z"
        fill="#FF00BF" stroke="white" stroke-width="0.90864" />
    <path
        d="M33.6918 148.844L33.2962 149.66L36.7942 151.63L36.8433 151.657L36.8706 151.665L44.2755 154.703L44.6692 153.886L41.0764 151.883L41.028 151.856L41.0018 151.849L33.6918 148.844ZM86.3234 30.7038L86.2538 30.6609L86.1737 30.6449L82.2805 29.8679L81.9995 30.7252L92.7878 35.7584L93.2185 34.9601L86.3234 30.7038Z"
        fill="#FF00BF" stroke="white" stroke-width="0.90864" />
    <path
        d="M83.2906 4.13908L82.4147 4.3787L89.1547 32.9581L89.1867 33.0941L89.2898 33.1886L92.3417 35.9878L93.585 37.1281L93.0824 35.5176L83.2906 4.13908Z"
        fill="#FF00BF" stroke="white" stroke-width="0.90864" />
    <path
        d="M96.821 36.782L96.8045 36.7719L96.7987 36.7689L86.3136 30.6969L85.8473 31.4767L92.7423 35.733L92.7587 35.7431L92.7644 35.746L103.194 41.788L103.661 41.0084L96.821 36.782ZM26.2064 145.767L25.809 146.582L29.2076 148.516L29.2561 148.543L29.3099 148.558L33.3978 149.702L33.6929 148.844L26.2064 145.767Z"
        fill="#FF00BF" stroke="white" stroke-width="0.90864" />
    <path
        d="M23.6647 143.396L23.6695 143.258L23.5966 143.141L21.3581 139.538L20.4842 138.131L20.5179 139.787L21.3956 182.903L22.3039 182.91L23.6647 143.396Z"
        fill="#FF00BF" stroke="white" stroke-width="0.90864" />
    <path
        d="M29.5531 147.684L29.2582 148.542L36.8442 151.654L37.2395 150.838L33.7415 148.869L33.6937 148.842L33.641 148.827L29.5531 147.684Z"
        fill="#FF00BF" stroke="white" stroke-width="0.90864" />
    <path
        d="M4.78827 165.169L4.07892 165.727L10.8821 176.882L10.9412 176.979L11.0389 177.036L21.6165 183.286L22.1691 182.573L4.78827 165.169ZM108.509 3.7062L108.73 2.82681L102.859 0.946635L102.804 0.929228L102.747 0.925809L96.425 0.546495L96.3151 1.44672L108.509 3.7062ZM83.2863 4.12504L82.4236 4.40994L92.2154 35.7885L92.2338 35.8473L92.2671 35.8991L94.7681 39.7817L95.579 39.3862L83.2863 4.12504Z"
        fill="#FF00BF" stroke="white" stroke-width="0.90864" />
    <path
        d="M89.8379 32.4672L89.8209 32.4567L89.803 32.4477L86.2898 30.6841L85.8583 31.4832L96.3545 37.5617L96.821 36.782L89.8379 32.4672Z"
        fill="#FF00BF" stroke="white" stroke-width="0.90864" />
    <path
        d="M26.4827 146.239L26.5076 146.02L26.3516 145.865L23.5283 143.059L22.7898 142.325L22.754 143.366L21.3931 182.879L22.2986 182.946L26.4827 146.239Z"
        fill="#FF00BF" stroke="white" stroke-width="0.90864" />
    <path
        d="M52.8957 193.568L52.6286 194.436L59.9634 197.071L60.0039 197.086L60.0464 197.092L67.433 198.255L67.6171 197.366L52.8957 193.568Z"
        fill="#FF00BF" stroke="white" stroke-width="0.90864" />
    <path
        d="M83.2854 4.12385L82.4278 4.42397L82.4282 4.42498L94.7206 39.6851L94.7205 39.6851L94.7234 39.6931L96.5739 44.6961L96.5764 44.7032L97.4312 44.395L97.4286 44.388L83.2858 4.12486L83.2854 4.12385ZM29.8738 148.218L29.9449 147.891L29.6546 147.726L26.256 145.792L25.6578 145.452L25.5799 146.135L21.3958 182.843L22.2911 182.991L29.8738 148.218Z"
        fill="#FF00BF" stroke="white" stroke-width="0.90864" />
    <path
        d="M141.338 24.9292L140.746 25.6106L145.485 30.8124L145.386 30.8949L145.841 31.2033L146.097 31.4848L146.168 31.4254L152.453 35.6846L153.042 35.0005L148.19 29.7411L148.286 29.6614L147.831 29.3516L147.573 29.0724L147.505 29.1295L141.338 24.9292ZM45.4071 190.878L45.1403 191.746L52.6296 194.436L52.6713 194.451L52.6922 194.454L67.3911 198.247L67.6591 197.379L60.2074 194.686L60.1654 194.671L60.1439 194.668L45.4071 190.878Z"
        fill="#FF00BF" stroke="white" stroke-width="0.90864" />
    <path
        d="M11.5016 176.254L10.9879 177.001L15.7972 180.822L15.846 180.861L15.9035 180.885L21.6719 183.313L22.0792 182.503L11.5016 176.254Z"
        fill="#FF00BF" stroke="white" stroke-width="0.90864" />
    <path
        d="M134.752 20.4426L134.159 21.1218L139.093 26.6129L139.345 26.8933L139.667 26.6974L141.319 25.6924L141.922 25.3258L141.339 24.9287L134.752 20.4426Z"
        fill="#FF00BF" stroke="white" stroke-width="0.90864" />
    <path
        d="M33.8199 149.247L33.9801 148.778L33.499 148.659L29.5389 147.68L29.0855 147.568L28.986 148.025L21.4033 182.798L22.2771 183.042L33.8199 149.247Z"
        fill="#FF00BF" stroke="white" stroke-width="0.90864" />
    <path
        d="M37.7583 188.13L37.4919 188.997L45.1406 191.745L45.1835 191.761L45.2286 191.767L52.3747 192.811L52.5531 191.922L37.7583 188.13Z"
        fill="#FF00BF" stroke="white" stroke-width="0.90864" />
    <path
        d="M124.16 28.8452L124.773 28.2112L108.976 3.01793L108.837 2.79494L108.574 2.80531L82.839 3.82042L81.2798 3.88193L82.6284 4.66702L124.16 28.8452Z"
        fill="#FF00BF" stroke="white" stroke-width="0.90864" />
    <path
        d="M52.5945 191.935L52.5512 191.919L52.5057 191.912L45.3596 190.869L45.1808 191.758L59.9188 195.548L67.3502 198.234L67.4393 198.266L67.5339 198.26L75.8031 197.727L75.8357 196.823L60.1623 194.67L52.5945 191.935ZM139.193 25.9216L138.589 26.2891L139.175 26.6859L145.885 31.2336L146.476 30.5516L141.418 24.9988L141.166 24.722L140.846 24.9166L139.193 25.9216ZM128.023 15.8611L127.428 16.5377L132.231 21.9633L132.451 22.2111L132.754 22.0782L134.678 21.2347L135.429 20.9051L134.751 20.4431L128.023 15.8611Z"
        fill="#FF00BF" stroke="white" stroke-width="0.90864" />
    <path
        d="M38.3026 149.232L38.6149 148.573L37.8856 148.583L33.3836 148.646L33.0635 148.651L32.9601 148.954L21.4172 182.748L22.2577 183.089L38.3026 149.232Z"
        fill="#FF00BF" stroke="white" stroke-width="0.90864" />
    <path
        d="M29.944 185.322L29.6779 186.19L37.4912 188.997L37.5355 189.013L37.5568 189.016L52.3269 192.802L52.5941 191.934L44.8147 189.123L44.7702 189.107L44.7482 189.103L29.944 185.322ZM146.395 30.4809L145.744 31.08L149.89 38.4424L150.214 39.0169L150.635 38.51L153.057 35.5986L153.378 35.2132L152.963 34.932L146.395 30.4809ZM132.388 21.2456L131.635 21.576L132.316 22.0377L139.174 26.6854L139.767 26.0056L134.833 20.5145L134.613 20.2701L134.312 20.402L132.388 21.2456Z"
        fill="#FF00BF" stroke="white" stroke-width="0.90864" />
    <path
        d="M124.619 28.8443L125.288 28.4507L124.617 28.0599L83.0855 3.88178L82.0195 3.26119L82.4283 4.42498L96.574 44.6961L96.7569 45.2169L97.2328 44.9373L124.619 28.8443Z"
        fill="#FF00BF" stroke="white" stroke-width="0.90864" />
    <path
        d="M52.4997 191.911L52.2842 192.789L59.8971 195.54L59.9884 195.573L60.0373 195.57L75.7105 197.723L75.9287 196.846L68.3737 194.077L68.2815 194.043L68.2311 194.047L52.4997 191.911ZM149.936 37.9291L149.613 38.3164L150.032 38.597L156.725 43.0833L157.372 42.4788L153.1 35.081L152.774 34.5166L152.358 35.0177L149.936 37.9291ZM121.149 11.1797L120.551 11.8536L125.217 17.2094L125.41 17.4315L125.692 17.3454L127.899 16.6707L128.805 16.3938L128.022 15.8607L121.149 11.1797ZM21.9592 182.454L21.6936 183.322L29.6768 186.19L29.7225 186.207L29.7706 186.213L36.648 187.127L36.8199 186.236L21.9592 182.454Z"
        fill="#FF00BF" stroke="white" stroke-width="0.90864" />
    <path
        d="M43.2979 148.074L43.8547 147.148L42.8031 147.398L37.7866 148.595L37.5747 148.645L37.4815 148.842L21.4366 182.7L22.2366 183.128L43.2979 148.074Z"
        fill="#FF00BF" stroke="white" stroke-width="0.90864" />
    <path
        d="M36.8634 186.249L36.8173 186.232L36.7688 186.226L29.8914 185.312L29.7191 186.202L44.5479 189.99L44.8147 189.122L36.8634 186.249ZM139.684 25.933L139.031 26.5275L143.045 33.8512L143.341 34.3907L143.769 33.9494L146.466 31.1734L146.843 30.7847L146.395 30.4807L139.684 25.933Z"
        fill="#FF00BF" stroke="white" stroke-width="0.90864" />
    <path
        d="M118.089 12.3913L118.738 11.7577L114.217 6.47625L114.176 6.42836L114.123 6.39344L108.844 2.88103L108.289 3.59742L118.089 12.3913Z"
        fill="#FF00BF" stroke="white" stroke-width="0.90864" />
    <path
        d="M125.708 16.3901L121.751 11.8475L122.044 11.7891L121.197 11.2125L121.063 11.058L120.992 11.0722L114.126 6.39623L113.525 7.06717L117.542 11.7592L117.237 11.8198L118.086 12.395L118.219 12.5507L118.294 12.5359L124.518 16.754L125.209 17.2219L128.885 24.3545L129.132 24.8347L129.563 24.5086L132.419 22.3456L135.876 28.84L135.703 28.9926L136.098 29.2572L136.315 29.6647L136.483 29.5157L142.737 33.7072L143.189 34.0104L149.902 38.5095L152.803 47.4074L152.652 47.605L152.927 47.7859L153.145 48.4553L153.413 48.1059L159.886 52.3676L160.992 53.0962L160.566 51.8419L157.487 42.7894L157.633 42.5979L157.359 42.414L157.135 41.7547L156.877 42.091L150.628 37.9023L146.535 30.6341L146.236 30.1045L145.813 30.5405L143.545 32.8752L140.001 26.4094L140.168 26.2619L139.774 25.9947L139.553 25.5926L139.391 25.7356L133.349 21.6411L132.872 21.3176L128.106 15.9349L127.913 15.7162L127.633 15.8016L125.708 16.3901ZM52.3779 192.823L52.4272 192.818L68.1073 194.947L68.1988 194.981L75.616 197.699L75.7509 197.749L75.8897 197.712L84.9871 195.28L84.9393 194.885L85.0293 194.415L77.3883 191.55L77.2492 191.497L77.1703 191.52L60.5792 191.22L60.5563 191.212L52.7547 188.352L52.6575 188.316L52.6063 188.321L36.8161 186.232L28.7331 183.311L28.6854 183.294L28.6352 183.287L21.9037 182.443L21.7351 183.334L36.5743 187.111L44.5048 189.977L44.6012 190.012L52.2842 192.789L52.3779 192.823Z"
        fill="#FF00BF" stroke="white" stroke-width="0.90864" />
    <path
        d="M21.8439 182.44L21.7907 183.346L28.5221 184.189L28.5782 184.196L28.6343 184.19L36.3175 183.242L36.2587 182.337L21.8439 182.44Z"
        fill="#FF00BF" stroke="white" stroke-width="0.90864" />
    <path
        d="M28.6394 183.288L28.4261 184.166L36.5553 187.104L36.6545 187.14L36.7046 187.134L52.5407 189.23L52.7566 188.353L44.6811 185.393L44.5811 185.356L44.5295 185.362L28.6394 183.288ZM143.697 33.2561L142.628 32.5392L143.01 33.7686L145.895 43.0325L146.141 43.8226L146.676 43.1908L150.634 38.5134L150.962 38.1255L150.54 37.8425L143.697 33.2561ZM129.016 23.7847L128.508 24.1694L129.037 24.5242L136.194 29.3211L136.848 28.7302L132.973 21.4487L132.722 20.9782L132.297 21.2999L129.016 23.7847Z"
        fill="#FF00BF" stroke="white" stroke-width="0.90864" />
    <path
        d="M124.005 28.6939L124.816 28.2965L118.819 11.8971L118.781 11.7907L118.696 11.715L108.896 2.92114L108.208 3.50063L124.005 28.6939Z"
        fill="#FF00BF" stroke="white" stroke-width="0.90864" />
    <path
        d="M52.6074 188.325L52.4439 189.206L60.3401 192.1L60.481 192.151L60.558 192.129L77.1443 192.428L84.7121 195.266L84.8896 195.333L85.0617 195.254L94.9044 190.722L94.6713 189.857L77.292 191.513L69.5753 188.619L69.4331 188.566L69.3538 188.589L52.6074 188.325ZM145.982 42.6037L145.651 42.9949L146.079 43.2766L152.892 47.7621L154.494 58.4623L154.647 59.4823L155.297 58.6811L160.49 52.2745L160.806 51.8848L160.387 51.609L153.694 47.2022L150.719 38.0789L150.466 37.3044L149.94 37.9263L145.982 42.6037ZM118.648 11.6774L117.216 10.7066L117.987 12.2559L121.381 19.0784L121.143 19.2327L121.616 19.5494L121.789 19.8972L121.964 19.7832L129.038 24.524L129.694 23.9385L126.154 17.0686L126.384 16.9195L125.912 16.5999L125.735 16.2569L125.567 16.366L118.648 11.6774ZM136.7 28.5661L135.654 27.865L136.011 29.0724L138.75 38.3227L138.975 39.0845L139.517 38.5039L143.776 33.9434L144.141 33.5532L143.697 33.2559L136.7 28.5661ZM36.4202 182.364L36.3171 182.327L36.2082 182.34L28.525 183.287L28.5218 184.189L44.466 186.269L44.6811 185.392L36.4202 182.364Z"
        fill="#FF00BF" stroke="white" stroke-width="0.90864" />
    <path
        d="M124.683 28.7993L124.159 28.0609L96.7732 44.1539L96.5006 44.3142L96.5562 44.6255L97.6584 50.7994L97.7971 51.5764L98.3993 51.0662L124.683 28.7993Z"
        fill="#FF00BF" stroke="white" stroke-width="0.90864" />
    <path
        d="M44.5305 185.365L44.3681 186.246L52.4435 189.206L52.5877 189.259L52.6651 189.235L69.3296 189.498L77.0708 192.401L77.2513 192.469L77.3531 192.42L94.7571 190.762L94.8781 189.886L87.1726 186.901L86.9901 186.831L86.8852 186.881L69.4762 188.582L61.5801 185.621L61.4346 185.567L61.3548 185.591L44.5305 185.365ZM138.853 37.884L138.485 38.2775L138.935 38.5736L146.079 43.277L147.14 43.9758L146.762 42.7624L143.878 33.4986L143.645 32.7523L143.112 33.3236L138.853 37.884ZM154.59 58.1092L154.271 58.5034L154.698 58.7776L161.659 63.2485L162.516 63.7992L162.353 62.7934L160.585 51.9159L160.423 50.9148L159.784 51.7027L154.59 58.1092ZM129.543 23.7696L128.521 23.0846L128.853 24.2694L131.436 33.5031L131.642 34.2385L132.19 33.7067L136.763 29.2699L137.166 28.879L136.7 28.5664L129.543 23.7696Z"
        fill="#FF00BF" stroke="white" stroke-width="0.90864" />
    <path
        d="M21.7356 182.454L21.8504 183.349L36.2652 183.245L36.361 183.244L36.4483 183.205L54.511 175.08L54.213 174.226L21.7356 182.454ZM97.8111 50.3729L97.6432 50.5151L97.6507 50.735L97.8933 57.8611L97.9321 58.9995L98.6874 58.1469L124.728 28.7539L124.095 28.106L97.8111 50.3729Z"
        fill="#FF00BF" stroke="white" stroke-width="0.90864" />
    <path
        d="M146.579 42.5176L145.744 41.9677L145.879 42.9585L147.342 53.6769L147.133 53.9179L147.398 54.0884L147.505 54.8746L147.905 54.4141L154.698 58.7772L155.542 59.3187L155.393 58.3276L153.792 47.6339L153.995 47.4L153.731 47.2262L153.615 46.4518L153.229 46.8959L146.579 42.5176ZM36.2692 182.337L36.1078 183.217L44.3688 186.245L44.5164 186.3L44.5943 186.274L61.336 186.499L69.2566 189.47L69.4404 189.539L69.5425 189.489L86.9459 187.787L94.5506 190.733L94.7674 190.817L94.9623 190.69L105.103 184.098L104.765 183.272L87.0494 186.853L79.2882 183.847L79.1025 183.775L78.9972 183.827L61.4815 185.583L53.3998 182.553L53.2507 182.497L53.1705 182.523L36.2692 182.337ZM131.558 33.0542L131.152 33.4484L131.625 33.7597L138.936 38.5731L139.974 39.2568L139.621 38.0647L136.883 28.8144L136.67 28.0944L136.131 28.6173L131.558 33.0542Z"
        fill="#FF00BF" stroke="white" stroke-width="0.90864" />
    <path
        d="M117.965 12.2095L123.869 28.3544L98.0073 57.5446L97.9071 57.6576L97.8946 57.8082L97.2486 65.5668L97.1124 67.2032L98.0704 65.8696L124.757 28.7179L124.435 28.4605L124.828 28.3374L122.406 19.1236L122.394 19.0785L122.374 19.0367L118.798 11.8511L117.965 12.2095ZM42.7953 147.4L42.615 147.447L42.5191 147.606L21.4577 182.66L22.1016 183.271L92.8845 135.431L92.5169 134.614L42.7953 147.4Z"
        fill="#FF00BF" stroke="white" stroke-width="0.90864" />
    <path
        d="M155.189 58.0131L154.483 57.5594L154.49 58.399L154.583 70.2619L154.337 70.5337L154.587 70.6893L154.594 71.6026L155.121 71.0218L161.892 75.2377L162.603 75.6798L162.587 74.8434L162.363 63.038L162.602 62.7741L162.355 62.6152L162.338 61.7133L161.827 62.2762L155.189 58.0131ZM122.222 18.8621L121.224 18.1934L121.53 19.355L123.88 28.2973L123.643 28.5052L123.995 28.737L124.138 29.2799L124.43 29.0233L131.625 33.7602L132.64 34.4283L132.312 33.2583L129.805 24.2997L130.034 24.0984L129.683 23.863L129.534 23.3288L129.253 23.575L122.222 18.8621ZM139.435 37.8147L138.615 37.2747L138.735 38.2495L140.05 48.9814L139.824 49.2245L140.102 49.403L140.195 50.1602L140.601 49.7235L147.574 54.2021L148.403 54.7345L148.27 53.7584L146.809 43.0494L147.028 42.8136L146.752 42.6316L146.65 41.8859L146.258 42.3069L139.435 37.8147ZM97.281 180.174L97.0587 180.084L96.9331 180.168L79.1639 183.799L71.2173 180.721L71.0281 180.648L70.9226 180.702L53.2998 182.516L45.0259 179.413L44.8731 179.355L44.7188 179.408L36.1166 182.362L36.2592 183.246L53.1555 183.432L61.2617 186.472L61.4491 186.542L61.5514 186.49L79.0614 184.734L86.8451 187.749L87.0649 187.834L87.1868 187.753L104.945 184.163L106.43 183.863L105.025 183.297L97.281 180.174Z"
        fill="#FF00BF" stroke="white" stroke-width="0.90864" />
    <path
        d="M97.334 65.3393L97.2745 65.4221L97.2561 65.5225L95.7463 73.7675L96.5791 74.0891L124.776 28.6923L124.021 28.1876L97.334 65.3393ZM48.3002 144.978L48.2592 144.988L48.2207 145.005L42.727 147.424L43.0233 148.28L92.7354 135.496L92.7449 135.494L92.5281 134.612L92.5186 134.614L48.3002 144.978Z"
        fill="#FF00BF" stroke="white" stroke-width="0.90864" />
    <path
        d="M96.9792 180.159L95.734 180.53L96.939 181.016L104.683 184.138L104.937 184.241L105.146 184.064L115.067 175.681L114.644 174.899L96.9792 180.159ZM148.063 53.4368L147.366 52.9893L147.363 53.8175L147.32 65.9117L147.316 67.0526L148.103 66.2268L155.271 58.7081L155.65 58.3098L155.187 58.0124L148.063 53.4368Z"
        fill="#FF00BF" stroke="white" stroke-width="0.90864" />
    <path
        d="M95.8085 73.6097L95.7735 73.666L95.7561 73.73L93.4215 82.3007L94.2553 82.6438L124.787 28.6763L124.005 28.2129L95.8085 73.6097Z"
        fill="#FF00BF" stroke="white" stroke-width="0.90864" />
    <path
        d="M132.124 33.0012L131.318 32.4711L131.422 33.4294L132.607 44.3886L132.709 45.3339L133.38 44.6605L139.506 38.5148L139.899 38.1207L139.435 37.8146L132.124 33.0012ZM147.446 65.6005L147.061 66.0046L147.535 66.2996L154.798 70.8213L155.499 71.2577L155.492 70.432L155.397 58.3917L155.388 57.2696L154.614 58.0818L147.446 65.6005ZM89.352 176.976L89.1265 176.885L89.001 176.971L70.9603 180.7L69.451 181.012L70.8882 181.569L78.9591 184.695L79.1821 184.781L79.3039 184.698L97.2011 181.04L98.6794 180.738L97.28 180.173L89.352 176.976Z"
        fill="#FF00BF" stroke="white" stroke-width="0.90864" />
    <path
        d="M36.0778 182.377L36.4117 183.221L45.0139 180.268L45.0504 180.255L45.0843 180.237L54.5448 175.065L54.1405 174.252L36.0778 182.377Z"
        fill="#FF00BF" stroke="white" stroke-width="0.90864" />
    <path
        d="M44.8175 179.386L44.7057 180.263L53.0796 183.404L53.2705 183.475L53.451 183.38L63.0005 178.346L62.7409 177.492L44.8175 179.386Z"
        fill="#FF00BF" stroke="white" stroke-width="0.90864" />
    <path
        d="M93.4621 82.1964L93.4427 82.2306L93.4295 82.2677L90.3237 90.992L91.1521 91.3592L124.784 28.6763L124.789 28.6674L123.994 28.2289L123.989 28.2378L93.4621 82.1964ZM54.2477 141.243L54.1592 141.259L54.0832 141.307L48.1608 145.036L48.5065 145.863L92.7344 135.496L92.5531 134.606L54.2477 141.243Z"
        fill="#FF00BF" stroke="white" stroke-width="0.90864" />
    <path
        d="M62.9519 177.521L62.759 177.446L62.576 177.542L53.0264 182.576L53.2848 183.43L71.0978 181.597L71.2154 180.721L62.9519 177.521ZM132.736 44.0191L132.338 44.4178L132.812 44.7221L140.279 49.5182L141.094 50.0411L140.976 49.0806L139.635 38.1388L139.521 37.2121L138.862 37.8733L132.736 44.0191ZM155.277 70.0499L154.666 69.6694L154.586 70.3849L153.134 83.3162L152.989 84.602L153.906 83.6887L162.451 75.1737L162.857 74.7691L162.371 74.4662L155.277 70.0499Z"
        fill="#FF00BF" stroke="white" stroke-width="0.90864" />
    <path
        d="M90.3531 90.9296L90.3445 90.9456L90.3373 90.9621L86.5272 99.6608L87.3457 100.054L124.791 28.6674L124.793 28.6637L123.99 28.2378L123.988 28.2416L90.3531 90.9296Z"
        fill="#FF00BF" stroke="white" stroke-width="0.90864" />
    <path
        d="M153.266 83.0442L152.853 83.4557L153.353 83.7556L160.574 88.0876L161.186 88.455L161.259 87.7446L162.584 74.8977L162.715 73.6291L161.811 74.5292L153.266 83.0442Z"
        fill="#FF00BF" stroke="white" stroke-width="0.90864" />
    <path
        d="M86.5415 99.6321L86.5412 99.6328L82.1064 108.123L82.1061 108.124L82.9112 108.545L82.9115 108.544L124.792 28.6666L124.794 28.6637L124.794 28.6636L124.391 28.4526L123.989 28.2416L123.989 28.2417L86.5415 99.6321Z"
        fill="#FF00BF" stroke="white" stroke-width="0.90864" />
    <path
        d="M107.197 171.641L106.938 171.531L106.797 171.652L89.0519 176.962L87.8098 177.334L89.0122 177.818L96.9402 181.016L97.1969 181.119L97.333 181.002L114.904 175.77L116.118 175.408L114.951 174.916L107.197 171.641ZM140.772 48.7531L140.084 48.3118L140.072 49.1283L139.883 61.2756L139.866 62.3949L140.658 61.6043L148.14 54.1409L148.539 53.7421L148.064 53.437L140.772 48.7531ZM124.64 28.0732L123.85 27.5532L123.937 28.4947L124.957 39.469L125.043 40.3919L125.72 39.7587L132.184 33.7119L132.605 33.3178L132.124 33.0006L124.64 28.0732Z"
        fill="#FF00BF" stroke="white" stroke-width="0.90864" />
    <path
        d="M60.3938 136.29L60.246 136.298L60.1311 136.391L54.0397 141.339L52.6886 142.436L54.4037 142.139L92.7092 135.502L92.6078 134.601L60.3938 136.29Z"
        fill="#FF00BF" stroke="white" stroke-width="0.90864" />
    <path
        d="M140.017 60.9608L139.612 61.3654L140.098 61.6682L147.536 66.299L148.227 66.7295L148.23 65.9149L148.274 53.8207L148.278 52.7202L147.499 53.4974L140.017 60.9608ZM106.856 171.636L105.813 172.042L106.844 172.477L114.599 175.752L114.888 175.875L115.105 175.647L124.589 165.663L124.095 164.926L106.856 171.636ZM81.234 173.701L81.0052 173.609L80.8796 173.697L62.6966 177.499L61.1944 177.813L62.6255 178.367L70.8889 181.568L71.1152 181.656L71.237 181.57L89.2748 177.842L90.7465 177.538L89.3528 176.976L81.234 173.701Z"
        fill="#FF00BF" stroke="white" stroke-width="0.90864" />
    <path
        d="M21.5928 182.518L21.9587 183.335L54.4362 175.107L54.5614 175.075L54.6512 174.982L92.9566 135.37L92.3756 134.678L21.5928 182.518Z"
        fill="#FF00BF" stroke="white" stroke-width="0.90864" />
    <path
        d="M54.4898 174.243L54.293 174.167L54.1078 174.268L44.6473 179.439L44.913 180.29L62.8364 178.396L62.9527 177.521L54.4898 174.243ZM125.099 39.0956L124.673 39.4943L125.164 39.8097L132.813 44.7221L133.612 45.2354L133.51 44.291L132.325 33.3318L132.228 32.4274L131.563 33.0488L125.099 39.0956ZM148.015 65.5283L147.41 65.1516L147.324 65.859L145.759 78.7143L145.447 79.0138L145.703 79.1678L145.585 80.1407L146.254 79.4982L153.072 83.5884L150.201 96.6605L149.845 96.9822L150.099 97.128L149.866 98.1873L150.673 97.4585L157.729 101.515L158.27 101.826L158.4 101.215L161.221 87.9373L161.567 87.6249L161.319 87.476L161.543 86.4227L160.752 87.1362L154.07 83.1274L155.471 70.6496L155.774 70.3587L155.521 70.2014L155.63 69.2378L154.978 69.8632L148.015 65.5283ZM99.2554 168.287L98.9929 168.176L98.7788 168.364L88.8821 177.056L89.3122 177.833L107.151 172.495L108.361 172.133L107.197 171.641L99.2554 168.287Z"
        fill="#FF00BF" stroke="white" stroke-width="0.90864" />
    <path
        d="M66.4605 130.348L66.2315 130.311L66.0671 130.475L60.0973 136.422L59.2564 137.26L60.4418 137.197L92.6558 135.508L92.7048 134.606L66.4605 130.348Z"
        fill="#FF00BF" stroke="white" stroke-width="0.90864" />
    <path
        d="M132.893 153.595L116.515 161.412L116.411 161.366L116.261 161.527L98.9314 168.275L81.086 173.642L72.9174 170.348L72.6851 170.254L72.4819 170.4L62.524 177.575L62.8825 178.389L81.022 174.596L89.0129 177.819L89.2724 177.923L89.4827 177.739L99.1653 169.234L106.844 172.478L107.136 172.601L107.282 172.445L124.248 165.842L124.4 165.909L124.541 165.728L125.441 165.378L124.975 165.171L133.447 154.284L132.893 153.595ZM133.305 43.9571L132.628 43.5222L132.605 44.3267L132.269 56.3382L131.979 56.6136L132.257 56.7866L132.233 57.6244L132.776 57.1099L140.098 61.6684L140.78 62.0929L140.792 61.2898L140.978 49.3336L141.26 49.0664L140.985 48.8898L140.998 48.0628L140.473 48.5607L133.305 43.9571Z"
        fill="#FF00BF" stroke="white" stroke-width="0.90864" />
    <path
        d="M72.3446 123.579L72.0193 123.403L71.7811 123.686L66.0392 130.504L65.5231 131.117L66.314 131.245L92.5582 135.503L92.8469 134.654L72.3446 123.579Z"
        fill="#FF00BF" stroke="white" stroke-width="0.90864" />
    <path
        d="M54.2321 174.222L52.7372 174.538L54.1621 175.09L62.625 178.368L62.8548 178.457L63.0547 178.313L73.0126 171.138L72.653 170.325L54.2321 174.222ZM145.64 110.933L145.287 112.034L146.237 111.26L153.421 115.2L153.906 115.466L154.073 114.938L158.348 101.387L158.754 101.056L158.499 100.909L158.846 99.809L157.911 100.571L150.841 96.5061L150.353 96.2259L150.182 96.7613L145.796 110.447L145.377 110.788L145.64 110.933ZM140.578 60.8973L139.979 60.5246L139.887 61.2237L138.184 74.1618L137.86 74.4617L138.124 74.6202L137.999 75.5706L138.671 74.9487L145.957 79.3193L146.557 79.6793L146.641 78.9846L148.206 66.1342L148.522 65.843L148.262 65.6812L148.376 64.7398L147.722 65.345L140.578 60.8973Z"
        fill="#FF00BF" stroke="white" stroke-width="0.90864" />
    <path
        d="M77.8911 116.151L77.5161 115.688L77.169 116.172L71.7612 123.714L71.4605 124.133L71.9144 124.378L92.4168 135.454L92.9856 134.768L77.8911 116.151ZM124.456 51.6874L125.364 51.6958L125.865 39.4455L125.866 39.4151L125.864 39.3849L124.843 28.4106L123.937 28.4628L124.456 51.6874Z"
        fill="#FF00BF" stroke="white" stroke-width="0.90864" />
    <path
        d="M125.09 150.05L124.401 150.437L124.688 150.572L116.163 161.636L116.718 162.323L133.092 154.508L133.257 154.586L133.402 154.36L134.152 154.002L133.752 153.814L141.437 141.83L140.831 141.189L125.374 149.89L125.256 149.834L125.09 150.05ZM142.577 92.8022L142.341 93.8409L143.149 93.1314L150.389 97.2938L150.926 97.6027L151.059 96.9974L154 83.6097L154.356 83.2974L154.102 83.1451L154.328 82.1122L153.537 82.8065L146.426 78.5401L145.888 78.2174L145.749 78.8291L142.684 92.3313L142.317 92.6529L142.577 92.8022ZM91.1212 164.85L90.8557 164.738L90.6412 164.93L80.7617 173.785L81.1958 174.558L99.2113 169.14L100.419 168.777L99.2572 168.287L91.1212 164.85Z"
        fill="#FF00BF" stroke="white" stroke-width="0.90864" />
    <path
        d="M82.9328 108.173L82.6048 107.307L82.1207 108.096L77.1503 116.199L76.9823 116.473L77.1847 116.723L92.2792 135.34L93.0569 134.893L82.9328 108.173Z"
        fill="#FF00BF" stroke="white" stroke-width="0.90864" />
    <path
        d="M108.779 157.976L108.481 157.844L108.26 158.083L98.7452 168.397L99.244 169.128L116.686 162.336L117.702 161.94L116.706 161.497L108.779 157.976ZM140.141 124.101L139.55 124.533L140.199 124.871L147.058 128.446L133.173 137.43L132.502 137.864L133.219 138.218L140.852 141.992L141.249 142.188L141.455 141.795L148.152 129.017L148.188 129.036L148.371 128.597L149.165 127.083L148.944 127.226L154.059 114.977L154.686 113.474L153.371 114.435L140.141 124.101ZM72.6156 170.334L71.3801 170.708L72.5771 171.19L80.8937 174.544L81.1562 174.65L81.3669 174.461L91.2463 165.607L90.8116 164.834L72.6156 170.334ZM125.656 39.0447L124.989 38.6163L124.956 39.4084L124.455 51.6588L124.411 52.7372L125.213 52.015L133.363 44.677L133.805 44.2788L133.304 43.9571L125.656 39.0447Z"
        fill="#FF00BF" stroke="white" stroke-width="0.90864" />
    <path
        d="M82.1064 108.123L82.0116 108.304L82.0839 108.495L92.208 135.215L92.6844 136.472L93.0683 135.184L124.827 28.5824L123.989 28.2417L82.1064 108.123Z"
        fill="#FF00BF" stroke="white" stroke-width="0.90864" />
    <path
        d="M150.573 96.3517L143.61 92.3487L146.6 79.1772L146.966 78.8651L146.706 78.7092L146.936 77.6965L146.144 78.3719L139.102 74.1474L140.766 61.5097L141.094 61.2182L140.826 61.0517L140.947 60.1323L140.289 60.7175L133.179 56.2908L133.513 44.3521L133.542 43.2924L132.755 44.0017L124.605 51.3397L124.156 51.7438L124.669 52.063L132.226 56.768L130.421 69.4962L130.083 69.7965L130.355 69.9595L130.224 70.888L130.9 70.2863L138.095 74.6027L134.976 87.8945L134.599 88.2161L134.865 88.3689L134.626 89.3873L135.435 88.697L142.546 92.7854L138.161 106.256L137.734 106.596L138.002 106.743L137.649 107.826L138.597 107.07L145.337 110.766L132.406 120.065L131.807 120.496L132.461 120.837L139.503 124.508L125.353 133.561L124.675 133.995L125.396 134.351L132.445 137.836L117.487 146.196L117.366 146.139L117.201 146.355L116.51 146.741L116.802 146.878L108.45 157.83L100.655 154.367L100.355 154.234L100.134 154.477L90.8233 164.725L82.7822 161.329L82.5137 161.215L82.3747 161.342L64.2466 166.851L64.1593 166.816L64.0181 166.921L62.8612 167.272L63.303 167.45L54.0557 174.301L54.4202 175.11L72.7056 171.242L72.8426 171.298L72.9623 171.188L74.2991 170.905L74.114 170.831L90.9175 165.751L98.9023 169.123L99.1965 169.248L99.413 169.013L108.707 158.939L116.337 162.328L116.663 162.473L116.881 162.19L125.529 150.966L125.56 150.981L125.705 150.754L126.456 150.397L126.384 150.363L141.276 141.98L142.025 141.558L141.254 141.177L134.338 137.758L148.206 128.786L148.861 128.362L148.17 128.001L141.268 124.403L153.907 115.168L154.484 114.747L153.858 114.403L146.764 110.513L147.23 109.405L147.04 109.541L151.005 97.1692L151.419 96.8386L151.159 96.6888L151.506 95.6074L150.573 96.3517Z"
        fill="#FF00BF" stroke="white" stroke-width="0.90864" />
    <path
        d="M54.0344 174.318L54.5966 175.031L64.4958 167.697L64.5167 167.682L64.5357 167.664L74.3689 158.469L73.7668 157.789L54.0344 174.318ZM118.927 78.8963L119.824 79.0315L125.354 51.7676L125.365 51.7179L125.363 51.6671L124.844 28.4425L123.938 28.4078L118.927 78.8963Z"
        fill="#FF00BF" stroke="white" stroke-width="0.90864" />
    <path
        d="M143.055 92.0292L135.905 87.9183L139.021 74.6363L139.398 74.3244L139.132 74.1648L139.365 73.1722L138.572 73.8288L131.34 69.4905L133.144 56.7725L133.485 56.481L133.21 56.3096L133.337 55.4117L132.676 55.9773L125.15 51.2918L124.565 50.9274L124.461 51.609L122.463 64.7138L122.112 65.0142L122.392 65.182L122.254 66.0888L122.934 65.5071L130.328 69.9428L127.077 83.3467L126.689 83.668L126.961 83.8244L126.719 84.8228L127.53 84.1514L134.837 88.3528L130.335 101.959L129.9 102.299L130.173 102.449L129.821 103.514L130.767 102.775L137.695 106.575L124.476 115.928L123.869 116.358L124.529 116.702L131.761 120.472L117.336 129.596L116.652 130.028L117.378 130.387L124.62 133.967L109.405 142.409L109.281 142.352L109.118 142.569L108.424 142.953L108.722 143.093L100.326 154.221L92.3278 150.668L92.0254 150.534L91.8047 150.78L82.4839 161.202L74.236 157.719L73.9644 157.604L73.749 157.806L63.9158 167.001L64.3582 167.767L82.5809 162.23L90.767 165.687L91.0636 165.813L91.28 165.574L100.587 155.331L108.41 158.806L108.738 158.952L108.956 158.667L117.645 147.273L117.676 147.287L117.819 147.06L118.572 146.703L118.501 146.67L133.642 138.208L134.396 137.787L133.622 137.404L126.52 133.893L140.654 124.851L141.315 124.428L140.62 124.065L133.536 120.372L146.453 111.083L147.038 110.663L146.406 110.316L139.129 106.325L139.591 105.234L139.407 105.364L143.482 92.8481L143.905 92.5181L143.64 92.3654L143.986 91.3025L143.055 92.0292Z"
        fill="#FF00BF" stroke="white" stroke-width="0.90864" />
    <path
        d="M123.955 28.3229L92.2279 134.818L53.9996 174.35L54.6179 175.014L74.3503 158.486L74.3845 158.457L74.4125 158.422L92.9856 135.339L92.7628 135.142L93.0417 135.25L119.789 79.1367L119.823 79.0651L119.831 78.9861L124.842 28.4975L123.955 28.3229Z"
        fill="#FF00BF" stroke="white" stroke-width="0.90864" />
    <path
        d="M130.143 102.433L124.327 116.104L117.184 129.753L109.107 142.565L91.9624 150.665L73.893 157.714L72.8508 158.121L73.8813 158.556L82.4282 162.166L82.7272 162.292L82.9436 162.05L92.2602 151.633L100.285 155.198L100.615 155.344L100.833 155.056L109.726 143.27L125.817 134.341L126.575 133.921L125.798 133.537L118.505 129.931L132.913 120.818L133.58 120.396L132.88 120.031L125.608 116.24L138.812 106.897L139.406 106.477L138.768 106.128L131.272 102.016L135.771 88.4195L136.202 88.0902L135.932 87.9345L136.277 86.89L135.348 87.5991L127.708 83.2065L127.228 82.9303L127.051 83.4555L122.31 97.5541L121.865 97.8933L122.144 98.0463L121.792 99.0922L122.737 98.3712L130.143 102.433Z"
        fill="#FF00BF" stroke="white" stroke-width="0.90864" />
    <path
        d="M118.935 78.8511L119.821 79.0519L123.328 65.0597L123.333 65.0389L123.337 65.0177L125.36 51.7459L124.465 51.5872L118.935 78.8511Z"
        fill="#FF00BF" stroke="white" stroke-width="0.90864" />
    <path
        d="M108.703 126.099L100.818 138.682L83.5973 146.79L83.4822 146.739L83.324 146.919L82.5107 147.302L82.8532 147.454L73.717 157.837L74.2232 158.561L92.1309 151.575L92.2893 151.646L92.4285 151.459L93.3226 151.11L93.2326 151.07L109.422 143.421L109.591 143.501L109.735 143.273L110.488 142.917L110.08 142.726L117.744 130.568L117.775 130.584L117.917 130.312L118.559 129.958L118.196 129.778L124.93 116.911L124.963 116.929L125.1 116.608L125.652 116.263L125.351 116.106L125.917 115.026L125.721 115.148L131.089 102.531L131.583 102.187L131.301 102.032L131.758 100.958L130.694 101.699L122.914 97.4324L122.475 97.1917L122.278 97.6519L116.237 111.76L115.728 112.114L115.99 112.251L109.009 125.594L108.423 125.961L108.703 126.099ZM118.854 79.1641L118.609 80.1427L119.421 79.49L127.255 83.9943L127.78 84.2962L127.923 83.7075L131.252 69.9824L131.64 69.6709L131.367 69.5074L131.603 68.5345L130.809 69.1726L123.12 64.5596L122.594 64.2444L122.445 64.8387L118.975 78.6829L118.575 79.0038L118.854 79.1641Z"
        fill="#FF00BF" stroke="white" stroke-width="0.90864" />
    <path
        d="M73.7041 157.853L74.3992 158.438L83.9439 147.59L83.9568 147.575L83.9684 147.559L92.9967 135.324L92.2772 134.77L73.7041 157.853Z"
        fill="#FF00BF" stroke="white" stroke-width="0.90864" />
    <path
        d="M113.881 93.5153L107.893 107.408L107.376 107.761L107.673 107.916L107.22 108.969L108.289 108.237L115.683 112.092L100.894 121.225L100.751 121.155L100.589 121.414L99.9824 121.788L100.268 121.93L92.3073 134.713L91.6255 135.085L91.9352 135.231L83.236 147.02L83.7951 147.701L101.132 139.538L101.303 139.619L101.445 139.391L102.2 139.036L101.789 138.843L109.52 126.504L109.55 126.518L109.692 126.247L110.338 125.894L110.005 125.73L110.662 124.681L110.451 124.797L116.794 112.671L116.827 112.688L117.013 112.253L117.772 110.802L117.585 110.917L122.915 98.4699L122.952 98.4902L123.077 98.1198L123.562 97.7881L123.274 97.6307L123.727 96.5739L123.558 96.6898L127.866 83.8796L128.306 83.551L128.03 83.3922L128.375 82.3659L127.448 83.0577L119.603 78.5475L119.125 78.2727L118.947 78.7944L114.078 93.0357L113.624 93.3742L113.881 93.5153Z"
        fill="#FF00BF" stroke="white" stroke-width="0.90864" />
    <path
        d="M92.2212 134.859L93.0258 135.28L108.654 107.934L108.671 107.904L108.68 107.88L114.881 93.4955L114.888 93.4794L114.893 93.4627L119.808 79.0884L119.517 78.9824L118.968 78.7459L92.2212 134.859Z"
        fill="#FF00BF" stroke="white" stroke-width="0.90864" />
    <path
        d="M108.469 107.305L108.066 107.096L107.856 107.498L100.517 121.534L99.7498 123.001L101.158 122.131L116.842 112.445L117.522 112.025L116.813 111.655L108.469 107.305Z"
        fill="#FF00BF" stroke="white" stroke-width="0.90864" />
    <path
        d="M92.2369 134.829L93.017 135.294L101.305 121.984L101.315 121.97L101.322 121.955L108.662 107.919L107.865 107.483L92.2369 134.829Z"
        fill="#FF00BF" stroke="white" stroke-width="0.90864" />
</svg>