<svg width="48" height="48" viewBox="0 0 48 48" fill="none" xmlns="http://www.w3.org/2000/svg">
<g filter="url(#filter0_ii_1351_14761)">
<path d="M5.70071 27.0566H6.71958V22.0754H3.88938C3.66296 22.0754 3.32334 22.1886 3.43655 22.7547C3.54976 23.3207 4.229 25.3585 4.45542 26.0377L4.45542 26.0377C4.68183 26.7169 5.13467 27.0566 5.70071 27.0566Z" fill="url(#paint0_linear_1351_14761)"/>
</g>
<g filter="url(#filter1_ii_1351_14761)">
<path d="M42.2261 27.0566H41.2072V22.0754H44.0374C44.2638 22.0754 44.6034 22.1886 44.4902 22.7547C44.377 23.3207 43.6978 25.3585 43.4713 26.0377L43.4713 26.0377C43.2449 26.7169 42.7921 27.0566 42.2261 27.0566Z" fill="url(#paint1_linear_1351_14761)"/>
</g>
<g filter="url(#filter2_ii_1351_14761)">
<path d="M6.71942 22.0755H3.88922C3.32318 22.0755 2.64394 21.7358 2.41752 21.0566C2.15337 20.2641 1.57978 18.4981 1.39865 17.7736C1.17224 16.8679 1.96469 16.8679 2.19111 16.8679H6.71942V22.0755Z" fill="url(#paint2_linear_1351_14761)"/>
</g>
<g filter="url(#filter3_ii_1351_14761)">
<path d="M41.2073 22.0755H44.0375C44.6036 22.0755 45.2828 21.7358 45.5092 21.0566C45.7734 20.2641 46.347 18.4981 46.5281 17.7736C46.7545 16.8679 45.9621 16.8679 45.7357 16.8679H41.2073V22.0755Z" fill="url(#paint3_linear_1351_14761)"/>
</g>
<path d="M6.71973 12.1133L24.0405 2.03784L24.0802 2.06084V8.03784L11.9273 15.1164L6.71973 12.1133Z" fill="url(#paint4_linear_1351_14761)"/>
<path d="M6.71973 31.9246V12.1133L11.9273 15.1163V29.0348L6.71973 31.9246Z" fill="url(#paint5_linear_1351_14761)"/>
<path d="M24.0405 42.0002L6.71973 31.9248L11.9273 29.0349L24.0802 36.1134L24.0405 42.0002Z" fill="url(#paint6_linear_1351_14761)"/>
<path d="M41.2476 32.0378L24.04 42L24.0798 36.1132L36.1533 29.1143L41.2476 32.0378Z" fill="url(#paint7_linear_1351_14761)"/>
<path d="M41.2477 12V32.0377L36.1533 29.1142V15.0367L41.2477 12Z" fill="url(#paint8_linear_1351_14761)"/>
<path d="M24.0798 8.03784L36.1533 15.0368L41.2476 12.0001L24.0798 2.06084V8.03784Z" fill="url(#paint9_linear_1351_14761)"/>
<path fill-rule="evenodd" clip-rule="evenodd" d="M11.9277 29.0348L24.0807 36.1133L36.1542 29.1143V15.0368L24.0807 8.03784L11.9277 15.1164V29.0348ZM12.607 28.6981L24.0785 35.4341L35.475 28.7737V15.3774L24.0785 8.71709L12.607 15.4531V28.6981Z" fill="url(#paint10_linear_1351_14761)"/>
<g filter="url(#filter4_i_1351_14761)">
<path fill-rule="evenodd" clip-rule="evenodd" d="M12.6064 28.698L24.0779 35.434L35.4744 28.7737V15.3774L24.0779 8.71704L12.6064 15.4531V28.698Z" fill="url(#paint11_linear_1351_14761)"/>
</g>
<g filter="url(#filter5_d_1351_14761)">
<path d="M20.4879 20.6593L19.2451 17.887V22.1888L23.547 20.8505L20.4879 20.6593Z" fill="url(#paint12_linear_1351_14761)"/>
<path d="M21.2527 22.9535L23.547 20.8503L19.2451 22.1887L21.2527 22.9535Z" fill="#A9B5C8"/>
<path d="M19.2457 17.887L18.0029 20.6593L19.2457 22.1888V17.887Z" fill="url(#paint13_linear_1351_14761)"/>
<path d="M18.0025 20.6592L14.9434 20.8504L19.2453 22.1887L18.0025 20.6592Z" fill="url(#paint14_linear_1351_14761)"/>
<path d="M14.9434 20.8503L17.2377 22.9535L19.2453 22.1887L14.9434 20.8503Z" fill="url(#paint15_linear_1351_14761)"/>
<path d="M21.9219 26.0126L21.2527 22.9535L19.2451 22.1887L21.9219 26.0126Z" fill="url(#paint16_linear_1351_14761)"/>
<path d="M19.2451 24.4831L21.9219 26.0126L19.2451 22.1887V24.4831Z" fill="url(#paint17_linear_1351_14761)"/>
<path d="M17.2375 22.9535L16.5684 26.0126L19.2451 22.1887L17.2375 22.9535Z" fill="#9CAFD1"/>
<path d="M16.5684 26.0126L19.2451 24.4831V22.1887L16.5684 26.0126Z" fill="url(#paint18_linear_1351_14761)"/>
</g>
<g filter="url(#filter6_d_1351_14761)">
<path d="M29.9977 20.6593L28.7549 17.887V22.1888L33.0568 20.8505L29.9977 20.6593Z" fill="url(#paint19_linear_1351_14761)"/>
<path d="M30.7624 22.9535L33.0568 20.8503L28.7549 22.1887L30.7624 22.9535Z" fill="#A9B5C8"/>
<path d="M28.7555 17.887L27.5127 20.6593L28.7555 22.1888V17.887Z" fill="url(#paint20_linear_1351_14761)"/>
<path d="M27.5123 20.6592L24.4531 20.8504L28.755 22.1887L27.5123 20.6592Z" fill="url(#paint21_linear_1351_14761)"/>
<path d="M24.4531 20.8503L26.7475 22.9535L28.755 22.1887L24.4531 20.8503Z" fill="url(#paint22_linear_1351_14761)"/>
<path d="M31.4316 26.0126L30.7624 22.9535L28.7549 22.1887L31.4316 26.0126Z" fill="url(#paint23_linear_1351_14761)"/>
<path d="M28.7549 24.4831L31.4316 26.0126L28.7549 22.1887V24.4831Z" fill="url(#paint24_linear_1351_14761)"/>
<path d="M26.7473 22.9535L26.0781 26.0126L28.7549 22.1887L26.7473 22.9535Z" fill="#9CAFD1"/>
<path d="M26.0781 26.0126L28.7549 24.4831V22.1887L26.0781 26.0126Z" fill="url(#paint25_linear_1351_14761)"/>
</g>
<g filter="url(#filter7_i_1351_14761)">
<path d="M33.8896 45.8493V36.3398L28.682 39.2728V44.7719L33.8896 45.8493Z" fill="url(#paint26_linear_1351_14761)"/>
<path d="M14.1914 36.3398V45.7361L19.4174 44.7149V39.2832L14.1914 36.3398Z" fill="url(#paint27_linear_1351_14761)"/>
</g>
<g filter="url(#filter8_i_1351_14761)">
<path d="M24.04 41.8869L19.417 39.2831V44.7148L24.04 43.8114L28.6815 44.7717V39.2727L24.04 41.8869Z" fill="url(#paint28_linear_1351_14761)"/>
</g>
<defs>
<filter id="filter0_ii_1351_14761" x="3.41406" y="21.849" width="3.53208" height="5.43403" filterUnits="userSpaceOnUse" color-interpolation-filters="sRGB">
<feFlood flood-opacity="0" result="BackgroundImageFix"/>
<feBlend mode="normal" in="SourceGraphic" in2="BackgroundImageFix" result="shape"/>
<feColorMatrix in="SourceAlpha" type="matrix" values="0 0 0 0 0 0 0 0 0 0 0 0 0 0 0 0 0 0 127 0" result="hardAlpha"/>
<feOffset dy="0.226415"/>
<feGaussianBlur stdDeviation="0.113208"/>
<feComposite in2="hardAlpha" operator="arithmetic" k2="-1" k3="1"/>
<feColorMatrix type="matrix" values="0 0 0 0 0.808464 0 0 0 0 0.845599 0 0 0 0 0.945866 0 0 0 1 0"/>
<feBlend mode="normal" in2="shape" result="effect1_innerShadow_1351_14761"/>
<feColorMatrix in="SourceAlpha" type="matrix" values="0 0 0 0 0 0 0 0 0 0 0 0 0 0 0 0 0 0 127 0" result="hardAlpha"/>
<feOffset dx="0.226415" dy="-0.226415"/>
<feGaussianBlur stdDeviation="0.113208"/>
<feComposite in2="hardAlpha" operator="arithmetic" k2="-1" k3="1"/>
<feColorMatrix type="matrix" values="0 0 0 0 0.333333 0 0 0 0 0.372549 0 0 0 0 0.537255 0 0 0 0.6 0"/>
<feBlend mode="normal" in2="effect1_innerShadow_1351_14761" result="effect2_innerShadow_1351_14761"/>
</filter>
<filter id="filter1_ii_1351_14761" x="41.207" y="21.849" width="3.53208" height="5.43403" filterUnits="userSpaceOnUse" color-interpolation-filters="sRGB">
<feFlood flood-opacity="0" result="BackgroundImageFix"/>
<feBlend mode="normal" in="SourceGraphic" in2="BackgroundImageFix" result="shape"/>
<feColorMatrix in="SourceAlpha" type="matrix" values="0 0 0 0 0 0 0 0 0 0 0 0 0 0 0 0 0 0 127 0" result="hardAlpha"/>
<feOffset dy="0.226415"/>
<feGaussianBlur stdDeviation="0.113208"/>
<feComposite in2="hardAlpha" operator="arithmetic" k2="-1" k3="1"/>
<feColorMatrix type="matrix" values="0 0 0 0 0.808464 0 0 0 0 0.845599 0 0 0 0 0.945866 0 0 0 1 0"/>
<feBlend mode="normal" in2="shape" result="effect1_innerShadow_1351_14761"/>
<feColorMatrix in="SourceAlpha" type="matrix" values="0 0 0 0 0 0 0 0 0 0 0 0 0 0 0 0 0 0 127 0" result="hardAlpha"/>
<feOffset dx="0.226415" dy="-0.226415"/>
<feGaussianBlur stdDeviation="0.113208"/>
<feComposite in2="hardAlpha" operator="arithmetic" k2="-1" k3="1"/>
<feColorMatrix type="matrix" values="0 0 0 0 0.333333 0 0 0 0 0.372549 0 0 0 0 0.537255 0 0 0 0.6 0"/>
<feBlend mode="normal" in2="effect1_innerShadow_1351_14761" result="effect2_innerShadow_1351_14761"/>
</filter>
<filter id="filter2_ii_1351_14761" x="1.3584" y="16.6415" width="5.58774" height="5.66035" filterUnits="userSpaceOnUse" color-interpolation-filters="sRGB">
<feFlood flood-opacity="0" result="BackgroundImageFix"/>
<feBlend mode="normal" in="SourceGraphic" in2="BackgroundImageFix" result="shape"/>
<feColorMatrix in="SourceAlpha" type="matrix" values="0 0 0 0 0 0 0 0 0 0 0 0 0 0 0 0 0 0 127 0" result="hardAlpha"/>
<feOffset dy="0.226415"/>
<feGaussianBlur stdDeviation="0.113208"/>
<feComposite in2="hardAlpha" operator="arithmetic" k2="-1" k3="1"/>
<feColorMatrix type="matrix" values="0 0 0 0 0.808464 0 0 0 0 0.845599 0 0 0 0 0.945866 0 0 0 1 0"/>
<feBlend mode="normal" in2="shape" result="effect1_innerShadow_1351_14761"/>
<feColorMatrix in="SourceAlpha" type="matrix" values="0 0 0 0 0 0 0 0 0 0 0 0 0 0 0 0 0 0 127 0" result="hardAlpha"/>
<feOffset dx="0.226415" dy="-0.226415"/>
<feGaussianBlur stdDeviation="0.113208"/>
<feComposite in2="hardAlpha" operator="arithmetic" k2="-1" k3="1"/>
<feColorMatrix type="matrix" values="0 0 0 0 0.333333 0 0 0 0 0.372549 0 0 0 0 0.537255 0 0 0 0.6 0"/>
<feBlend mode="normal" in2="effect1_innerShadow_1351_14761" result="effect2_innerShadow_1351_14761"/>
</filter>
<filter id="filter3_ii_1351_14761" x="41.207" y="16.6415" width="5.58774" height="5.66035" filterUnits="userSpaceOnUse" color-interpolation-filters="sRGB">
<feFlood flood-opacity="0" result="BackgroundImageFix"/>
<feBlend mode="normal" in="SourceGraphic" in2="BackgroundImageFix" result="shape"/>
<feColorMatrix in="SourceAlpha" type="matrix" values="0 0 0 0 0 0 0 0 0 0 0 0 0 0 0 0 0 0 127 0" result="hardAlpha"/>
<feOffset dy="0.226415"/>
<feGaussianBlur stdDeviation="0.113208"/>
<feComposite in2="hardAlpha" operator="arithmetic" k2="-1" k3="1"/>
<feColorMatrix type="matrix" values="0 0 0 0 0.808464 0 0 0 0 0.845599 0 0 0 0 0.945866 0 0 0 1 0"/>
<feBlend mode="normal" in2="shape" result="effect1_innerShadow_1351_14761"/>
<feColorMatrix in="SourceAlpha" type="matrix" values="0 0 0 0 0 0 0 0 0 0 0 0 0 0 0 0 0 0 127 0" result="hardAlpha"/>
<feOffset dx="0.226415" dy="-0.226415"/>
<feGaussianBlur stdDeviation="0.113208"/>
<feComposite in2="hardAlpha" operator="arithmetic" k2="-1" k3="1"/>
<feColorMatrix type="matrix" values="0 0 0 0 0.333333 0 0 0 0 0.372549 0 0 0 0 0.537255 0 0 0 0.6 0"/>
<feBlend mode="normal" in2="effect1_innerShadow_1351_14761" result="effect2_innerShadow_1351_14761"/>
</filter>
<filter id="filter4_i_1351_14761" x="12.6064" y="8.71704" width="22.8682" height="27.6227" filterUnits="userSpaceOnUse" color-interpolation-filters="sRGB">
<feFlood flood-opacity="0" result="BackgroundImageFix"/>
<feBlend mode="normal" in="SourceGraphic" in2="BackgroundImageFix" result="shape"/>
<feColorMatrix in="SourceAlpha" type="matrix" values="0 0 0 0 0 0 0 0 0 0 0 0 0 0 0 0 0 0 127 0" result="hardAlpha"/>
<feOffset dy="0.905661"/>
<feGaussianBlur stdDeviation="1.35849"/>
<feComposite in2="hardAlpha" operator="arithmetic" k2="-1" k3="1"/>
<feColorMatrix type="matrix" values="0 0 0 0 0 0 0 0 0 0 0 0 0 0 0 0 0 0 0.14 0"/>
<feBlend mode="normal" in2="shape" result="effect1_innerShadow_1351_14761"/>
</filter>
<filter id="filter5_d_1351_14761" x="14.7522" y="17.887" width="8.98591" height="8.50812" filterUnits="userSpaceOnUse" color-interpolation-filters="sRGB">
<feFlood flood-opacity="0" result="BackgroundImageFix"/>
<feColorMatrix in="SourceAlpha" type="matrix" values="0 0 0 0 0 0 0 0 0 0 0 0 0 0 0 0 0 0 127 0" result="hardAlpha"/>
<feOffset dy="0.191195"/>
<feGaussianBlur stdDeviation="0.0955976"/>
<feComposite in2="hardAlpha" operator="out"/>
<feColorMatrix type="matrix" values="0 0 0 0 0.25098 0 0 0 0 0.294118 0 0 0 0 0.403922 0 0 0 1 0"/>
<feBlend mode="normal" in2="BackgroundImageFix" result="effect1_dropShadow_1351_14761"/>
<feBlend mode="normal" in="SourceGraphic" in2="effect1_dropShadow_1351_14761" result="shape"/>
</filter>
<filter id="filter6_d_1351_14761" x="24.2619" y="17.887" width="8.98591" height="8.50812" filterUnits="userSpaceOnUse" color-interpolation-filters="sRGB">
<feFlood flood-opacity="0" result="BackgroundImageFix"/>
<feColorMatrix in="SourceAlpha" type="matrix" values="0 0 0 0 0 0 0 0 0 0 0 0 0 0 0 0 0 0 127 0" result="hardAlpha"/>
<feOffset dy="0.191195"/>
<feGaussianBlur stdDeviation="0.0955976"/>
<feComposite in2="hardAlpha" operator="out"/>
<feColorMatrix type="matrix" values="0 0 0 0 0.25098 0 0 0 0 0.294118 0 0 0 0 0.403922 0 0 0 1 0"/>
<feBlend mode="normal" in2="BackgroundImageFix" result="effect1_dropShadow_1351_14761"/>
<feBlend mode="normal" in="SourceGraphic" in2="effect1_dropShadow_1351_14761" result="shape"/>
</filter>
<filter id="filter7_i_1351_14761" x="14.1914" y="36.3398" width="19.6982" height="9.50952" filterUnits="userSpaceOnUse" color-interpolation-filters="sRGB">
<feFlood flood-opacity="0" result="BackgroundImageFix"/>
<feBlend mode="normal" in="SourceGraphic" in2="BackgroundImageFix" result="shape"/>
<feColorMatrix in="SourceAlpha" type="matrix" values="0 0 0 0 0 0 0 0 0 0 0 0 0 0 0 0 0 0 127 0" result="hardAlpha"/>
<feOffset dy="-0.339623"/>
<feComposite in2="hardAlpha" operator="arithmetic" k2="-1" k3="1"/>
<feColorMatrix type="matrix" values="0 0 0 0 0.509804 0 0 0 0 0.607843 0 0 0 0 0.768627 0 0 0 1 0"/>
<feBlend mode="normal" in2="shape" result="effect1_innerShadow_1351_14761"/>
</filter>
<filter id="filter8_i_1351_14761" x="19.417" y="39.2727" width="9.26465" height="5.49902" filterUnits="userSpaceOnUse" color-interpolation-filters="sRGB">
<feFlood flood-opacity="0" result="BackgroundImageFix"/>
<feBlend mode="normal" in="SourceGraphic" in2="BackgroundImageFix" result="shape"/>
<feColorMatrix in="SourceAlpha" type="matrix" values="0 0 0 0 0 0 0 0 0 0 0 0 0 0 0 0 0 0 127 0" result="hardAlpha"/>
<feOffset dy="-0.339623"/>
<feComposite in2="hardAlpha" operator="arithmetic" k2="-1" k3="1"/>
<feColorMatrix type="matrix" values="0 0 0 0 0.329412 0 0 0 0 0.462745 0 0 0 0 0.733333 0 0 0 1 0"/>
<feBlend mode="normal" in2="shape" result="effect1_innerShadow_1351_14761"/>
</filter>
<linearGradient id="paint0_linear_1351_14761" x1="5.06682" y1="22.0754" x2="5.06682" y2="27.0566" gradientUnits="userSpaceOnUse">
<stop stop-color="#7189C3"/>
<stop offset="0.276319" stop-color="#94A9E6"/>
<stop offset="1" stop-color="#ACBFE7"/>
</linearGradient>
<linearGradient id="paint1_linear_1351_14761" x1="42.8599" y1="22.0754" x2="42.8599" y2="27.0566" gradientUnits="userSpaceOnUse">
<stop stop-color="#7189C3"/>
<stop offset="0.276319" stop-color="#94A9E6"/>
<stop offset="1" stop-color="#ACBFE7"/>
</linearGradient>
<linearGradient id="paint2_linear_1351_14761" x1="4.03891" y1="16.8679" x2="4.03891" y2="22.0755" gradientUnits="userSpaceOnUse">
<stop stop-color="#7189C3"/>
<stop offset="0.276319" stop-color="#94A9E6"/>
<stop offset="1" stop-color="#ACBFE7"/>
</linearGradient>
<linearGradient id="paint3_linear_1351_14761" x1="43.8878" y1="16.8679" x2="43.8878" y2="22.0755" gradientUnits="userSpaceOnUse">
<stop stop-color="#7189C3"/>
<stop offset="0.276319" stop-color="#94A9E6"/>
<stop offset="1" stop-color="#ACBFE7"/>
</linearGradient>
<linearGradient id="paint4_linear_1351_14761" x1="24.0003" y1="5.20765" x2="9.5097" y2="13.8115" gradientUnits="userSpaceOnUse">
<stop stop-color="#F7F9FF"/>
<stop offset="1" stop-color="#E5EFFF"/>
</linearGradient>
<linearGradient id="paint5_linear_1351_14761" x1="9.32351" y1="13.2454" x2="9.32351" y2="31.0189" gradientUnits="userSpaceOnUse">
<stop stop-color="#A9C5EC"/>
<stop offset="1" stop-color="#879FD7"/>
</linearGradient>
<linearGradient id="paint6_linear_1351_14761" x1="9.50968" y1="30.6795" x2="24.0003" y2="38.7172" gradientUnits="userSpaceOnUse">
<stop stop-color="#55647C"/>
<stop offset="1" stop-color="#505B74"/>
</linearGradient>
<linearGradient id="paint7_linear_1351_14761" x1="38.7168" y1="30.5661" x2="23.9998" y2="39.5095" gradientUnits="userSpaceOnUse">
<stop stop-color="#BBC2D9"/>
<stop offset="1" stop-color="#B4BDD5"/>
</linearGradient>
<linearGradient id="paint8_linear_1351_14761" x1="38.7005" y1="12" x2="38.7005" y2="32.0377" gradientUnits="userSpaceOnUse">
<stop stop-color="#ADCCF1"/>
<stop offset="1" stop-color="#879ED7"/>
</linearGradient>
<linearGradient id="paint9_linear_1351_14761" x1="23.9998" y1="5.20765" x2="38.9432" y2="13.3586" gradientUnits="userSpaceOnUse">
<stop stop-color="#A5BBCF"/>
<stop offset="1" stop-color="#9CB2C6"/>
</linearGradient>
<linearGradient id="paint10_linear_1351_14761" x1="24.041" y1="8.03784" x2="24.041" y2="36.1133" gradientUnits="userSpaceOnUse">
<stop stop-color="#495971"/>
<stop offset="0.502341" stop-color="#70849D"/>
<stop offset="1" stop-color="#99B1C2"/>
</linearGradient>
<linearGradient id="paint11_linear_1351_14761" x1="24.0404" y1="8.71704" x2="24.0404" y2="35.434" gradientUnits="userSpaceOnUse">
<stop stop-color="#333F67"/>
<stop offset="1" stop-color="#878EA8"/>
</linearGradient>
<linearGradient id="paint12_linear_1351_14761" x1="19.2111" y1="17.887" x2="21.0275" y2="21.7109" gradientUnits="userSpaceOnUse">
<stop stop-color="#A7B9D6"/>
<stop offset="1" stop-color="#9FAFCD"/>
</linearGradient>
<linearGradient id="paint13_linear_1351_14761" x1="19.2117" y1="18.1738" x2="18.6381" y2="21.5197" gradientUnits="userSpaceOnUse">
<stop stop-color="#EAEFF6"/>
<stop offset="1" stop-color="#D1D4DE"/>
</linearGradient>
<linearGradient id="paint14_linear_1351_14761" x1="15.6742" y1="20.0856" x2="19.2113" y2="21.5196" gradientUnits="userSpaceOnUse">
<stop stop-color="#E4EAF7"/>
<stop offset="1" stop-color="#E5EBFB"/>
</linearGradient>
<linearGradient id="paint15_linear_1351_14761" x1="15.483" y1="20.9459" x2="18.4465" y2="22.4755" gradientUnits="userSpaceOnUse">
<stop stop-color="#A3B2D0"/>
<stop offset="1" stop-color="#98A7C4"/>
</linearGradient>
<linearGradient id="paint16_linear_1351_14761" x1="20.5495" y1="22.6667" x2="21.6011" y2="25.8214" gradientUnits="userSpaceOnUse">
<stop stop-color="#98A5C3"/>
<stop offset="1" stop-color="#939EB9"/>
</linearGradient>
<linearGradient id="paint17_linear_1351_14761" x1="19.2111" y1="22.2843" x2="21.0275" y2="25.7258" gradientUnits="userSpaceOnUse">
<stop stop-color="#7D89A0"/>
<stop offset="1" stop-color="#67728A"/>
</linearGradient>
<linearGradient id="paint18_linear_1351_14761" x1="19.4979" y1="22.3799" x2="16.9168" y2="26.1082" gradientUnits="userSpaceOnUse">
<stop stop-color="#6C7590"/>
<stop offset="1" stop-color="#8089A1"/>
</linearGradient>
<linearGradient id="paint19_linear_1351_14761" x1="28.7209" y1="17.887" x2="30.5373" y2="21.7109" gradientUnits="userSpaceOnUse">
<stop stop-color="#A7B9D6"/>
<stop offset="1" stop-color="#9FAFCD"/>
</linearGradient>
<linearGradient id="paint20_linear_1351_14761" x1="28.7215" y1="18.1738" x2="28.1479" y2="21.5197" gradientUnits="userSpaceOnUse">
<stop stop-color="#EAEFF6"/>
<stop offset="1" stop-color="#D1D4DE"/>
</linearGradient>
<linearGradient id="paint21_linear_1351_14761" x1="25.1839" y1="20.0856" x2="28.721" y2="21.5196" gradientUnits="userSpaceOnUse">
<stop stop-color="#E4EAF7"/>
<stop offset="1" stop-color="#E5EBFB"/>
</linearGradient>
<linearGradient id="paint22_linear_1351_14761" x1="24.9927" y1="20.9459" x2="27.9563" y2="22.4755" gradientUnits="userSpaceOnUse">
<stop stop-color="#A3B2D0"/>
<stop offset="1" stop-color="#98A7C4"/>
</linearGradient>
<linearGradient id="paint23_linear_1351_14761" x1="30.0593" y1="22.6667" x2="31.1108" y2="25.8214" gradientUnits="userSpaceOnUse">
<stop stop-color="#98A5C3"/>
<stop offset="1" stop-color="#939EB9"/>
</linearGradient>
<linearGradient id="paint24_linear_1351_14761" x1="28.7209" y1="22.2843" x2="30.5373" y2="25.7258" gradientUnits="userSpaceOnUse">
<stop stop-color="#7D89A0"/>
<stop offset="1" stop-color="#67728A"/>
</linearGradient>
<linearGradient id="paint25_linear_1351_14761" x1="29.0077" y1="22.3799" x2="26.4265" y2="26.1082" gradientUnits="userSpaceOnUse">
<stop stop-color="#6C7590"/>
<stop offset="1" stop-color="#8089A1"/>
</linearGradient>
<linearGradient id="paint26_linear_1351_14761" x1="24.0405" y1="36.3398" x2="24.0405" y2="45.8493" gradientUnits="userSpaceOnUse">
<stop stop-color="#6B82B2"/>
<stop offset="0.371432" stop-color="#7A8FB8"/>
<stop offset="0.549538" stop-color="#9AB0D2"/>
<stop offset="1" stop-color="#B7CDEF"/>
</linearGradient>
<linearGradient id="paint27_linear_1351_14761" x1="24.0405" y1="36.3398" x2="24.0405" y2="45.8493" gradientUnits="userSpaceOnUse">
<stop stop-color="#6B82B2"/>
<stop offset="0.371432" stop-color="#7A8FB8"/>
<stop offset="0.549538" stop-color="#9AB0D2"/>
<stop offset="1" stop-color="#B7CDEF"/>
</linearGradient>
<linearGradient id="paint28_linear_1351_14761" x1="23.9997" y1="39.7359" x2="24.0493" y2="44.7717" gradientUnits="userSpaceOnUse">
<stop stop-color="#4B6ABB"/>
<stop offset="1" stop-color="#7B9DE3"/>
</linearGradient>
</defs>
</svg>
