<svg width="48" height="48" viewBox="0 0 48 48" fill="none" xmlns="http://www.w3.org/2000/svg">
<g filter="url(#filter0_ii_1351_14807)">
<path d="M5.7007 27.0566H6.71957V22.0754H3.88938C3.66296 22.0754 3.32334 22.1886 3.43655 22.7547C3.54976 23.3207 4.229 25.3584 4.45541 26.0377L4.45542 26.0377C4.68183 26.7169 5.13466 27.0566 5.7007 27.0566Z" fill="url(#paint0_linear_1351_14807)"/>
</g>
<g filter="url(#filter1_ii_1351_14807)">
<path d="M42.227 27.0566H41.2082V22.0754H44.0384C44.2648 22.0754 44.6044 22.1886 44.4912 22.7547C44.378 23.3207 43.6987 25.3585 43.4723 26.0377C43.2459 26.7169 42.7931 27.0566 42.227 27.0566Z" fill="url(#paint1_linear_1351_14807)"/>
</g>
<g filter="url(#filter2_ii_1351_14807)">
<path d="M6.72038 22.0755H3.89019C3.32416 22.0755 2.64491 21.7358 2.4185 21.0566C2.15435 20.2641 1.58076 18.4981 1.39963 17.7736C1.17321 16.8679 1.96567 16.8679 2.19208 16.8679H6.72038V22.0755Z" fill="url(#paint2_linear_1351_14807)"/>
</g>
<g filter="url(#filter3_ii_1351_14807)">
<path d="M41.2083 22.0755H44.0385C44.6046 22.0755 45.2838 21.7358 45.5102 21.0566C45.7744 20.2641 46.348 18.4981 46.5291 17.7736C46.7555 16.8679 45.963 16.8679 45.7366 16.8679H41.2083V22.0755Z" fill="url(#paint3_linear_1351_14807)"/>
</g>
<path d="M6.71973 12.1133L24.0405 2.03784L24.0802 2.06084V8.03784L11.9273 15.1164L6.71973 12.1133Z" fill="url(#paint4_linear_1351_14807)"/>
<path d="M6.71973 31.9246V12.1133L11.9273 15.1163V29.0348L6.71973 31.9246Z" fill="url(#paint5_linear_1351_14807)"/>
<path d="M24.0405 42.0002L6.71973 31.9248L11.9273 29.0349L24.0802 36.1134L24.0405 42.0002Z" fill="url(#paint6_linear_1351_14807)"/>
<path d="M41.2476 32.0378L24.04 42L24.0798 36.1132L36.1532 29.1143L41.2476 32.0378Z" fill="url(#paint7_linear_1351_14807)"/>
<path d="M41.2477 12.0002V32.038L36.1533 29.1145V15.037L41.2477 12.0002Z" fill="url(#paint8_linear_1351_14807)"/>
<path d="M24.0798 8.03784L36.1532 15.0368L41.2476 12.0001L24.0798 2.06084V8.03784Z" fill="url(#paint9_linear_1351_14807)"/>
<path fill-rule="evenodd" clip-rule="evenodd" d="M11.9277 29.0348L24.0807 36.1133L36.1541 29.1143V15.0368L24.0807 8.03784L11.9277 15.1164V29.0348ZM12.607 28.6981L24.0784 35.4341L35.4749 28.7737V15.3774L24.0784 8.71709L12.607 15.4531V28.6981Z" fill="url(#paint10_linear_1351_14807)"/>
<g filter="url(#filter4_i_1351_14807)">
<path fill-rule="evenodd" clip-rule="evenodd" d="M12.6064 28.698L24.0779 35.434L35.4744 28.7737V15.3774L24.0779 8.71704L12.6064 15.4531V28.698Z" fill="url(#paint11_linear_1351_14807)"/>
</g>
<g filter="url(#filter5_d_1351_14807)">
<path d="M25.3525 16.6584L24.2402 14.1772V18.0272L28.0902 16.8295L25.3525 16.6584Z" fill="url(#paint12_linear_1351_14807)"/>
<path d="M26.0369 18.7118L28.0902 16.8296L24.2402 18.0274L26.0369 18.7118Z" fill="#E39472"/>
<path d="M24.2401 14.1772L23.1279 16.6584L24.2401 18.0272V14.1772Z" fill="url(#paint13_linear_1351_14807)"/>
<path d="M23.1284 16.6582L20.3906 16.8293L24.2406 18.0271L23.1284 16.6582Z" fill="url(#paint14_linear_1351_14807)"/>
<path d="M20.3906 16.8293L22.444 18.7116L24.2406 18.0271L20.3906 16.8293Z" fill="url(#paint15_linear_1351_14807)"/>
<path d="M26.6348 21.4496L26.0359 18.7118L24.2393 18.0273L26.6348 21.4496Z" fill="url(#paint16_linear_1351_14807)"/>
<path d="M24.2393 20.0807L26.6348 21.4496L24.2393 18.0273V20.0807Z" fill="url(#paint17_linear_1351_14807)"/>
<path d="M22.4426 18.7118L21.8438 21.4496L24.2393 18.0273L22.4426 18.7118Z" fill="#F29471"/>
<path d="M21.8438 21.4496L24.2393 20.0807V18.0273L21.8438 21.4496Z" fill="url(#paint18_linear_1351_14807)"/>
</g>
<g filter="url(#filter6_d_1351_14807)">
<path d="M20.3534 23.4809L19.2412 20.9998V24.8497L23.0912 23.652L20.3534 23.4809Z" fill="url(#paint19_linear_1351_14807)"/>
<path d="M21.0379 25.5341L23.0912 23.6519L19.2412 24.8496L21.0379 25.5341Z" fill="#E39472"/>
<path d="M19.2401 20.9998L18.1279 23.4809L19.2401 24.8497V20.9998Z" fill="url(#paint20_linear_1351_14807)"/>
<path d="M18.1284 23.481L15.3906 23.6521L19.2406 24.8498L18.1284 23.481Z" fill="url(#paint21_linear_1351_14807)"/>
<path d="M15.3906 23.6519L17.444 25.5341L19.2406 24.8496L15.3906 23.6519Z" fill="url(#paint22_linear_1351_14807)"/>
<path d="M21.6348 28.2718L21.0359 25.5341L19.2393 24.8496L21.6348 28.2718Z" fill="url(#paint23_linear_1351_14807)"/>
<path d="M19.2393 26.9029L21.6348 28.2718L19.2393 24.8496V26.9029Z" fill="url(#paint24_linear_1351_14807)"/>
<path d="M17.4436 25.5341L16.8447 28.2718L19.2403 24.8496L17.4436 25.5341Z" fill="#F29471"/>
<path d="M16.8447 28.2718L19.2403 26.9029V24.8496L16.8447 28.2718Z" fill="url(#paint25_linear_1351_14807)"/>
</g>
<g filter="url(#filter7_d_1351_14807)">
<path d="M30.3525 23.4809L29.2402 20.9998V24.8497L33.0902 23.652L30.3525 23.4809Z" fill="url(#paint26_linear_1351_14807)"/>
<path d="M31.0369 25.5341L33.0902 23.6519L29.2402 24.8496L31.0369 25.5341Z" fill="#E39472"/>
<path d="M29.2401 20.9998L28.1279 23.4809L29.2401 24.8497V20.9998Z" fill="url(#paint27_linear_1351_14807)"/>
<path d="M28.1284 23.481L25.3906 23.6521L29.2406 24.8498L28.1284 23.481Z" fill="url(#paint28_linear_1351_14807)"/>
<path d="M25.3906 23.6519L27.444 25.5341L29.2406 24.8496L25.3906 23.6519Z" fill="url(#paint29_linear_1351_14807)"/>
<path d="M31.6348 28.2718L31.0359 25.5341L29.2393 24.8496L31.6348 28.2718Z" fill="url(#paint30_linear_1351_14807)"/>
<path d="M29.2393 26.9029L31.6348 28.2718L29.2393 24.8496V26.9029Z" fill="url(#paint31_linear_1351_14807)"/>
<path d="M27.4426 25.5341L26.8438 28.2718L29.2393 24.8496L27.4426 25.5341Z" fill="#F29471"/>
<path d="M26.8438 28.2718L29.2393 26.9029V24.8496L26.8438 28.2718Z" fill="url(#paint32_linear_1351_14807)"/>
</g>
<g filter="url(#filter8_i_1351_14807)">
<path d="M33.8895 45.849V36.3396L28.682 39.2726V44.7716L33.8895 45.849Z" fill="url(#paint33_linear_1351_14807)"/>
<path d="M14.1914 36.3396V45.7358L19.4174 44.7146V39.283L14.1914 36.3396Z" fill="url(#paint34_linear_1351_14807)"/>
</g>
<g filter="url(#filter9_i_1351_14807)">
<path d="M24.041 41.8869L19.418 39.2831V44.7148L24.041 43.8114L28.6825 44.7717V39.2727L24.041 41.8869Z" fill="url(#paint35_linear_1351_14807)"/>
</g>
<defs>
<filter id="filter0_ii_1351_14807" x="3.41406" y="21.9056" width="3.47548" height="5.32082" filterUnits="userSpaceOnUse" color-interpolation-filters="sRGB">
<feFlood flood-opacity="0" result="BackgroundImageFix"/>
<feBlend mode="normal" in="SourceGraphic" in2="BackgroundImageFix" result="shape"/>
<feColorMatrix in="SourceAlpha" type="matrix" values="0 0 0 0 0 0 0 0 0 0 0 0 0 0 0 0 0 0 127 0" result="hardAlpha"/>
<feOffset dy="0.169811"/>
<feGaussianBlur stdDeviation="0.0849056"/>
<feComposite in2="hardAlpha" operator="arithmetic" k2="-1" k3="1"/>
<feColorMatrix type="matrix" values="0 0 0 0 0.886275 0 0 0 0 0.407843 0 0 0 0 0.141176 0 0 0 1 0"/>
<feBlend mode="normal" in2="shape" result="effect1_innerShadow_1351_14807"/>
<feColorMatrix in="SourceAlpha" type="matrix" values="0 0 0 0 0 0 0 0 0 0 0 0 0 0 0 0 0 0 127 0" result="hardAlpha"/>
<feOffset dx="0.169811" dy="-0.169811"/>
<feGaussianBlur stdDeviation="0.0849056"/>
<feComposite in2="hardAlpha" operator="arithmetic" k2="-1" k3="1"/>
<feColorMatrix type="matrix" values="0 0 0 0 0.886275 0 0 0 0 0.407843 0 0 0 0 0.141176 0 0 0 1 0"/>
<feBlend mode="normal" in2="effect1_innerShadow_1351_14807" result="effect2_innerShadow_1351_14807"/>
</filter>
<filter id="filter1_ii_1351_14807" x="41.208" y="21.9056" width="3.47548" height="5.32082" filterUnits="userSpaceOnUse" color-interpolation-filters="sRGB">
<feFlood flood-opacity="0" result="BackgroundImageFix"/>
<feBlend mode="normal" in="SourceGraphic" in2="BackgroundImageFix" result="shape"/>
<feColorMatrix in="SourceAlpha" type="matrix" values="0 0 0 0 0 0 0 0 0 0 0 0 0 0 0 0 0 0 127 0" result="hardAlpha"/>
<feOffset dy="0.169811"/>
<feGaussianBlur stdDeviation="0.0849056"/>
<feComposite in2="hardAlpha" operator="arithmetic" k2="-1" k3="1"/>
<feColorMatrix type="matrix" values="0 0 0 0 0.886275 0 0 0 0 0.407843 0 0 0 0 0.141176 0 0 0 1 0"/>
<feBlend mode="normal" in2="shape" result="effect1_innerShadow_1351_14807"/>
<feColorMatrix in="SourceAlpha" type="matrix" values="0 0 0 0 0 0 0 0 0 0 0 0 0 0 0 0 0 0 127 0" result="hardAlpha"/>
<feOffset dx="0.169811" dy="-0.169811"/>
<feGaussianBlur stdDeviation="0.0849056"/>
<feComposite in2="hardAlpha" operator="arithmetic" k2="-1" k3="1"/>
<feColorMatrix type="matrix" values="0 0 0 0 0.886275 0 0 0 0 0.407843 0 0 0 0 0.141176 0 0 0 1 0"/>
<feBlend mode="normal" in2="effect1_innerShadow_1351_14807" result="effect2_innerShadow_1351_14807"/>
</filter>
<filter id="filter2_ii_1351_14807" x="1.35938" y="16.6981" width="5.53114" height="5.54714" filterUnits="userSpaceOnUse" color-interpolation-filters="sRGB">
<feFlood flood-opacity="0" result="BackgroundImageFix"/>
<feBlend mode="normal" in="SourceGraphic" in2="BackgroundImageFix" result="shape"/>
<feColorMatrix in="SourceAlpha" type="matrix" values="0 0 0 0 0 0 0 0 0 0 0 0 0 0 0 0 0 0 127 0" result="hardAlpha"/>
<feOffset dy="0.169811"/>
<feGaussianBlur stdDeviation="0.0849056"/>
<feComposite in2="hardAlpha" operator="arithmetic" k2="-1" k3="1"/>
<feColorMatrix type="matrix" values="0 0 0 0 0.976155 0 0 0 0 0.775294 0 0 0 0 0.532146 0 0 0 1 0"/>
<feBlend mode="normal" in2="shape" result="effect1_innerShadow_1351_14807"/>
<feColorMatrix in="SourceAlpha" type="matrix" values="0 0 0 0 0 0 0 0 0 0 0 0 0 0 0 0 0 0 127 0" result="hardAlpha"/>
<feOffset dx="0.169811" dy="-0.169811"/>
<feGaussianBlur stdDeviation="0.0849056"/>
<feComposite in2="hardAlpha" operator="arithmetic" k2="-1" k3="1"/>
<feColorMatrix type="matrix" values="0 0 0 0 0.886275 0 0 0 0 0.407843 0 0 0 0 0.141176 0 0 0 1 0"/>
<feBlend mode="normal" in2="effect1_innerShadow_1351_14807" result="effect2_innerShadow_1351_14807"/>
</filter>
<filter id="filter3_ii_1351_14807" x="41.208" y="16.6981" width="5.53114" height="5.54714" filterUnits="userSpaceOnUse" color-interpolation-filters="sRGB">
<feFlood flood-opacity="0" result="BackgroundImageFix"/>
<feBlend mode="normal" in="SourceGraphic" in2="BackgroundImageFix" result="shape"/>
<feColorMatrix in="SourceAlpha" type="matrix" values="0 0 0 0 0 0 0 0 0 0 0 0 0 0 0 0 0 0 127 0" result="hardAlpha"/>
<feOffset dy="0.169811"/>
<feGaussianBlur stdDeviation="0.0849056"/>
<feComposite in2="hardAlpha" operator="arithmetic" k2="-1" k3="1"/>
<feColorMatrix type="matrix" values="0 0 0 0 0.976155 0 0 0 0 0.775294 0 0 0 0 0.532146 0 0 0 1 0"/>
<feBlend mode="normal" in2="shape" result="effect1_innerShadow_1351_14807"/>
<feColorMatrix in="SourceAlpha" type="matrix" values="0 0 0 0 0 0 0 0 0 0 0 0 0 0 0 0 0 0 127 0" result="hardAlpha"/>
<feOffset dx="0.169811" dy="-0.169811"/>
<feGaussianBlur stdDeviation="0.0849056"/>
<feComposite in2="hardAlpha" operator="arithmetic" k2="-1" k3="1"/>
<feColorMatrix type="matrix" values="0 0 0 0 0.886275 0 0 0 0 0.407843 0 0 0 0 0.141176 0 0 0 1 0"/>
<feBlend mode="normal" in2="effect1_innerShadow_1351_14807" result="effect2_innerShadow_1351_14807"/>
</filter>
<filter id="filter4_i_1351_14807" x="12.6064" y="8.71704" width="22.8682" height="27.3963" filterUnits="userSpaceOnUse" color-interpolation-filters="sRGB">
<feFlood flood-opacity="0" result="BackgroundImageFix"/>
<feBlend mode="normal" in="SourceGraphic" in2="BackgroundImageFix" result="shape"/>
<feColorMatrix in="SourceAlpha" type="matrix" values="0 0 0 0 0 0 0 0 0 0 0 0 0 0 0 0 0 0 127 0" result="hardAlpha"/>
<feOffset dy="0.679244"/>
<feGaussianBlur stdDeviation="1.01887"/>
<feComposite in2="hardAlpha" operator="arithmetic" k2="-1" k3="1"/>
<feColorMatrix type="matrix" values="0 0 0 0 0 0 0 0 0 0 0 0 0 0 0 0 0 0 0.14 0"/>
<feBlend mode="normal" in2="shape" result="effect1_innerShadow_1351_14807"/>
</filter>
<filter id="filter5_d_1351_14807" x="20.2623" y="14.1772" width="7.95588" height="7.52888" filterUnits="userSpaceOnUse" color-interpolation-filters="sRGB">
<feFlood flood-opacity="0" result="BackgroundImageFix"/>
<feColorMatrix in="SourceAlpha" type="matrix" values="0 0 0 0 0 0 0 0 0 0 0 0 0 0 0 0 0 0 127 0" result="hardAlpha"/>
<feOffset dy="0.128333"/>
<feGaussianBlur stdDeviation="0.0641664"/>
<feComposite in2="hardAlpha" operator="out"/>
<feColorMatrix type="matrix" values="0 0 0 0 0.501961 0 0 0 0 0.211765 0 0 0 0 0.164706 0 0 0 1 0"/>
<feBlend mode="normal" in2="BackgroundImageFix" result="effect1_dropShadow_1351_14807"/>
<feBlend mode="normal" in="SourceGraphic" in2="effect1_dropShadow_1351_14807" result="shape"/>
</filter>
<filter id="filter6_d_1351_14807" x="15.2623" y="20.9998" width="7.95686" height="7.52864" filterUnits="userSpaceOnUse" color-interpolation-filters="sRGB">
<feFlood flood-opacity="0" result="BackgroundImageFix"/>
<feColorMatrix in="SourceAlpha" type="matrix" values="0 0 0 0 0 0 0 0 0 0 0 0 0 0 0 0 0 0 127 0" result="hardAlpha"/>
<feOffset dy="0.128333"/>
<feGaussianBlur stdDeviation="0.0641664"/>
<feComposite in2="hardAlpha" operator="out"/>
<feColorMatrix type="matrix" values="0 0 0 0 0.501961 0 0 0 0 0.211765 0 0 0 0 0.164706 0 0 0 1 0"/>
<feBlend mode="normal" in2="BackgroundImageFix" result="effect1_dropShadow_1351_14807"/>
<feBlend mode="normal" in="SourceGraphic" in2="effect1_dropShadow_1351_14807" result="shape"/>
</filter>
<filter id="filter7_d_1351_14807" x="25.2623" y="20.9998" width="7.95588" height="7.52864" filterUnits="userSpaceOnUse" color-interpolation-filters="sRGB">
<feFlood flood-opacity="0" result="BackgroundImageFix"/>
<feColorMatrix in="SourceAlpha" type="matrix" values="0 0 0 0 0 0 0 0 0 0 0 0 0 0 0 0 0 0 127 0" result="hardAlpha"/>
<feOffset dy="0.128333"/>
<feGaussianBlur stdDeviation="0.0641664"/>
<feComposite in2="hardAlpha" operator="out"/>
<feColorMatrix type="matrix" values="0 0 0 0 0.501961 0 0 0 0 0.211765 0 0 0 0 0.164706 0 0 0 1 0"/>
<feBlend mode="normal" in2="BackgroundImageFix" result="effect1_dropShadow_1351_14807"/>
<feBlend mode="normal" in="SourceGraphic" in2="effect1_dropShadow_1351_14807" result="shape"/>
</filter>
<filter id="filter8_i_1351_14807" x="14.1914" y="36.3396" width="19.6982" height="9.50952" filterUnits="userSpaceOnUse" color-interpolation-filters="sRGB">
<feFlood flood-opacity="0" result="BackgroundImageFix"/>
<feBlend mode="normal" in="SourceGraphic" in2="BackgroundImageFix" result="shape"/>
<feColorMatrix in="SourceAlpha" type="matrix" values="0 0 0 0 0 0 0 0 0 0 0 0 0 0 0 0 0 0 127 0" result="hardAlpha"/>
<feOffset dy="-0.254717"/>
<feComposite in2="hardAlpha" operator="arithmetic" k2="-1" k3="1"/>
<feColorMatrix type="matrix" values="0 0 0 0 0.894992 0 0 0 0 0.661731 0 0 0 0 0.390848 0 0 0 1 0"/>
<feBlend mode="normal" in2="shape" result="effect1_innerShadow_1351_14807"/>
</filter>
<filter id="filter9_i_1351_14807" x="19.418" y="39.1029" width="9.26465" height="5.66883" filterUnits="userSpaceOnUse" color-interpolation-filters="sRGB">
<feFlood flood-opacity="0" result="BackgroundImageFix"/>
<feBlend mode="normal" in="SourceGraphic" in2="BackgroundImageFix" result="shape"/>
<feColorMatrix in="SourceAlpha" type="matrix" values="0 0 0 0 0 0 0 0 0 0 0 0 0 0 0 0 0 0 127 0" result="hardAlpha"/>
<feOffset dy="-0.169811"/>
<feGaussianBlur stdDeviation="0.0849056"/>
<feComposite in2="hardAlpha" operator="arithmetic" k2="-1" k3="1"/>
<feColorMatrix type="matrix" values="0 0 0 0 0 0 0 0 0 0 0 0 0 0 0 0 0 0 0.25 0"/>
<feBlend mode="normal" in2="shape" result="effect1_innerShadow_1351_14807"/>
</filter>
<linearGradient id="paint0_linear_1351_14807" x1="5.06682" y1="22.0754" x2="5.06682" y2="27.0566" gradientUnits="userSpaceOnUse">
<stop stop-color="#F7A368"/>
<stop offset="0.276319" stop-color="#F58F32"/>
<stop offset="1" stop-color="#EDA537"/>
</linearGradient>
<linearGradient id="paint1_linear_1351_14807" x1="42.8609" y1="22.0754" x2="42.8609" y2="27.0566" gradientUnits="userSpaceOnUse">
<stop stop-color="#F7A368"/>
<stop offset="0.276319" stop-color="#F58F32"/>
<stop offset="1" stop-color="#EDA537"/>
</linearGradient>
<linearGradient id="paint2_linear_1351_14807" x1="4.03988" y1="16.8679" x2="4.03988" y2="22.0755" gradientUnits="userSpaceOnUse">
<stop stop-color="#F7A368"/>
<stop offset="0.276319" stop-color="#F58F32"/>
<stop offset="1" stop-color="#EDA537"/>
</linearGradient>
<linearGradient id="paint3_linear_1351_14807" x1="43.8888" y1="16.8679" x2="43.8888" y2="22.0755" gradientUnits="userSpaceOnUse">
<stop stop-color="#F7A368"/>
<stop offset="0.276319" stop-color="#F58F32"/>
<stop offset="1" stop-color="#EDA537"/>
</linearGradient>
<linearGradient id="paint4_linear_1351_14807" x1="24.0002" y1="5.20765" x2="9.50967" y2="13.8114" gradientUnits="userSpaceOnUse">
<stop stop-color="#FBE8DF"/>
<stop offset="1" stop-color="#EECFC0"/>
</linearGradient>
<linearGradient id="paint5_linear_1351_14807" x1="9.3235" y1="13.2454" x2="9.3235" y2="31.0189" gradientUnits="userSpaceOnUse">
<stop stop-color="#EC9068"/>
<stop offset="1" stop-color="#D9622F"/>
</linearGradient>
<linearGradient id="paint6_linear_1351_14807" x1="9.50967" y1="30.6795" x2="24.0002" y2="38.7172" gradientUnits="userSpaceOnUse">
<stop stop-color="#9A411B"/>
<stop offset="1" stop-color="#BB5324"/>
</linearGradient>
<linearGradient id="paint7_linear_1351_14807" x1="38.7168" y1="30.5661" x2="23.9998" y2="39.5095" gradientUnits="userSpaceOnUse">
<stop stop-color="#FFB86E"/>
<stop offset="1" stop-color="#FDAC6D"/>
</linearGradient>
<linearGradient id="paint8_linear_1351_14807" x1="38.7005" y1="12.0002" x2="38.7005" y2="32.038" gradientUnits="userSpaceOnUse">
<stop stop-color="#EC8D67"/>
<stop offset="1" stop-color="#D9622D"/>
</linearGradient>
<linearGradient id="paint9_linear_1351_14807" x1="23.9998" y1="5.20765" x2="38.9432" y2="13.3586" gradientUnits="userSpaceOnUse">
<stop stop-color="#FFC9B3"/>
<stop offset="1" stop-color="#FDBFA6"/>
</linearGradient>
<linearGradient id="paint10_linear_1351_14807" x1="24.0409" y1="8.03784" x2="24.0409" y2="36.1133" gradientUnits="userSpaceOnUse">
<stop stop-color="#A64932"/>
<stop offset="0.502341" stop-color="#B96B57"/>
<stop offset="1" stop-color="#CA7B65"/>
</linearGradient>
<linearGradient id="paint11_linear_1351_14807" x1="24.0404" y1="8.71704" x2="24.0404" y2="35.434" gradientUnits="userSpaceOnUse">
<stop stop-color="#5E1A15"/>
<stop offset="1" stop-color="#B76D56"/>
</linearGradient>
<linearGradient id="paint12_linear_1351_14807" x1="24.2098" y1="14.1772" x2="25.8354" y2="17.5995" gradientUnits="userSpaceOnUse">
<stop stop-color="#E49C80"/>
<stop offset="1" stop-color="#D78569"/>
</linearGradient>
<linearGradient id="paint13_linear_1351_14807" x1="24.2097" y1="14.4339" x2="23.6964" y2="17.4283" gradientUnits="userSpaceOnUse">
<stop stop-color="#FFDECB"/>
<stop offset="1" stop-color="#FFAD94"/>
</linearGradient>
<linearGradient id="paint14_linear_1351_14807" x1="21.0447" y1="16.1449" x2="24.2102" y2="17.4282" gradientUnits="userSpaceOnUse">
<stop stop-color="#F9CFC2"/>
<stop offset="1" stop-color="#FFD5C6"/>
</linearGradient>
<linearGradient id="paint15_linear_1351_14807" x1="20.8735" y1="16.9149" x2="23.5258" y2="18.2838" gradientUnits="userSpaceOnUse">
<stop stop-color="#D58164"/>
<stop offset="1" stop-color="#D17E5E"/>
</linearGradient>
<linearGradient id="paint16_linear_1351_14807" x1="25.4066" y1="18.4551" x2="26.3477" y2="21.2784" gradientUnits="userSpaceOnUse">
<stop stop-color="#CB7455"/>
<stop offset="1" stop-color="#BF6040"/>
</linearGradient>
<linearGradient id="paint17_linear_1351_14807" x1="24.2088" y1="18.1129" x2="25.8344" y2="21.1929" gradientUnits="userSpaceOnUse">
<stop stop-color="#9E553C"/>
<stop offset="1" stop-color="#A6604A"/>
</linearGradient>
<linearGradient id="paint18_linear_1351_14807" x1="24.4656" y1="18.1985" x2="22.1556" y2="21.5351" gradientUnits="userSpaceOnUse">
<stop stop-color="#C36346"/>
<stop offset="1" stop-color="#CB7960"/>
</linearGradient>
<linearGradient id="paint19_linear_1351_14807" x1="19.2108" y1="20.9998" x2="20.8364" y2="24.422" gradientUnits="userSpaceOnUse">
<stop stop-color="#E49C80"/>
<stop offset="1" stop-color="#D78569"/>
</linearGradient>
<linearGradient id="paint20_linear_1351_14807" x1="19.2097" y1="21.2564" x2="18.6964" y2="24.2509" gradientUnits="userSpaceOnUse">
<stop stop-color="#FFDECB"/>
<stop offset="1" stop-color="#FFAD94"/>
</linearGradient>
<linearGradient id="paint21_linear_1351_14807" x1="16.0447" y1="22.9676" x2="19.2102" y2="24.251" gradientUnits="userSpaceOnUse">
<stop stop-color="#F9CFC2"/>
<stop offset="1" stop-color="#FFD5C6"/>
</linearGradient>
<linearGradient id="paint22_linear_1351_14807" x1="15.8735" y1="23.7374" x2="18.5258" y2="25.1063" gradientUnits="userSpaceOnUse">
<stop stop-color="#D58164"/>
<stop offset="1" stop-color="#D17E5E"/>
</linearGradient>
<linearGradient id="paint23_linear_1351_14807" x1="20.4066" y1="25.2774" x2="21.3477" y2="28.1007" gradientUnits="userSpaceOnUse">
<stop stop-color="#CB7455"/>
<stop offset="1" stop-color="#BF6040"/>
</linearGradient>
<linearGradient id="paint24_linear_1351_14807" x1="19.2088" y1="24.9352" x2="20.8344" y2="28.0152" gradientUnits="userSpaceOnUse">
<stop stop-color="#9E553C"/>
<stop offset="1" stop-color="#A6604A"/>
</linearGradient>
<linearGradient id="paint25_linear_1351_14807" x1="19.4665" y1="25.0207" x2="17.1565" y2="28.3574" gradientUnits="userSpaceOnUse">
<stop stop-color="#C36346"/>
<stop offset="1" stop-color="#CB7960"/>
</linearGradient>
<linearGradient id="paint26_linear_1351_14807" x1="29.2098" y1="20.9998" x2="30.8354" y2="24.422" gradientUnits="userSpaceOnUse">
<stop stop-color="#E49C80"/>
<stop offset="1" stop-color="#D78569"/>
</linearGradient>
<linearGradient id="paint27_linear_1351_14807" x1="29.2097" y1="21.2564" x2="28.6964" y2="24.2509" gradientUnits="userSpaceOnUse">
<stop stop-color="#FFDECB"/>
<stop offset="1" stop-color="#FFAD94"/>
</linearGradient>
<linearGradient id="paint28_linear_1351_14807" x1="26.0447" y1="22.9676" x2="29.2102" y2="24.251" gradientUnits="userSpaceOnUse">
<stop stop-color="#F9CFC2"/>
<stop offset="1" stop-color="#FFD5C6"/>
</linearGradient>
<linearGradient id="paint29_linear_1351_14807" x1="25.8735" y1="23.7374" x2="28.5258" y2="25.1063" gradientUnits="userSpaceOnUse">
<stop stop-color="#D58164"/>
<stop offset="1" stop-color="#D17E5E"/>
</linearGradient>
<linearGradient id="paint30_linear_1351_14807" x1="30.4066" y1="25.2774" x2="31.3477" y2="28.1007" gradientUnits="userSpaceOnUse">
<stop stop-color="#CB7455"/>
<stop offset="1" stop-color="#BF6040"/>
</linearGradient>
<linearGradient id="paint31_linear_1351_14807" x1="29.2088" y1="24.9352" x2="30.8344" y2="28.0152" gradientUnits="userSpaceOnUse">
<stop stop-color="#9E553C"/>
<stop offset="1" stop-color="#A6604A"/>
</linearGradient>
<linearGradient id="paint32_linear_1351_14807" x1="29.4656" y1="25.0207" x2="27.1556" y2="28.3574" gradientUnits="userSpaceOnUse">
<stop stop-color="#C36346"/>
<stop offset="1" stop-color="#CB7960"/>
</linearGradient>
<linearGradient id="paint33_linear_1351_14807" x1="24.0405" y1="36.3396" x2="24.0405" y2="45.849" gradientUnits="userSpaceOnUse">
<stop stop-color="#CB8961"/>
<stop offset="0.371432" stop-color="#D1A47A"/>
<stop offset="0.549538" stop-color="#D5AC82"/>
<stop offset="1" stop-color="#DCC19F"/>
</linearGradient>
<linearGradient id="paint34_linear_1351_14807" x1="24.0405" y1="36.3396" x2="24.0405" y2="45.849" gradientUnits="userSpaceOnUse">
<stop stop-color="#CB8961"/>
<stop offset="0.371432" stop-color="#D1A47A"/>
<stop offset="0.549538" stop-color="#D5AC82"/>
<stop offset="1" stop-color="#DCC19F"/>
</linearGradient>
<linearGradient id="paint35_linear_1351_14807" x1="24.0007" y1="39.7359" x2="24.0502" y2="44.7717" gradientUnits="userSpaceOnUse">
<stop stop-color="#CC682A"/>
<stop offset="1" stop-color="#DB9E5B"/>
</linearGradient>
</defs>
</svg>
