<svg width="20" height="20" viewBox="0 0 20 20" fill="none" xmlns="http://www.w3.org/2000/svg">
<path d="M15.0721 16.7224C15.8715 16.7796 17.4092 16.8939 17.6784 16.8939C18.3637 16.8939 18.8899 16.4163 18.8899 15.6816C18.8899 14.7755 18.6818 12.951 18.6818 12.302C18.6818 11.7265 19 10.1837 19 8.78776C19 4.56327 15.2801 1 11.2175 1C7.99932 1 5.74779 2.51837 4.40177 4.4898M4.35282 18.7673C4.04691 18.7673 2.26037 18.9265 1.90551 18.9265C1.40381 18.9265 1.08566 18.5959 1.08566 18.0694C1.08566 17.4327 1.24473 16.0367 1.24473 15.5837C1.24473 15.3143 1 14.2 1 13.6122C1 10.7592 3.31271 8.2 6.40857 8.2C9.40653 8.2 11.8049 10.6122 11.8049 13.6C11.8049 16.3918 9.5656 19 6.40857 19C5.57648 19 4.78355 18.7673 4.35282 18.7673Z" stroke="white" stroke-opacity="0.64" stroke-width="2" stroke-linecap="round"/>
</svg>
