<svg width="20" height="20" viewBox="0 0 20 20" fill="none" xmlns="http://www.w3.org/2000/svg">
<path d="M19 12.6V10.7587C19 9.7418 19 9.23336 18.8813 8.7571C18.7761 8.33493 18.6028 7.93275 18.3681 7.56641C18.1033 7.15314 17.7337 6.80403 16.9944 6.10583L16.9944 6.1058L14.3944 3.65025C12.8479 2.18966 12.0746 1.45937 11.1925 1.18385C10.416 0.94132 9.584 0.94132 8.80748 1.18385C7.92537 1.45937 7.15211 2.18966 5.60561 3.65025L3.00561 6.1058L3.0056 6.10581C2.26632 6.80402 1.89667 7.15313 1.63191 7.56641C1.39721 7.93275 1.22385 8.33493 1.11866 8.7571C1 9.23336 1 9.7418 1 10.7587V12.6C1 14.8402 1 15.9603 1.43597 16.816C1.81947 17.5686 2.43139 18.1805 3.18404 18.564C3.90164 18.9297 4.80525 18.9886 6.39961 18.9982C6.95189 19.0015 7.4 18.5523 7.4 18V13.4572C7.4 12.1714 8.28571 10.8572 10 10.8572C11.7143 10.8572 12.6 12.1714 12.6 13.4572L12.6 18C12.6 18.5523 13.0481 19.0015 13.6004 18.9982C15.1947 18.9886 16.0984 18.9297 16.816 18.564C17.5686 18.1805 18.1805 17.5686 18.564 16.816C19 15.9603 19 14.8402 19 12.6Z" stroke="white" stroke-opacity="0.64" stroke-width="2" stroke-linecap="round" stroke-linejoin="round"/>
</svg>
