<svg width="20" height="20" viewBox="0 0 20 20" fill="none" xmlns="http://www.w3.org/2000/svg">
<path d="M1 10.0119C1.09486 10.1897 1.32016 10.3462 1.60474 10.498C3.90909 11.664 8.64111 14.0577 9.13439 14.3043C9.75099 14.6126 10.415 14.5296 10.8656 14.3043C11.3162 14.0791 18.1107 10.664 18.502 10.4269C18.8933 10.1897 18.917 10.1304 19 10M1 14.5059C1.11858 14.7075 1.26324 14.7858 1.46245 14.9091C3.88142 16.1423 8.80474 18.6466 9.14624 18.7984C9.57312 18.9881 9.81028 19 10.0237 19C10.2372 19 10.6047 18.917 10.8538 18.7984C11.1028 18.6798 17.2451 15.5613 18.3953 15.004C18.7154 14.8261 18.9051 14.6601 19 14.5059M1 5.50593C1 5.19763 1.18394 5.00619 1.36759 4.88933C1.75889 4.64032 8.62451 1.41502 8.96838 1.27273C9.24111 1.15987 9.52569 1 10 1C10.3676 1 10.6996 1.12095 11.0316 1.27273C13.2411 2.3083 17.819 4.46245 18.4545 4.79447C18.7628 4.94862 19 5.12648 19 5.51779C19 5.90909 18.7154 6.06324 18.502 6.18182C18.2885 6.3004 11.2569 9.64427 10.9249 9.7747C10.5929 9.90514 10.415 10 9.98814 10C9.56126 10 9.28854 9.88142 9.05138 9.7747C8.81423 9.66798 1.75889 6.32411 1.42688 6.14624C1.09486 5.96838 1 5.79051 1 5.50593Z" stroke="white" stroke-opacity="0.64" stroke-width="2" stroke-linecap="round"/>
</svg>
