<svg width="22" height="20" viewBox="0 0 22 20" fill="none" xmlns="http://www.w3.org/2000/svg">
<path d="M1 12.5L1 9C1 6.19974 1 4.79961 1.54497 3.73005C2.02433 2.78924 2.78924 2.02433 3.73005 1.54497C4.79961 1 6.19974 1 9 1L12.5 1C13.8978 1 14.5967 1 15.1481 1.22836C15.8831 1.53284 16.4672 2.11687 16.7716 2.85195C16.979 3.35251 16.9981 3.97475 16.9998 5.1313M1 12.5C1 13.8297 1 14.9946 1.3806 15.9134C1.88807 17.1386 2.86144 18.1119 4.08658 18.6194C5.00544 19 6.17029 19 8.5 19H13.5C15.8297 19 16.9946 19 17.9134 18.6194C19.1386 18.1119 20.1119 17.1386 20.6194 15.9134C21 14.9946 21 13.8297 21 12.5C21 10.1703 21 9.00544 20.6194 8.08658C20.1119 6.86144 19.1386 5.88807 17.9134 5.3806C17.639 5.26693 17.3426 5.18721 16.9998 5.1313M1 12.5C1 10.1703 1 9.00544 1.3806 8.08658C1.88807 6.86144 2.86144 5.88807 4.08658 5.3806C5.00544 5 6.17029 5 8.5 5L13.5 5C15.1339 5 16.1949 5 16.9998 5.1313M13 10H16" stroke="white" stroke-opacity="0.64" stroke-width="2" stroke-linecap="round" stroke-linejoin="round"/>
</svg>
