<svg width="67" height="68" viewBox="0 0 67 68" fill="none" xmlns="http://www.w3.org/2000/svg">
    <path
        d="M19.5506 54.7257C24.2571 56.5559 30.6275 58.4594 35.7069 58.012C43.1104 57.3599 57.5781 54.3644 57.5781 41.8303C57.5781 41.7086 57.2826 40.8003 57.1806 40.7648C56.5873 39.2459 55.885 37.882 54.855 36.4545C53.4865 34.554 52.0458 27.4977 52.8748 25.2262C52.9224 25.0985 52.6622 24.9859 52.5463 24.9919C49.5813 25.1907 46.73 29.5712 46.3908 32.0861C36.5727 21.3156 38.7586 12.3935 40.2353 10.2104C40.2452 10.2016 40.2525 10.1902 40.2564 10.1776C40.2604 10.1649 40.2607 10.1515 40.2575 10.1386C40.2591 10.0057 39.992 9.87265 39.8561 9.93991C30.4824 11.7082 19.1454 28.3803 19.6857 30.8823C17.7293 29.6566 19.0034 23.0521 19.7333 21.1962C19.7932 21.0459 19.4409 20.9053 19.3142 20.9884C17.202 22.3675 13.8526 26.3385 10.3097 36.7387C6.76683 47.1388 14.6454 52.8123 19.5506 54.7257Z"
        fill="#DC603A" />
    <path
        d="M50.9819 38.8819C50.3659 41.2376 50.0066 43.8759 46.5919 44.6043C40.8368 45.8367 43.8289 37.0621 43.5899 34.9467C43.1856 31.439 39.3552 29.0348 35.4213 27.7191C35.2682 27.6675 39.9331 33.7977 32.7839 35.2651C30.5547 35.7236 28.3383 34.5299 28.0186 32.585C27.8701 31.6573 28.3696 28.9522 28.1861 29.0803C26.4228 30.2968 24.6755 31.6732 24.4752 33.5802C24.3465 34.8482 24.9815 36.2216 25.2442 37.4608C25.6698 39.5019 24.8795 41.1898 21.8622 41.2095C18.1544 41.2315 19.2607 34.761 19.2538 34.7769C19.1784 34.7163 5.21819 47.7755 26.3215 56.8479C32.4657 59.4893 42.9252 57.5414 48.2128 54.1808C55.065 49.8257 51.428 37.1675 50.9834 38.8781"
        fill="#F1EA37" />
</svg>