<svg width="62" height="68" viewBox="0 0 62 68" fill="none" xmlns="http://www.w3.org/2000/svg">
    <path
        d="M50.9335 34.1262C50.9335 45.9148 40.7222 55.4715 28.1262 55.4715C15.5302 55.4715 5.31885 45.9148 5.31885 34.1262C5.31885 22.3377 15.5302 12.7809 28.1262 12.7809C40.7222 12.7809 50.9335 22.3377 50.9335 34.1262Z"
        fill="#FFCC4D" />
    <path
        d="M20.5241 35.6085C22.2736 35.6085 23.6918 34.1484 23.6918 32.3474C23.6918 30.5463 22.2736 29.0863 20.5241 29.0863C18.7747 29.0863 17.3564 30.5463 17.3564 32.3474C17.3564 34.1484 18.7747 35.6085 20.5241 35.6085Z"
        fill="#664500" />
    <path
        d="M35.7287 36.498C37.4782 36.498 38.8964 34.6397 38.8964 32.3475C38.8964 30.0553 37.4782 28.197 35.7287 28.197C33.9793 28.197 32.561 30.0553 32.561 32.3475C32.561 34.6397 33.9793 36.498 35.7287 36.498Z"
        fill="#664500" />
    <path
        d="M14.3178 27.6741C14.6333 27.8828 15.0451 27.9539 15.4392 27.8341C20.7444 26.2273 24.3429 28.4911 24.4937 28.5884C25.0677 28.9583 25.8558 28.8267 26.2549 28.2919C26.6541 27.7571 26.5185 27.0218 25.9496 26.6459C25.7595 26.5202 21.2158 23.5924 14.6599 25.5775C13.9934 25.7791 13.6285 26.4479 13.8452 27.0705C13.9314 27.3242 14.1024 27.5306 14.3178 27.6741ZM36.9959 43.6131H19.2569C18.5574 43.6131 17.9898 43.083 17.9898 42.4272C17.9898 41.7715 18.5574 41.2414 19.2569 41.2414H36.9959C37.6966 41.2414 38.263 41.7715 38.263 42.4272C38.263 43.083 37.6966 43.6131 36.9959 43.6131ZM43.3325 25.1233C42.8663 25.1233 42.4063 24.9324 42.0921 24.5648C40.3245 22.4883 36.6449 20.6669 35.3588 20.6669C34.5454 20.6669 32.9197 21.7472 32.0594 22.5263C31.4309 23.0979 30.4274 23.0801 29.8205 22.4931C29.2123 21.9061 29.2262 20.9693 29.8509 20.3989C30.3463 19.9482 32.9375 17.701 35.3588 17.701C37.8993 17.701 42.3759 20.1392 44.5705 22.716C45.1166 23.3564 45.0025 24.2885 44.3196 24.7984C44.0269 25.0178 43.6772 25.1233 43.3325 25.1233Z"
        fill="#664500" />
</svg>