<svg width="67" height="68" viewBox="0 0 67 68" fill="none" xmlns="http://www.w3.org/2000/svg">
    <path
        d="M33.5001 58.3636C20.778 58.3636 7.05273 50.7364 7.05273 34C7.05273 17.2636 20.778 9.63635 33.5001 9.63635C40.5679 9.63635 47.0886 11.8592 51.9221 15.9125C57.1659 20.3581 59.9475 26.6342 59.9475 34C59.9475 41.3657 57.1659 47.5983 51.9221 52.0439C47.0886 56.0972 40.5223 58.3636 33.5001 58.3636Z"
        fill="url(#paint0_radial_462_768)" />
    <path
        d="M55.3338 19.5341C57.7662 23.2807 59.0348 27.7417 59.0348 32.7038C59.0348 40.0663 56.2511 46.2961 51.003 50.7397C46.1656 54.7913 39.5941 57.0566 32.5663 57.0566C24.3245 57.0566 15.6811 53.8546 10.5791 47.0628C15.4895 54.7564 24.7261 58.3636 33.479 58.3636C40.5068 58.3636 47.0783 56.0982 51.9157 52.0467C57.1638 47.603 59.9475 41.3732 59.9475 34.0107C59.9475 28.4605 58.364 23.529 55.3338 19.5341Z"
        fill="#EB8F00" />
    <path
        d="M33.5001 58.3636C20.778 58.3636 7.05273 50.7364 7.05273 34C7.05273 17.2636 20.778 9.63635 33.5001 9.63635C40.5679 9.63635 47.0886 11.8592 51.9221 15.9125C57.1659 20.3581 59.9475 26.6342 59.9475 34C59.9475 41.3657 57.1659 47.5983 51.9221 52.0439C47.0886 56.0972 40.5223 58.3636 33.5001 58.3636Z"
        fill="url(#paint1_linear_462_768)" />
    <path
        d="M33.4989 50.4337C35.2381 50.4337 36.9637 50.7262 38.6036 51.2891C42.082 52.4814 45.0951 48.6298 43.0758 45.6159C40.9707 42.5001 37.6956 41.6136 33.4989 41.6136C29.3022 41.6136 26.0316 42.4602 23.9265 45.6026C21.9027 48.6209 24.9204 52.4637 28.3988 51.2758C30.0386 50.7129 31.7642 50.4293 33.4989 50.4337Z"
        fill="#422B0D" />
    <path
        d="M13.451 53.0341C9.44442 53.0341 6.34717 49.4476 6.34717 46.3765C6.34717 44.2184 7.39379 41.7152 8.87611 38.2466C9.06081 37.7355 9.30708 37.22 9.55334 36.6521C10.259 35.027 10.8794 33.2665 11.8266 31.7419C11.971 31.5032 12.1819 31.3043 12.4375 31.1659C12.6931 31.0276 12.9841 30.9546 13.2805 30.9546C13.5768 30.9546 13.8678 31.0276 14.1234 31.1659C14.379 31.3043 14.5899 31.5032 14.7344 31.7419C15.6152 33.2403 16.2214 34.861 17.1354 36.7526C19.726 42.0997 20.4505 44.2621 20.4505 46.4202C20.5405 49.465 17.3959 53.0341 13.451 53.0341Z"
        fill="url(#paint2_radial_462_768)" />
    <path
        d="M17.679 49.2144C16.8024 50.4861 14.8105 50.2317 14.8105 48.1504C14.8105 46.8193 15.1043 39.986 16.3434 40.944C18.3536 42.4997 18.9273 47.4425 17.679 49.2144Z"
        fill="#81D4FA" />
    <path
        d="M16.9893 23.5536C15.9835 23.7248 15.9332 25.1296 17.0304 25.1778C19.4536 25.213 21.7944 24.3526 23.5775 22.7766C24.2553 22.2167 24.8288 21.5502 25.2737 20.8056C25.5389 20.4412 25.4475 19.9408 25.0726 19.6818C24.6977 19.4228 24.1719 19.515 23.9021 19.875L23.8564 19.9188C22.0596 21.846 19.641 23.1234 16.9893 23.5536ZM43.8406 19.932L43.7948 19.8881C43.6667 19.7132 43.4715 19.5942 43.2521 19.5572C43.0327 19.5201 42.807 19.5681 42.6244 19.6906C42.534 19.7514 42.4571 19.8289 42.398 19.9184C42.3389 20.0079 42.2989 20.1078 42.2802 20.2123C42.2615 20.3167 42.2645 20.4237 42.289 20.527C42.3136 20.6304 42.3592 20.728 42.4232 20.8144C42.8713 21.5562 43.4474 22.2191 44.1286 22.7766C45.9117 24.3526 48.2525 25.2086 50.6757 25.1691C51.773 25.1208 51.7227 23.716 50.7123 23.5448C48.0605 23.119 45.6419 21.846 43.8406 19.932ZM24.5834 28.018C22.6677 28.018 20.9258 29.572 20.9258 32.1532C20.9258 34.7345 22.6677 36.2841 24.5834 36.2841C26.5036 36.2841 28.2409 34.7301 28.2409 32.1532C28.2409 29.5764 26.5219 28.018 24.5834 28.018Z"
        fill="#422B0D" />
    <path
        d="M24.3106 30.3157C24.0196 30.1726 23.6856 30.1541 23.3814 30.2644C23.0773 30.3747 22.8276 30.6047 22.6868 30.9044C22.4615 31.3921 22.5636 31.9764 22.9419 32.3542C23.5455 32.653 24.2724 32.3894 24.5657 31.7655C24.791 31.2778 24.689 30.6935 24.3106 30.3157Z"
        fill="#896024" />
    <path
        d="M42.3159 27.9091C40.469 27.9091 38.7896 29.4835 38.7896 32.0988C38.7896 34.714 40.469 36.2841 42.3159 36.2841C44.1628 36.2841 45.8422 34.7096 45.8422 32.0988C45.8422 29.488 44.1628 27.9091 42.3159 27.9091Z"
        fill="#422B0D" />
    <path
        d="M41.9425 30.3157C41.6514 30.1726 41.3174 30.1541 41.0133 30.2644C40.7091 30.3747 40.4594 30.6047 40.3187 30.9044C40.0934 31.3921 40.1954 31.9764 40.5737 32.3542C41.1773 32.653 41.9042 32.3894 42.1975 31.7655C42.4228 31.2778 42.3208 30.6935 41.9425 30.3157Z"
        fill="#896024" />
    <defs>
        <radialGradient id="paint0_radial_462_768" cx="0" cy="0" r="1"
            gradientUnits="userSpaceOnUse"
            gradientTransform="translate(33.5001 34) scale(25.9731 24.8256)">
            <stop offset="0.5" stop-color="#FDE030" />
            <stop offset="0.92" stop-color="#F7C02B" />
            <stop offset="1" stop-color="#F4A223" />
        </radialGradient>
        <linearGradient id="paint1_linear_462_768" x1="33.5001" y1="58.3636" x2="33.5001"
            y2="9.63635" gradientUnits="userSpaceOnUse">
            <stop offset="0.39" stop-color="#40C0E7" stop-opacity="0" />
            <stop offset="1" stop-color="#5F7AFF" />
        </linearGradient>
        <radialGradient id="paint2_radial_462_768" cx="0" cy="0" r="1"
            gradientUnits="userSpaceOnUse"
            gradientTransform="translate(13.9577 33.7891) scale(15.8178 22.47)">
            <stop offset="0.46" stop-color="#29B6F6" />
            <stop offset="1" stop-color="#1E88E5" />
        </radialGradient>
    </defs>
</svg>