<svg width="68" height="68" viewBox="0 0 68 68" fill="none" xmlns="http://www.w3.org/2000/svg">
    <path
        d="M33.8799 61.8809C19.8897 61.8809 4.79639 53.1318 4.79639 33.9338C4.79639 14.7357 19.8897 5.98657 33.8799 5.98657C41.6522 5.98657 48.8228 8.53631 54.1381 13.1858C59.9046 18.2853 62.9634 25.4846 62.9634 33.9338C62.9634 42.3829 59.9046 49.5322 54.1381 54.6317C48.8228 59.2812 41.6021 61.8809 33.8799 61.8809Z"
        fill="url(#paint0_radial_462_305)" />
    <path
        d="M57.8979 17.3026C60.5684 21.6039 61.9613 26.7254 61.9613 32.4221C61.9613 40.8747 58.905 48.0268 53.1432 53.1283C47.8323 57.7797 40.6175 60.3805 32.9017 60.3805C23.8531 60.3805 14.3637 56.7044 8.76221 48.9071C14.1533 57.7397 24.294 61.8809 33.9037 61.8809C41.6196 61.8809 48.8343 59.2802 54.1452 54.6288C59.907 49.5272 62.9633 42.3751 62.9633 33.9226C62.9633 27.5507 61.2247 21.889 57.8979 17.3026Z"
        fill="#EB8F00" />
    <path
        d="M37.4868 52.9629C37.2004 52.9629 36.9139 52.9028 36.6526 52.7826C34.8033 51.9663 32.6976 51.9513 30.8433 52.7525C29.8533 53.2483 28.6421 52.8477 28.1446 51.8611C27.6471 50.8746 28.0492 49.6676 29.0392 49.1719C31.9891 47.8397 35.3611 47.8297 38.321 49.1368C39.3311 49.5975 39.7784 50.7844 39.3161 51.791C38.9894 52.5072 38.2758 52.9629 37.4868 52.9629Z"
        fill="#422B0D" />
    <path
        d="M23.4948 26.2183C28.3306 26.2334 32.2427 30.1594 32.2276 34.9876C32.2124 39.8158 28.2802 43.7218 23.4443 43.7066C18.6084 43.6915 14.6963 39.7655 14.7115 34.9372C14.7418 30.1141 18.664 26.2233 23.4948 26.2183Z"
        fill="white" />
    <path
        d="M23.4693 41.6492C27.7586 41.6492 31.2359 38.1949 31.2359 33.9337C31.2359 29.6726 27.7586 26.2183 23.4693 26.2183C19.1799 26.2183 15.7026 29.6726 15.7026 33.9337C15.7026 38.1949 19.1799 41.6492 23.4693 41.6492Z"
        fill="#422B0D" />
    <path
        d="M26.8936 37.7129C27.4451 37.2513 27.5457 36.4657 27.1184 35.9582C26.6911 35.4506 25.8977 35.4133 25.3462 35.8749C24.7947 36.3364 24.6941 37.122 25.1214 37.6296C25.5487 38.1371 26.3421 38.1744 26.8936 37.7129Z"
        fill="white" />
    <path
        d="M23.5761 34.4178C25.5756 32.934 26.2179 30.4203 25.0108 28.8034C23.8036 27.1865 21.2042 27.0785 19.2048 28.5623C17.2053 30.0462 16.563 32.5598 17.7702 34.1768C18.9773 35.7937 21.5767 35.9016 23.5761 34.4178Z"
        fill="white" />
    <path
        d="M45.1123 26.3345C49.9161 26.3495 53.8023 30.2441 53.7872 35.0336C53.7722 39.8231 49.866 43.6977 45.0622 43.6827C40.2584 43.6677 36.3722 39.7731 36.3873 34.9836C36.4173 30.1991 40.3135 26.3395 45.1123 26.3345Z"
        fill="white" />
    <path
        d="M44.9517 41.6492C49.2411 41.6492 52.7183 38.1949 52.7183 33.9337C52.7183 29.6726 49.2411 26.2183 44.9517 26.2183C40.6623 26.2183 37.1851 29.6726 37.1851 33.9337C37.1851 38.1949 40.6623 41.6492 44.9517 41.6492Z"
        fill="#422B0D" />
    <path
        d="M48.4956 37.6823C49.0471 37.2208 49.1478 36.4352 48.7205 35.9277C48.2932 35.4201 47.4997 35.3828 46.9482 35.8444C46.3968 36.3059 46.2961 37.0915 46.7234 37.599C47.1507 38.1066 47.9442 38.1439 48.4956 37.6823Z"
        fill="white" />
    <path
        d="M45.1435 34.4214C47.143 32.9375 47.7853 30.4239 46.5781 28.8069C45.371 27.19 42.7716 27.0821 40.7722 28.5659C38.7727 30.0497 38.1304 32.5634 39.3375 34.1803C40.5447 35.7972 43.1441 35.9052 45.1435 34.4214Z"
        fill="white" />
    <path
        d="M15.868 22.2888C14.7831 22.491 14.7338 24.1093 15.9173 24.1599C18.5308 24.1953 21.0555 23.199 22.9688 21.3785C23.6986 20.7312 24.315 19.9625 24.7933 19.1028C25.0793 18.683 24.9807 18.1065 24.5714 17.8132C24.1621 17.5199 23.6 17.621 23.314 18.0408L23.2647 18.0914C21.3316 20.3064 18.7231 21.7881 15.868 22.2888Z"
        fill="#422B0D" />
    <path
        d="M44.443 18.0408C44.1575 17.621 43.5964 17.5199 43.1879 17.8132C42.7794 18.1066 42.681 18.6831 42.9664 19.1029C43.4439 19.9627 44.0591 20.7315 44.7875 21.3788C46.7071 23.1844 49.2222 24.1807 51.8259 24.1605C53.0563 24.1099 52.9579 22.4915 51.8751 22.2892C48.9908 21.8037 46.3675 20.3016 44.443 18.0408Z"
        fill="#422B0D" />
    <defs>
        <radialGradient id="paint0_radial_462_305" cx="0" cy="0" r="1"
            gradientUnits="userSpaceOnUse"
            gradientTransform="translate(33.8799 33.9338) scale(28.5619 28.477)">
            <stop offset="0.5" stop-color="#F61971" />
            <stop offset="0.92" stop-color="#F61976" />
            <stop offset="1" stop-color="#F61976" />
        </radialGradient>
    </defs>
</svg>