<svg width="67" height="68" viewBox="0 0 67 68" fill="none" xmlns="http://www.w3.org/2000/svg">
    <path
        d="M31.7273 59.1376C19.3269 59.1376 5.94873 51.0326 5.94873 33.2479C5.94873 15.4632 19.3269 7.35815 31.7273 7.35815C38.6164 7.35815 44.9722 9.72019 49.6834 14.0274C54.7947 18.7515 57.5059 25.4208 57.5059 33.2479C57.5059 41.075 54.7947 47.698 49.6834 52.422C44.9722 56.7292 38.572 59.1376 31.7273 59.1376Z"
        fill="url(#paint0_radial_462_18)" />
    <path
        d="M52.9967 17.9884C55.3741 21.9588 56.614 26.6864 56.614 31.9449C56.614 39.7472 53.8932 46.3492 48.7638 51.0583C44.0358 55.3519 37.6129 57.7526 30.7439 57.7526C22.6885 57.7526 14.2406 54.3593 9.25391 47.1617C14.0533 55.3149 23.081 59.1376 31.636 59.1376C38.505 59.1376 44.9279 56.7369 49.6559 52.4433C54.7853 47.7342 57.5061 41.1322 57.5061 33.3299C57.5061 27.4482 55.9584 22.222 52.9967 17.9884Z"
        fill="#EB8F00" />
    <path
        d="M32.0164 48.3184C26.354 48.3184 22.3184 45.2571 21.105 43.3304C20.6472 42.7144 20.5494 41.8807 20.8561 41.1675C21.0917 40.7183 21.5495 40.4404 22.0428 40.445C22.225 40.445 22.4073 40.4774 22.5806 40.5376C25.6474 41.501 28.8341 41.978 32.0387 41.9595C35.2254 41.978 38.3989 41.4963 41.4523 40.5376C41.6256 40.4774 41.8079 40.4496 41.9901 40.445C42.4834 40.4404 42.9412 40.7183 43.1768 41.1675C43.4835 41.8807 43.3857 42.7144 42.9279 43.3304C41.7145 45.2571 37.6833 48.3184 32.0164 48.3184Z"
        fill="#422B0D" />
    <path
        d="M46.799 32.8311L46.7101 32.7014C46.6301 32.581 46.5457 32.4652 46.4523 32.354C46.1323 31.9789 45.7723 31.6408 45.3768 31.3536C44.8434 30.9646 44.2656 30.645 43.6567 30.4042C43.3234 30.2699 42.9811 30.1541 42.6344 30.0615C42.4611 30.0152 42.27 29.9735 42.0744 29.9318L41.8078 29.8809L42.07 29.7373L42.8478 29.3112C43.35 29.0426 43.8256 28.811 44.2256 28.6211C44.6256 28.4312 44.9545 28.2969 45.1767 28.2089L45.5145 28.0839L45.6123 28.0422C46.239 27.7736 46.5323 27.0233 46.2746 26.3702C46.0968 25.9256 45.6968 25.6246 45.239 25.5875C45.0567 25.5783 44.8701 25.5783 44.6878 25.5875C44.2389 25.6292 43.79 25.7126 43.3545 25.8283C42.7589 25.9858 42.1767 26.185 41.6078 26.4258C41.3055 26.5647 40.9855 26.6944 40.6788 26.8612C40.3722 27.0279 40.0388 27.2039 39.7633 27.3567C39.4877 27.5096 39.1543 27.7365 38.8743 27.9357C38.5943 28.1348 38.3099 28.3432 38.0432 28.547C37.5498 28.9268 37.0832 29.3436 36.652 29.7975C36.3276 30.131 36.0342 30.4922 35.7631 30.8766C35.6831 30.9878 35.6076 31.1082 35.5409 31.2286C35.5053 31.3027 35.4831 31.3398 35.4831 31.3398C35.3187 31.7566 35.3053 32.2197 35.4476 32.6458C35.6965 33.2989 36.4076 33.6184 37.0343 33.3591C37.0387 33.3591 37.0432 33.3544 37.0476 33.3544L37.1543 33.3127L37.2387 33.2942L37.3454 33.2664C37.421 33.2664 37.5587 33.2109 37.701 33.1784C37.8432 33.146 38.0165 33.1136 38.2032 33.0812C38.6432 33.0163 39.0921 32.9793 39.5366 32.9793C40.061 32.9793 40.5899 33.0163 41.11 33.0951C41.2033 33.0951 41.4389 33.1414 41.5544 33.1645C41.67 33.1877 41.7944 33.2062 41.9278 33.2386C42.1855 33.3035 42.4389 33.3591 42.6789 33.4332C43.1056 33.5582 43.5234 33.711 43.9323 33.8963C44.1989 34.026 44.4612 34.1696 44.7145 34.3317C44.8923 34.4428 44.9812 34.5123 44.9812 34.5123L45.1056 34.6095C45.639 35.031 46.4035 34.9199 46.8035 34.3595C47.1324 33.9056 47.1279 33.2803 46.799 32.8311Z"
        fill="#422B0D" />
    <path
        d="M23.314 25.8562C21.4517 25.8562 19.7583 27.4957 19.7583 30.219C19.7583 32.9423 21.4517 34.5772 23.314 34.5772C25.1762 34.5772 26.8696 32.9377 26.8696 30.219C26.8696 27.5004 25.1762 25.8562 23.314 25.8562Z"
        fill="#422B0D" />
    <path
        d="M16.7225 24.865C16.3358 24.8696 15.9758 24.6751 15.7491 24.3509C15.5358 24.0174 15.4958 23.5913 15.6469 23.2208C16.5536 20.8495 18.3048 18.9321 20.5359 17.8761C21.3582 17.4778 22.2338 17.2092 23.136 17.0842C23.1938 17.0795 23.2516 17.0795 23.3094 17.0842C23.8694 17.061 24.3538 17.4825 24.4338 18.0614C24.5138 18.6774 24.1627 19.2609 23.5938 19.4508L23.4294 19.1266L23.5405 19.4694C21.1537 20.3401 19.1181 22.0259 17.7625 24.249C17.5492 24.6288 17.1581 24.8603 16.7358 24.8603L16.7225 24.865Z"
        fill="#422B0D" />
    <path
        d="M23.1148 27.7193C22.5491 27.4055 21.8679 27.6824 21.593 28.3378C21.3818 28.8502 21.4774 29.464 21.832 29.861C22.3977 30.1749 23.079 29.8979 23.3539 29.2425C23.565 28.7301 23.4694 28.1163 23.1148 27.7193Z"
        fill="#896024" />
    <defs>
        <radialGradient id="paint0_radial_462_18" cx="0" cy="0" r="1" gradientUnits="userSpaceOnUse"
            gradientTransform="translate(31.7273 33.2479) scale(25.3162 26.3805)">
            <stop offset="0.5" stop-color="#F61971" />
            <stop offset="0.92" stop-color="#F61976" />
            <stop offset="1" stop-color="#F61976" />
        </radialGradient>
    </defs>
</svg>