<svg width="67" height="68" viewBox="0 0 67 68" fill="none" xmlns="http://www.w3.org/2000/svg">
    <path
        d="M58.6646 33.9789C58.6646 47.8641 47.4108 59.1196 33.5224 59.1196C19.6339 59.1196 8.38086 47.8649 8.38086 33.9789C8.38086 20.0929 19.6347 8.8374 33.5231 8.8374C47.4116 8.8374 58.6646 20.0937 58.6646 33.9789Z"
        fill="#FBBF67" />
    <path
        d="M30.022 25.5985C30.022 29.6519 27.7592 32.9309 24.9641 32.9309C22.1697 32.9309 19.9038 29.6512 19.9038 25.5985C19.9038 21.548 22.1697 18.2653 24.9641 18.2653C27.7592 18.2653 30.022 21.548 30.022 25.5985ZM47.1409 25.5985C47.1409 29.6519 44.8781 32.9309 42.083 32.9309C39.2886 32.9309 37.0227 29.6512 37.0227 25.5985C37.0227 21.548 39.2886 18.2653 42.083 18.2653C44.8781 18.2653 47.1409 21.548 47.1409 25.5985Z"
        fill="white" />
    <path
        d="M24.9303 29.5324C26.7566 29.5324 28.2372 27.7392 28.2372 25.5272C28.2372 23.3152 26.7566 21.522 24.9303 21.522C23.104 21.522 21.6235 23.3152 21.6235 25.5272C21.6235 27.7392 23.104 29.5324 24.9303 29.5324Z"
        fill="#25333A" />
    <path
        d="M42.2272 29.5324C44.0535 29.5324 45.534 27.7392 45.534 25.5272C45.534 23.3152 44.0535 21.522 42.2272 21.522C40.4009 21.522 38.9204 23.3152 38.9204 25.5272C38.9204 27.7392 40.4009 29.5324 42.2272 29.5324Z"
        fill="#25333A" />
    <path
        d="M34.0463 53.8819C38.3855 53.8819 41.9031 50.3644 41.9031 46.0253C41.9031 41.6862 38.3855 38.1687 34.0463 38.1687C29.7071 38.1687 26.1895 41.6862 26.1895 46.0253C26.1895 50.3644 29.7071 53.8819 34.0463 53.8819Z"
        fill="#633D19" />
</svg>