<svg width="67" height="68" viewBox="0 0 67 68" fill="none" xmlns="http://www.w3.org/2000/svg">
    <path
        d="M30.4096 58.1434C18.8758 58.1434 6.43262 50.4977 6.43262 33.7208C6.43262 16.9439 18.8758 9.29822 30.4096 9.29822C36.8172 9.29822 42.7287 11.5264 47.1107 15.5895C51.8648 20.0459 54.3865 26.3372 54.3865 33.7208C54.3865 41.1044 51.8648 47.352 47.1107 51.8084C42.7287 55.8716 36.7758 58.1434 30.4096 58.1434Z"
        fill="url(#paint0_radial_462_1011)" />
    <path
        d="M50.2059 19.3099C52.4101 23.0569 53.5598 27.5184 53.5598 32.481C53.5598 39.8442 51.0371 46.0747 46.2814 50.5187C41.8978 54.5707 35.9427 56.8363 29.5741 56.8363C22.1054 56.8363 14.2729 53.634 9.64941 46.8415C14.0992 54.5358 22.4694 58.1434 30.4012 58.1434C36.7698 58.1434 42.7249 55.8778 47.1085 51.8258C51.8642 47.3817 54.3869 41.1513 54.3869 33.7881C54.3869 28.2373 52.9519 23.3053 50.2059 19.3099Z"
        fill="#EB8F00" />
    <path
        d="M30.5298 42.0656C26.1933 42.0656 23.0887 44.8136 22.1668 46.3384C21.8154 46.8321 21.7452 47.4831 21.9767 48.0467C22.1544 48.4049 22.5058 48.6278 22.8861 48.619C23.0267 48.6146 23.1672 48.5928 23.2995 48.5491C25.4823 47.8108 27.3921 46.7404 30.5298 46.7404C33.6675 46.7404 35.5774 47.8108 37.7601 48.5491C37.8924 48.5972 38.0329 48.619 38.1735 48.619C38.5538 48.6278 38.9052 48.4049 39.083 48.0467C39.3145 47.4831 39.2442 46.8321 38.8928 46.3384C37.9585 44.8136 34.8622 42.0656 30.5298 42.0656Z"
        fill="#422B0D" />
    <path
        d="M24.0272 30.6231C21.5261 29.9328 18.8845 30.0377 16.4372 30.9246C15.999 31.1037 15.7799 31.6193 15.9494 32.0824C16.1065 32.5149 16.5447 32.7465 16.9664 32.6241C17.9461 32.4232 18.9465 32.3664 19.9428 32.4494V32.6198C19.9428 34.7562 21.2533 36.0494 22.7002 36.0494C23.4402 36.0407 24.1471 35.7174 24.6597 35.1494C25.5195 34.1839 25.6973 32.7421 25.0937 31.5799C24.8664 31.1299 24.486 30.7848 24.0272 30.6231Z"
        fill="#422B0D" />
    <path
        d="M43.8041 30.6231C41.303 29.9328 38.6614 30.0377 36.2141 30.9246C35.7718 31.0906 35.5362 31.6018 35.6933 32.0693C35.8504 32.5368 36.334 32.7858 36.7764 32.6198C37.7561 32.4188 38.7565 32.362 39.7487 32.445V32.6154C39.7487 34.7518 41.0633 36.045 42.506 36.045C43.2501 36.0363 43.957 35.713 44.4697 35.145C45.3171 34.1795 45.4825 32.7465 44.883 31.5931C44.6557 31.1387 44.2671 30.7892 43.8041 30.6231Z"
        fill="#422B0D" />
    <path
        d="M40.3643 25.4634C39.9468 25.4722 39.6036 25.1183 39.5954 24.677C39.5871 24.2357 39.9219 23.8731 40.3395 23.8644C41.1415 23.7726 41.9559 23.825 42.7413 24.0173C44.8827 24.476 46.7843 25.7736 48.0576 27.6479C48.6281 28.5566 47.5119 29.3081 46.8422 28.6309C45.0935 26.8134 42.8074 25.695 40.3643 25.4634Z"
        fill="#422B0D" />
    <path
        d="M19.7773 25.4634C20.1948 25.4722 20.538 25.1183 20.5462 24.677C20.5545 24.2357 20.2196 23.8731 19.8021 23.8644C19.0001 23.7726 18.1857 23.825 17.4003 24.0173C15.2589 24.476 13.3573 25.7736 12.084 27.6479C11.5094 28.5566 12.6297 29.3081 13.2994 28.6309C15.0481 26.8134 17.3341 25.695 19.7773 25.4634Z"
        fill="#422B0D" />
    <path
        d="M22.8765 32.1666C23.4604 31.8889 24.1636 32.1339 24.4473 32.7138C24.6653 33.1671 24.5666 33.7102 24.2006 34.0614C23.6167 34.3391 22.9135 34.0941 22.6297 33.5142C22.4118 33.0609 22.5105 32.5178 22.8765 32.1666Z"
        fill="#896024" />
    <path
        d="M42.4662 32.1635C43.0571 31.889 43.7595 32.1389 44.0404 32.7248C44.2553 33.1795 44.1561 33.7162 43.7925 34.0644C43.2017 34.3389 42.4993 34.089 42.2183 33.5032C42.0034 33.0525 42.1026 32.5117 42.4662 32.1635Z"
        fill="#896024" />
    <defs>
        <radialGradient id="paint0_radial_462_1011" cx="0" cy="0" r="1"
            gradientUnits="userSpaceOnUse"
            gradientTransform="translate(30.4096 33.7208) scale(23.5469 24.8856)">
            <stop offset="0.5" stop-color="#F61971" />
            <stop offset="0.92" stop-color="#F61976" />
            <stop offset="1" stop-color="#F61976" />
        </radialGradient>
    </defs>
</svg>