<svg width="67" height="68" viewBox="0 0 67 68" fill="none" xmlns="http://www.w3.org/2000/svg">
    <path
        d="M33.6261 58.9804C48.483 58.9804 60.527 47.8528 60.527 34.1262C60.527 20.3997 48.483 9.27209 33.6261 9.27209C18.7691 9.27209 6.7251 20.3997 6.7251 34.1262C6.7251 47.8528 18.7691 58.9804 33.6261 58.9804Z"
        fill="#FFCC4D" />
    <path
        d="M43.2756 35.5882C47.7973 35.5882 51.4629 32.1845 51.4629 27.9857C51.4629 23.787 47.7973 20.3833 43.2756 20.3833C38.7539 20.3833 35.0884 23.787 35.0884 27.9857C35.0884 32.1845 38.7539 35.5882 43.2756 35.5882Z"
        fill="#F4F7F9" />
    <path
        d="M23.9768 35.5882C28.4985 35.5882 32.164 32.1845 32.164 27.9857C32.164 23.787 28.4985 20.3833 23.9768 20.3833C19.4551 20.3833 15.7896 23.787 15.7896 27.9857C15.7896 32.1845 19.4551 35.5882 23.9768 35.5882Z"
        fill="#F4F7F9" />
    <path
        d="M41.2942 41.6201C37.1649 40.6995 28.0336 41.5373 24.6126 47.7002C24.4901 47.9183 24.5529 48.1875 24.7621 48.3407C24.8637 48.4166 24.9878 48.4539 25.1118 48.4539C25.2388 48.4539 25.3674 48.4138 25.472 48.3338C30.081 44.7727 36.5851 44.7727 40.4708 44.7727C42.9143 44.7727 44.2608 44.7727 44.2608 43.7955C44.2608 42.8182 43.2072 42.0453 41.2942 41.6201ZM22.4501 27.2322C24.514 27.2322 26.1864 25.6877 26.1864 23.7815C26.1864 22.0534 24.8069 20.6345 23.012 20.3833C21.8314 20.5061 20.7314 20.8636 19.757 21.3992C19.1144 22.0189 18.7139 22.8554 18.7139 23.7815C18.7139 25.6877 20.3862 27.2322 22.4501 27.2322ZM41.8786 27.2322C43.9425 27.2322 45.6148 25.6877 45.6148 23.7815C45.6148 22.0534 44.2354 20.6345 42.4405 20.3833C41.2613 20.5061 40.1599 20.8636 39.187 21.3992C38.5429 22.0189 38.1423 22.8554 38.1423 23.7815C38.1423 25.6877 39.8147 27.2322 41.8786 27.2322Z"
        fill="#65471B" />
</svg>