<svg width="67" height="68" viewBox="0 0 67 68" fill="none" xmlns="http://www.w3.org/2000/svg">
    <path
        d="M33.5002 39.6327C24.4451 39.6327 17.0786 33.6482 17.0786 26.292C17.0786 18.9358 24.4451 12.9513 33.5002 12.9513C42.5552 12.9513 49.9218 18.9358 49.9218 26.292C49.9218 33.6482 42.5552 39.6327 33.5002 39.6327ZM33.5002 17.6598C27.6406 17.6598 22.8745 21.5333 22.8745 26.292C22.8745 31.0507 27.6406 34.9242 33.5002 34.9242C39.3598 34.9242 44.1259 31.0507 44.1259 26.292C44.1259 21.5333 39.3598 17.6598 33.5002 17.6598Z"
        fill="white" />
    <path
        d="M33.5 54.4558C32.8032 54.4558 32.1349 54.1981 31.6421 53.7394C31.1494 53.2807 30.8726 52.6586 30.8726 52.01V37.3352C30.8726 36.6865 31.1494 36.0644 31.6421 35.6058C32.1349 35.1471 32.8032 34.8894 33.5 34.8894C34.1969 34.8894 34.8652 35.1471 35.3579 35.6058C35.8506 36.0644 36.1275 36.6865 36.1275 37.3352V52.01C36.1275 52.6586 35.8506 53.2807 35.3579 53.7394C34.8652 54.1981 34.1969 54.4558 33.5 54.4558Z"
        fill="white" />
    <path
        d="M43.5462 47.9336H23.4539C22.6341 47.9336 21.8479 47.715 21.2682 47.3258C20.6885 46.9366 20.3628 46.4088 20.3628 45.8584C20.3628 45.308 20.6885 44.7802 21.2682 44.391C21.8479 44.0018 22.6341 43.7832 23.4539 43.7832H43.5462C44.366 43.7832 45.1522 44.0018 45.7319 44.391C46.3116 44.7802 46.6373 45.308 46.6373 45.8584C46.6373 46.4088 46.3116 46.9366 45.7319 47.3258C45.1522 47.715 44.366 47.9336 43.5462 47.9336Z"
        fill="white" />
</svg>