<svg width="68" height="68" viewBox="0 0 68 68" fill="none" xmlns="http://www.w3.org/2000/svg">
    <path
        d="M34.2724 60.8739C20.6992 60.8739 6.05566 52.4208 6.05566 33.8725C6.05566 15.3241 20.6992 6.87109 34.2724 6.87109C41.8131 6.87109 48.77 9.33455 53.9269 13.8267C59.5216 18.7536 62.4892 25.7093 62.4892 33.8725C62.4892 42.0357 59.5216 48.943 53.9269 53.8699C48.77 58.3621 41.7645 60.8739 34.2724 60.8739Z"
        fill="url(#paint0_radial_462_498)" />
    <path
        d="M57.5705 17.793C60.1636 21.9498 61.5162 26.8993 61.5162 32.4046C61.5162 40.5732 58.5484 47.4851 52.9533 52.4152C47.7962 56.9104 40.7902 59.4238 33.2977 59.4238C24.5111 59.4238 15.2963 55.8712 9.85693 48.3358C15.0919 56.8717 24.9392 60.8738 34.2708 60.8738C41.7633 60.8738 48.7692 58.3604 53.9264 53.8653C59.5214 48.9351 62.4892 42.0232 62.4892 33.8546C62.4892 27.6968 60.801 22.2253 57.5705 17.793Z"
        fill="#EB8F00" />
    <path
        d="M18.5052 30.5637L24.4308 29.4238L18.3252 26.9072L18.1209 26.7961C17.1236 26.2744 16.7441 25.0524 17.2695 24.0622C17.396 23.8255 17.5663 23.6178 17.7706 23.4487C18.7436 22.7097 20.0766 22.6517 21.1129 23.3038L31.4655 29.5832C31.7282 29.6363 31.8985 29.8923 31.845 30.1532C31.7963 30.3802 31.592 30.5444 31.3585 30.5396L20.2128 34.6888C20.135 34.7178 20.0572 34.7468 19.9793 34.7661C18.5198 35.1718 16.8998 34.3362 16.6711 32.9402C16.5009 31.8776 17.3279 30.8874 18.5052 30.5637Z"
        fill="#422B0D" />
    <path
        d="M49.4562 30.443L43.5307 29.3031L49.6362 26.7865L49.8405 26.6754C50.8378 26.1537 51.2173 24.9316 50.6919 23.9414C50.5654 23.7047 50.3951 23.497 50.1908 23.328C49.2178 22.5889 47.8848 22.531 46.8486 23.1831L36.4959 29.4625C36.243 29.5542 36.1165 29.8344 36.2089 30.0807C36.2722 30.2498 36.423 30.3706 36.603 30.3947L47.7486 34.5488C47.8264 34.5777 47.9043 34.6067 47.9821 34.6261C49.4416 35.0318 51.0616 34.1962 51.2903 32.8002C51.4606 31.7569 50.6335 30.7666 49.4562 30.443Z"
        fill="#422B0D" />
    <path
        d="M52.9881 38.0846C52.307 36.8625 50.828 36.3263 49.5145 36.819C44.523 38.2633 39.3467 38.983 34.1461 38.9589C28.9454 38.983 23.7691 38.2633 18.7777 36.819C17.469 36.3263 15.9901 36.8577 15.309 38.0749C14.6473 39.2873 15.1241 40.6929 15.6836 41.9053C18.8069 48.7161 25.6908 52.7928 34.1072 52.817H34.185C42.6014 52.817 49.4853 48.7161 52.6135 41.9053C53.1681 40.6833 53.6497 39.297 52.9881 38.0846Z"
        fill="#422B0D" />
    <path
        d="M41.9751 50.9805C41.7938 50.8134 41.6075 50.6611 41.4212 50.4891C39.4212 48.7248 36.8329 47.7764 34.1662 47.8304C31.4211 47.7862 28.7495 48.7003 26.6073 50.4203C26.421 50.5726 26.2249 50.72 26.0435 50.9117C25.8622 51.1034 25.7641 51.241 25.6465 51.4031C28.3426 52.4597 31.2152 53.0003 34.1123 52.9855H34.1907C36.9653 52.9855 39.7153 52.4892 42.3134 51.5112C42.2153 51.3245 42.1026 51.1476 41.9751 50.9805Z"
        fill="#ED7770" />
    <path
        d="M49.6484 36.7904C44.6426 38.2548 39.4514 38.9845 34.2358 38.96C29.0202 38.9845 23.829 38.2548 18.8232 36.7904C17.5108 36.2909 16.0276 36.8296 15.3445 38.0638C15.247 38.2499 15.1689 38.4458 15.1201 38.6466C15.2811 38.7298 15.4665 38.8131 15.6861 38.9012C21.5603 41.8544 28.0542 43.353 34.6213 43.2746C40.92 43.3481 47.1455 41.9719 52.8344 39.2587C53.0637 39.1608 53.254 39.0677 53.4247 38.9796C53.3857 38.6612 53.2833 38.3478 53.132 38.0638C52.449 36.8296 50.9658 36.286 49.6484 36.7904Z"
        fill="white" />
    <path
        d="M53.1045 38.0764C52.4144 36.8373 50.9319 36.2888 49.6099 36.7884C44.6232 38.2527 39.4517 38.9824 34.2608 38.9579C29.0651 38.9824 23.8937 38.2527 18.9069 36.7884C17.5995 36.2888 16.1219 36.8275 15.4415 38.0617C14.7805 39.2909 15.2568 40.716 15.8157 41.9452C16.0636 42.4986 16.3406 43.0422 16.6468 43.5662C16.6468 43.5662 15.6262 39.7561 16.5107 38.6493C16.8121 38.1792 17.3176 37.8854 17.8717 37.856C18.1001 37.856 18.3237 37.8952 18.5424 37.9637C23.6166 39.4672 28.8804 40.2263 34.1734 40.2165H34.3435C39.6364 40.2263 44.9002 39.4672 49.9744 37.9637C50.1932 37.8952 50.4167 37.856 50.6452 37.856C51.1993 37.8854 51.7096 38.1792 52.0109 38.6493C52.9101 39.7561 51.8749 43.5809 51.8749 43.5809C52.1762 43.0569 52.4775 42.5182 52.7303 41.9599C53.2844 40.7307 53.7655 39.3105 53.1045 38.0764Z"
        fill="#EB8F00" />
    <defs>
        <radialGradient id="paint0_radial_462_498" cx="0" cy="0" r="1"
            gradientUnits="userSpaceOnUse"
            gradientTransform="translate(34.2724 33.8725) scale(27.7107 27.5133)">
            <stop offset="0.5" stop-color="#F61971" />
            <stop offset="0.92" stop-color="#F61976" />
            <stop offset="1" stop-color="#F61976" />
        </radialGradient>
    </defs>
</svg>