<svg width="70" height="69" viewBox="0 0 70 69" fill="none" xmlns="http://www.w3.org/2000/svg">
    <g filter="url(#filter0_d_462_340)">
        <path
            d="M33.8969 58.006C48.8642 58.006 60.9975 46.6125 60.9975 32.5579C60.9975 18.5034 48.8642 7.10986 33.8969 7.10986C18.9297 7.10986 6.79639 18.5034 6.79639 32.5579C6.79639 46.6125 18.9297 58.006 33.8969 58.006Z"
            fill="black" />
    </g>
    <path
        d="M33.8969 58.006C48.8642 58.006 60.9975 46.6125 60.9975 32.5579C60.9975 18.5034 48.8642 7.10986 33.8969 7.10986C18.9297 7.10986 6.79639 18.5034 6.79639 32.5579C6.79639 46.6125 18.9297 58.006 33.8969 58.006Z"
        fill="#01A64F" />
    <path
        d="M33.8969 58.006C48.8642 58.006 60.9975 46.6125 60.9975 32.5579C60.9975 18.5034 48.8642 7.10986 33.8969 7.10986C18.9297 7.10986 6.79639 18.5034 6.79639 32.5579C6.79639 46.6125 18.9297 58.006 33.8969 58.006Z"
        fill="url(#paint0_linear_462_340)" />
    <path
        d="M33.8969 57.1577C48.3652 57.1577 60.0941 46.144 60.0941 32.5579C60.0941 18.9718 48.3652 7.95813 33.8969 7.95813C19.4286 7.95813 7.69971 18.9718 7.69971 32.5579C7.69971 46.144 19.4286 57.1577 33.8969 57.1577Z"
        stroke="black" stroke-opacity="0.097" stroke-width="6.75755" />
    <g filter="url(#filter1_d_462_340)">
        <path
            d="M42.3215 18.972C44.5185 21.1775 45.6405 23.9463 45.6405 27.1833C45.6405 30.4695 44.5185 33.2399 42.3197 35.4454C40.5618 37.181 38.4624 38.2125 36.0216 38.5891V40.513H41.0008V42.6252H35.971V43.75H41.0008V45.7214H36.0216V49.5233H31.7722V45.7231H26.8399V43.75H31.821V42.6252H26.8417V40.513H31.774V38.5416C29.3801 38.1667 27.2807 37.1335 25.5228 35.3979C23.2771 33.1924 22.1533 30.422 22.1533 27.1375C22.1533 23.8055 23.2283 21.0367 25.474 18.877C27.718 16.6715 30.5039 15.5925 33.9222 15.5925C37.2917 15.5925 40.074 16.6715 42.3215 18.972V18.972ZM37.7307 31.5027C38.6576 30.3762 39.1472 28.9205 39.1472 27.1375C39.1472 25.4019 38.6594 23.948 37.6332 22.8198C36.6575 21.6475 35.3874 21.0842 33.9222 21.0842C32.4082 21.0842 31.1399 21.6475 30.1624 22.774C29.1832 23.8988 28.6954 25.3069 28.6954 27.0917C28.6954 28.9205 29.185 30.3762 30.1624 31.5027C31.1381 32.6292 32.4082 33.1907 33.9204 33.1907C35.485 33.1907 36.8021 32.6275 37.7307 31.5027Z"
            fill="black" />
    </g>
    <path
        d="M42.3215 18.972C44.5185 21.1775 45.6405 23.9463 45.6405 27.1833C45.6405 30.4695 44.5185 33.2399 42.3197 35.4454C40.5618 37.181 38.4624 38.2125 36.0216 38.5891V40.513H41.0008V42.6252H35.971V43.75H41.0008V45.7214H36.0216V49.5233H31.7722V45.7231H26.8399V43.75H31.821V42.6252H26.8417V40.513H31.774V38.5416C29.3801 38.1667 27.2807 37.1335 25.5228 35.3979C23.2771 33.1924 22.1533 30.422 22.1533 27.1375C22.1533 23.8055 23.2283 21.0367 25.474 18.877C27.718 16.6715 30.5039 15.5925 33.9222 15.5925C37.2917 15.5925 40.074 16.6715 42.3215 18.972V18.972ZM37.7307 31.5027C38.6576 30.3762 39.1472 28.9205 39.1472 27.1375C39.1472 25.4019 38.6594 23.948 37.6332 22.8198C36.6575 21.6475 35.3874 21.0842 33.9222 21.0842C32.4082 21.0842 31.1399 21.6475 30.1624 22.774C29.1832 23.8988 28.6954 25.3069 28.6954 27.0917C28.6954 28.9205 29.185 30.3762 30.1624 31.5027C31.1381 32.6292 32.4082 33.1907 33.9204 33.1907C35.485 33.1907 36.8021 32.6275 37.7307 31.5027Z"
        fill="white" />
    <defs>
        <filter id="filter0_d_462_340" x="0.038836" y="3.73109" width="67.7163" height="64.4112"
            filterUnits="userSpaceOnUse" color-interpolation-filters="sRGB">
            <feFlood flood-opacity="0" result="BackgroundImageFix" />
            <feColorMatrix in="SourceAlpha" type="matrix"
                values="0 0 0 0 0 0 0 0 0 0 0 0 0 0 0 0 0 0 127 0" result="hardAlpha" />
            <feOffset dy="3.37878" />
            <feGaussianBlur stdDeviation="3.37878" />
            <feComposite in2="hardAlpha" operator="out" />
            <feColorMatrix type="matrix" values="0 0 0 0 0 0 0 0 0 0 0 0 0 0 0 0 0 0 0.199474 0" />
            <feBlend mode="normal" in2="BackgroundImageFix" result="effect1_dropShadow_462_340" />
            <feBlend mode="normal" in="SourceGraphic" in2="effect1_dropShadow_462_340"
                result="shape" />
        </filter>
        <filter id="filter1_d_462_340" x="15.3958" y="12.2138" width="37.0024" height="47.4459"
            filterUnits="userSpaceOnUse" color-interpolation-filters="sRGB">
            <feFlood flood-opacity="0" result="BackgroundImageFix" />
            <feColorMatrix in="SourceAlpha" type="matrix"
                values="0 0 0 0 0 0 0 0 0 0 0 0 0 0 0 0 0 0 127 0" result="hardAlpha" />
            <feOffset dy="3.37878" />
            <feGaussianBlur stdDeviation="3.37878" />
            <feColorMatrix type="matrix" values="0 0 0 0 0 0 0 0 0 0 0 0 0 0 0 0 0 0 0.204257 0" />
            <feBlend mode="normal" in2="BackgroundImageFix" result="effect1_dropShadow_462_340" />
            <feBlend mode="normal" in="SourceGraphic" in2="effect1_dropShadow_462_340"
                result="shape" />
        </filter>
        <linearGradient id="paint0_linear_462_340" x1="2716.85" y1="7.10986" x2="2716.85"
            y2="5096.73" gradientUnits="userSpaceOnUse">
            <stop stop-color="white" stop-opacity="0.5" />
            <stop offset="1" stop-opacity="0.5" />
        </linearGradient>
    </defs>
</svg>