<svg width="68" height="68" viewBox="0 0 68 68" fill="none" xmlns="http://www.w3.org/2000/svg">
    <path
        d="M29.5 52.5C22.3316 52.5 16.5 46.6684 16.5 39.5C16.5 32.3316 22.3316 26.5 29.5 26.5C36.6684 26.5 42.5 32.3316 42.5 39.5C42.5 46.6684 36.6684 52.5 29.5 52.5ZM29.5 31.0882C24.8628 31.0882 21.0882 34.8628 21.0882 39.5C21.0882 44.1372 24.8628 47.9118 29.5 47.9118C34.1372 47.9118 37.9118 44.1372 37.9118 39.5C37.9118 34.8628 34.1372 31.0882 29.5 31.0882Z"
        fill="white" />
    <path
        d="M51.1487 15.5H37.0896C36.466 15.5 35.8679 15.7502 35.4269 16.1956C34.986 16.641 34.7383 17.2451 34.7383 17.875C34.7383 18.5049 34.986 19.109 35.4269 19.5544C35.8679 19.9998 36.466 20.25 37.0896 20.25H45.4727L34.5 31.1418L37.8247 34.5L48.7974 23.6083V32.125C48.7974 32.7549 49.0451 33.359 49.4861 33.8044C49.927 34.2498 50.5251 34.5 51.1487 34.5C51.7723 34.5 52.3704 34.2498 52.8113 33.8044C53.2523 33.359 53.5 32.7549 53.5 32.125V17.875C53.5 17.2451 53.2523 16.641 52.8113 16.1956C52.3704 15.7502 51.7723 15.5 51.1487 15.5Z"
        fill="white" />
</svg>