<svg xmlns="http://www.w3.org/2000/svg" width="67" height="68" viewBox="0 0 67 68" fill="none">
    <path
        d="M30.0977 54.4141C19.6483 54.4141 8.375 48.0233 8.375 34C8.375 19.9767 19.6483 13.5859 30.0977 13.5859C35.9028 13.5859 41.2586 15.4484 45.2286 18.8447C49.5357 22.5696 51.8203 27.8283 51.8203 34C51.8203 40.1717 49.5357 45.3939 45.2286 49.1188C41.2586 52.5151 35.8654 54.4141 30.0977 54.4141Z"
        fill="url(#paint0_radial_462_897)" />
    <path
        d="M44.2474 37.1488C43.7525 36.2637 42.7069 35.8788 41.5906 36.2134C38.2566 37.2207 33.9738 37.8036 29.8361 37.8072C25.6984 37.8036 21.4156 37.2207 18.0816 36.2134C16.969 35.8788 15.9197 36.2637 15.4248 37.1488C14.9188 38.0554 15.2872 39.0988 15.7113 40.0054C18.1002 45.0783 23.3653 48.1148 29.8026 48.1328H29.8621C36.2994 48.1148 41.5645 45.0783 43.9534 40.0054C44.385 39.0988 44.7534 38.0518 44.2474 37.1488Z"
        fill="#35220B" />
    <path
        d="M35.877 46.7208C35.7403 46.6008 35.5999 46.4914 35.4595 46.3784C33.9261 45.1536 32.2487 44.4688 29.9911 44.4688C27.741 44.4688 25.8677 45.1041 24.2789 46.3114C24.1348 46.4208 23.9907 46.5267 23.8503 46.6432C23.7357 46.7667 23.6397 46.8832 23.5547 46.9962C25.4797 47.7269 27.6301 48.1258 29.9357 48.1328H29.9948C32.1969 48.1258 34.2587 47.7622 36.1172 47.0915C36.0507 46.9715 35.9731 46.8514 35.877 46.7208Z"
        fill="#ED7770" />
    <path
        d="M41.6057 36.2234C38.26 37.3022 33.9621 37.9263 29.8098 37.9301C25.6575 37.9263 21.3596 37.3022 18.0139 36.2234C16.8974 35.8651 15.8444 36.2774 15.3477 37.2251C15.2693 37.3754 15.217 37.5295 15.1797 37.6874C15.3029 37.7529 15.4448 37.8184 15.6128 37.8878C20.1311 40.2648 25.0078 41.3281 30.1011 41.3281C34.989 41.3281 39.6752 40.3457 44.0404 38.1651C44.2159 38.0881 44.3615 38.0149 44.4922 37.9455C44.4586 37.699 44.3914 37.4601 44.2681 37.2251C43.7752 36.2774 42.726 35.8613 41.6057 36.2234Z"
        fill="white" />
    <path
        d="M29.4816 38.5204C32.5552 38.5714 35.057 38.1191 38.0967 37.5573C38.8566 37.415 39.6128 37.2509 40.3615 37.0575L40.922 36.908C41.0913 36.8642 41.2192 36.835 41.3697 36.8241C41.6556 36.7985 41.934 36.8386 42.1748 36.9371C42.6525 37.1305 43.3335 37.7142 43.5028 38.1811C43.9504 39.4214 43.2244 41.5883 43.4049 41.2271C43.4125 41.2162 43.8677 40.472 43.8714 40.4611C44.1762 39.7497 44.5749 38.9435 44.4771 37.9695C44.3755 36.9882 43.6119 36.0872 42.6601 35.7479C42.2012 35.5836 41.7074 35.5322 41.223 35.5983C40.9935 35.6239 40.7489 35.6895 40.5571 35.7516L40.0266 35.9194C39.3156 36.1309 38.5933 36.3206 37.8635 36.4884C34.9441 37.1487 32.5364 37.4953 29.5193 37.5682H29.429C26.4118 37.4989 24.1508 37.1487 21.2315 36.4884C20.5017 36.3206 19.7793 36.1309 19.0683 35.9194L18.5379 35.7516C18.3422 35.6895 18.1015 35.6239 17.872 35.5983C17.4055 35.5363 16.9014 35.5765 16.4349 35.7479C15.4831 36.0872 14.8135 36.9846 14.678 37.9622C14.4598 39.56 15.9534 41.2782 15.9609 41.2892C16.1415 41.6503 15.2047 39.4141 15.6524 38.1738C15.8217 37.7069 16.4424 37.1305 16.9164 36.9371C17.1572 36.8386 17.4318 36.7949 17.7215 36.8241C17.872 36.835 17.9961 36.8642 18.1692 36.908L18.7297 37.0575C19.4821 37.2509 20.2383 37.415 20.9945 37.5573C24.0304 38.1154 26.3215 38.5678 29.3951 38.5204"
        fill="#EB8F00" />
    <path
        d="M53.3417 23.4079C53.3417 23.4079 52.9539 22.7706 45.7524 22.1333C36.1642 21.2847 32.7234 23.8197 32.0759 24.3925L32.0082 24.389C31.2891 24.346 30.6077 24.303 29.8548 24.303H29.821C29.452 24.3066 28.718 24.3424 28.093 24.3782C27.4004 23.7731 23.937 21.2919 14.4354 22.1333C7.23761 22.7706 6.84986 23.4079 6.84986 23.4079L6.80469 25.993C6.80469 25.993 7.87758 26.283 8.57401 27.103C9.26668 27.9121 9.59043 32.445 10.716 34.5754C12.459 37.8838 21.1249 37.0459 21.1249 37.0459C21.1249 37.0459 24.6598 37.3109 26.384 34.4787C27.9462 31.9187 28.526 28.3311 28.6201 27.6758C28.9777 27.4789 29.4445 27.325 30.0393 27.3178C30.7056 27.325 31.2138 27.5183 31.5865 27.7474C31.7108 28.5566 32.3018 32.001 33.8114 34.4751C35.5355 37.3037 39.0704 37.0423 39.0704 37.0423C39.0704 37.0423 47.7363 37.8802 49.4793 34.5718C50.6049 32.4379 50.9286 27.9086 51.6213 27.0994C52.314 26.2795 53.3906 25.9894 53.3906 25.9894L53.3417 23.4079ZM25.7101 30.5402C25.025 33.5621 24.1629 35.6209 18.2865 35.3022C14.5031 35.0981 11.8717 35.1053 11.2656 29.8563C10.893 26.5945 11.3071 25.3629 11.5894 24.969C11.868 24.5787 12.8806 23.4473 18.7345 23.6442C24.5883 23.8412 25.4278 25.0907 25.7703 25.6565C25.7854 25.6779 25.7967 25.703 25.8117 25.7281L26.0602 26.5086C26.1995 27.2856 26.1694 28.5316 25.7101 30.5402ZM48.9259 29.8563C48.3236 35.1053 45.6922 35.0981 41.9088 35.3022C36.0324 35.6209 35.1704 33.5621 34.4852 30.5402C33.7963 27.5255 34.0749 26.2186 34.4212 25.6565C34.7638 25.0907 35.6033 23.8376 41.4571 23.6442C47.3147 23.4473 48.3236 24.5787 48.6022 24.969C48.8807 25.3629 49.2986 26.5945 48.9259 29.8563Z"
        fill="#35220B" />
    <path
        d="M40.043 26.1484C38.5351 26.1484 37.1641 27.5254 37.1641 29.8125C37.1641 32.0996 38.5351 33.4766 40.043 33.4766C41.5508 33.4766 42.9219 32.0996 42.9219 29.8125C42.9219 27.5254 41.5508 26.1484 40.043 26.1484Z"
        fill="#35220B" />
    <path
        d="M39.9105 27.8714C39.492 27.5939 38.8622 27.6826 38.4559 28.2376C38.0496 28.7965 38.1837 29.3823 38.6022 29.6598C39.0207 29.9373 39.6505 29.8487 40.0568 29.2937C40.4671 28.7348 40.3331 28.1489 39.9105 27.8714Z"
        fill="#896024" />
    <path
        d="M40.043 26.1484C38.5351 26.1484 37.1641 27.5254 37.1641 29.8125C37.1641 32.0996 38.5351 33.4766 40.043 33.4766C41.5508 33.4766 42.9219 32.0996 42.9219 29.8125C42.9219 27.5254 41.5508 26.1484 40.043 26.1484Z"
        fill="#35220B" />
    <path
        d="M39.9105 27.8714C39.492 27.5939 38.8622 27.6826 38.4559 28.2376C38.0496 28.7965 38.1837 29.3823 38.6022 29.6598C39.0207 29.9373 39.6505 29.8487 40.0568 29.2937C40.4671 28.7348 40.3331 28.1489 39.9105 27.8714Z"
        fill="#896024" />
    <path
        d="M20.1523 26.1484C18.6445 26.1484 17.2734 27.5254 17.2734 29.8125C17.2734 32.0996 18.6445 33.4766 20.1523 33.4766C21.6602 33.4766 23.0312 32.0996 23.0312 29.8125C23.0312 27.5254 21.6602 26.1484 20.1523 26.1484Z"
        fill="#35220B" />
    <path
        d="M20.0223 27.8714C19.6032 27.5939 18.9725 27.6826 18.5656 28.2376C18.1587 28.7965 18.293 29.3823 18.7121 29.6598C19.1312 29.9373 19.7619 29.8487 20.1688 29.2937C20.5757 28.7348 20.4414 28.1489 20.0223 27.8714Z"
        fill="#896024" />
    <defs>
        <radialGradient id="paint0_radial_462_897" cx="0" cy="0" r="1"
            gradientUnits="userSpaceOnUse"
            gradientTransform="translate(30.0977 34) scale(21.3331 20.8012)">
            <stop offset="0.5" stop-color="#FDE030" />
            <stop offset="0.919" stop-color="#F7C02B" />
            <stop offset="1" stop-color="#F4A223" />
        </radialGradient>
    </defs>
</svg>