<svg width="68" height="68" viewBox="0 0 68 68" fill="none" xmlns="http://www.w3.org/2000/svg">
    <path
        d="M34.2722 55.1095C21.9648 55.1095 8.68701 47.1788 8.68701 29.7767C8.68701 12.3746 21.9648 4.44397 34.2722 4.44397C41.1096 4.44397 47.4176 6.75519 52.0935 10.9698C57.1665 15.5922 59.8573 22.118 59.8573 29.7767C59.8573 37.4355 57.1665 43.9159 52.0935 48.5384C47.4176 52.753 41.0655 55.1095 34.2722 55.1095Z"
        fill="url(#paint0_radial_462_332)" />
    <path
        d="M55.4035 14.7592C57.7518 18.6525 58.9766 23.2883 58.9766 28.4447C58.9766 36.0956 56.2891 42.5694 51.2225 47.1871C46.5524 51.3973 40.2081 53.7514 33.4232 53.7514C25.4664 53.7514 17.1219 50.424 12.1963 43.3661C16.9369 51.3611 25.8541 55.1095 34.3044 55.1095C41.0892 55.1095 47.4335 52.7554 52.1036 48.5452C57.1703 43.9275 59.8578 37.4537 59.8578 29.8028C59.8578 24.0353 58.329 18.9105 55.4035 14.7592Z"
        fill="#EB8F00" />
    <path
        d="M23.3071 42.7558L26.0014 45.4012L30.1769 41.1538L34.3964 45.4012L38.5719 41.1538L42.7914 45.4012L45.5297 42.7097"
        stroke="#35220B" stroke-width="4.8" stroke-linecap="round" stroke-linejoin="round" />
    <path
        d="M20.4211 32.5865L25.8028 31.4989L20.2888 29.1424C20.2402 29.0925 20.1785 29.0653 20.1123 29.0517C18.9654 28.3267 18.7448 26.8312 19.8035 25.9248C20.6902 25.2224 21.9077 25.168 22.8473 25.7889C25.0529 27.1484 30.214 30.4113 32.2432 31.6802C32.4682 31.7799 32.5696 32.0473 32.4726 32.2739C32.4152 32.4098 32.2961 32.5095 32.155 32.5412L22.0533 36.4386C21.965 36.4839 21.9209 36.4839 21.8327 36.5292C20.5093 36.8918 19.0536 36.1214 18.8331 34.8071C18.6125 33.8101 19.3624 32.8585 20.4211 32.5865Z"
        fill="#422B0D" />
    <path
        d="M48.4768 32.4506L43.095 31.3629L48.6532 29.0064C48.7017 28.9565 48.7635 28.9294 48.8297 28.9158C49.9766 28.1907 50.1971 26.6952 49.1384 25.7888C48.2518 25.0864 47.0343 25.032 46.0947 25.6529C43.8891 27.0124 38.7279 30.2753 36.6988 31.5442C36.4738 31.6439 36.3723 31.9113 36.4694 32.1379C36.5267 32.2738 36.6458 32.3735 36.787 32.4052L46.8887 36.3026C46.9769 36.3479 47.021 36.3479 47.1093 36.3932C48.4326 36.7558 49.8883 35.9854 50.1089 34.6711C50.2854 33.6741 49.5355 32.7678 48.4768 32.4506Z"
        fill="#422B0D" />
    <defs>
        <radialGradient id="paint0_radial_462_332" cx="0" cy="0" r="1"
            gradientUnits="userSpaceOnUse"
            gradientTransform="translate(34.2722 29.7767) scale(25.1262 25.813)">
            <stop offset="0.5" stop-color="#F61971" />
            <stop offset="0.92" stop-color="#F61976" />
            <stop offset="1" stop-color="#F61976" />
        </radialGradient>
    </defs>
</svg>