<svg width="75" height="68" viewBox="0 0 75 68" fill="none" xmlns="http://www.w3.org/2000/svg">
    <path
        d="M58.6425 34.1124C58.6425 49.2395 45.7308 61.4505 29.7358 61.4505C13.7408 61.4505 0.829102 49.2395 0.829102 34.1124C0.829102 18.9853 13.7408 6.77429 29.7358 6.77429C45.7308 6.77429 58.6425 18.9853 58.6425 34.1124Z"
        fill="#FFDD67" />
    <path
        d="M39.4033 48.657C34.5585 44.0836 36.6902 46.0959 41.8257 41.2481C46.9611 36.4003 44.8294 34.2965 49.6742 38.9614C54.5189 43.5348 54.7127 48.0167 51.8058 50.7608C48.9959 53.4133 44.248 53.2304 39.4033 48.657Z"
        fill="#FF717F" />
    <path d="M42.7255 40.3867L49.2315 48.4537L40.7163 42.3586L42.7255 40.3867Z" fill="#E2596C" />
    <path
        d="M26.4307 27.7101C24.6102 23.0455 21.9275 20.6675 19.2447 20.6675C16.5619 20.6675 13.8791 23.0455 12.0587 27.7101C11.8671 28.1674 12.8252 28.9906 13.3043 28.5332C15.0289 26.7955 17.1368 26.0638 19.2447 26.0638C21.3526 26.0638 23.4605 26.7955 25.1851 28.5332C25.76 28.9906 26.6223 28.1674 26.4307 27.7101ZM47.4138 27.7101C45.5934 23.0455 42.9106 20.6675 40.2278 20.6675C37.545 20.6675 34.8623 23.0455 33.0418 27.7101C32.8502 28.1674 33.8083 28.9906 34.2874 28.5332C36.012 26.7955 38.1199 26.0638 40.2278 26.0638C42.3357 26.0638 44.4436 26.7955 46.1682 28.5332C46.6473 28.9906 47.6054 28.1674 47.4138 27.7101ZM45.2101 35.1185C41.0901 40.6978 36.1078 42.0697 29.7842 42.0697C23.4605 42.0697 18.4782 40.6978 14.3582 35.1185C13.7833 34.3868 12.2503 34.8442 12.6336 35.9417C14.8373 43.2587 22.2149 47.5574 29.88 47.5574C37.545 47.5574 44.9227 43.2587 47.1264 35.9417C47.318 34.8442 45.785 34.3868 45.2101 35.1185Z"
        fill="#664E27" />
</svg>