<svg width="68" height="68" viewBox="0 0 68 68" fill="none" xmlns="http://www.w3.org/2000/svg">
    <path
        d="M30.0792 57.6313C18.8711 57.6313 6.7793 49.855 6.7793 32.7916C6.7793 15.7282 18.8711 7.9519 30.0792 7.9519C36.3058 7.9519 42.0505 10.2181 46.3087 14.3507C50.9285 18.8832 53.379 25.2819 53.379 32.7916C53.379 40.3013 50.9285 46.6556 46.3087 51.1881C42.0505 55.3206 36.2657 57.6313 30.0792 57.6313Z"
        fill="url(#paint0_radial_462_723)" />
    <path
        d="M49.3022 18.2427C51.4516 22.0432 52.5727 26.5685 52.5727 31.602C52.5727 39.0706 50.1127 45.3901 45.4752 49.8977C41.2006 54.0076 35.3935 56.3056 29.1832 56.3056C21.9003 56.3056 14.2624 53.0574 9.75391 46.1678C14.093 53.9722 22.2551 57.6314 29.9898 57.6314C36.2001 57.6314 42.0071 55.3334 46.2817 51.2235C50.9193 46.7158 53.3792 40.3963 53.3792 32.9278C53.3792 27.2977 51.9799 22.2951 49.3022 18.2427Z"
        fill="#EB8F00" />
    <path
        d="M30.2446 46.276C25.6257 46.276 22.327 43.6443 21.3358 42.0038C20.9626 41.4731 20.8864 40.7625 21.1352 40.1528C21.3238 39.7624 21.697 39.5212 22.1023 39.5343C22.2508 39.5343 22.3992 39.5606 22.5397 39.6089C25.0398 40.4335 27.6362 40.8458 30.2446 40.8283C32.853 40.8458 35.4534 40.4335 37.9494 39.6089C38.0899 39.5606 38.2384 39.5343 38.3868 39.5343C38.7922 39.5212 39.1654 39.7624 39.354 40.1528C39.6028 40.7625 39.5265 41.4731 39.1533 42.0038C38.1621 43.653 34.8635 46.276 30.2446 46.276Z"
        fill="#422B0D" />
    <path
        d="M54.3704 24.9447C54.3704 24.9447 52.658 24.9842 52.658 26.4817C52.658 30.1792 52.6982 38.1144 43.8147 38.1144C36.7159 38.1144 33.3274 34.1094 32.7566 29.6874C32.5234 27.8474 31.9526 25.8449 30.2362 25.8449C28.5198 25.8449 27.9651 27.8342 27.732 29.6874C27.1612 34.1094 23.7726 38.1144 16.6738 38.1144C7.80643 38.1144 7.83055 30.1792 7.83055 26.4817C7.83055 24.9842 6.11816 24.9447 6.11816 24.9447V21.2823C8.87164 20.8871 11.6452 20.7027 14.4188 20.729C19.4354 20.729 21.4331 20.729 25.4247 21.1682C27.7842 21.4229 30.2483 21.4536 30.2483 21.4536C30.2483 21.4536 32.7003 21.4229 35.0719 21.1682C39.0634 20.729 41.0612 20.729 46.0778 20.729C48.8513 20.7027 51.6209 20.8915 54.3704 21.2823V24.9447Z"
        fill="#422B0D" />
    <path
        d="M13.0164 27.9481C12.9762 28.6591 12.719 29.3167 12.0879 29.45C12.0155 29.4634 11.9472 29.4723 11.8748 29.4723C11.308 29.4678 10.8217 29.0146 10.7332 28.3925C10.488 27.166 10.7574 25.8818 11.4648 24.8998C12.116 24.0289 13.0888 23.5267 14.1098 23.5312C14.7167 23.469 15.2554 23.9622 15.3116 24.6332C15.3116 24.6465 15.3157 24.6598 15.3157 24.6776C15.3157 25.513 14.7127 25.8685 14.1098 26.0996C13.4505 26.4284 13.0244 27.1483 13.0164 27.9481Z"
        fill="#896024" />
    <path
        d="M38.5733 27.9481C38.5371 28.6591 38.2758 29.3167 37.6488 29.45C37.5764 29.4634 37.504 29.4723 37.4317 29.4723C36.8609 29.4723 36.3745 29.0146 36.2821 28.3925C36.0369 27.166 36.3062 25.8818 37.0136 24.8998C37.6688 24.0289 38.6376 23.5267 39.6626 23.5312C40.2696 23.469 40.8082 23.9622 40.8645 24.6332C40.8645 24.6465 40.8685 24.6598 40.8685 24.6776C40.8685 25.513 40.2656 25.8685 39.6626 26.0996C39.0074 26.4284 38.5813 27.1483 38.5733 27.9481Z"
        fill="#896024" />
    <defs>
        <radialGradient id="paint0_radial_462_723" cx="0" cy="0" r="1"
            gradientUnits="userSpaceOnUse"
            gradientTransform="translate(30.0792 32.7916) scale(22.882 25.3106)">
            <stop offset="0.5" stop-color="#FDE030" />
            <stop offset="0.92" stop-color="#F7C02B" />
            <stop offset="1" stop-color="#F4A223" />
        </radialGradient>
    </defs>
</svg>