<svg width="68" height="68" viewBox="0 0 68 68" fill="none" xmlns="http://www.w3.org/2000/svg">
    <path
        d="M2.20442 6.17491C6.68747 10.8583 12.5791 14.6539 18.1793 14.4893C18.7135 14.4744 19.1604 14.9083 19.1749 15.457C19.1798 15.6166 19.1458 15.7712 19.0827 15.9158C16.6201 21.108 11.2045 26.2952 6.26005 25.5869C6.02692 25.557 5.81321 25.4323 5.66264 25.2477C2.43756 21.2875 0.174171 13.3721 0.53845 6.79338C0.577306 6.24473 1.04844 5.83076 1.58272 5.87565C1.81585 5.8956 2.03928 6.00034 2.20442 6.17491Z"
        fill="#792D85" />
    <path
        d="M55.7654 6.40999C51.2797 11.0856 45.3848 14.878 39.7814 14.7283C39.2468 14.7133 38.7997 15.1475 38.7851 15.6964C38.7803 15.856 38.8143 16.0107 38.8775 16.1554C41.3414 21.35 46.7601 26.5396 51.7074 25.831C51.9358 25.7961 52.1496 25.6763 52.2954 25.4917C55.5175 21.5297 57.7822 13.6105 57.4226 7.02875C57.3788 6.47985 56.9074 6.07068 56.3728 6.12058C56.1444 6.14054 55.9257 6.24034 55.7654 6.40999Z"
        fill="#792D85" />
    <path
        d="M28.7465 62.0369C16.5064 62.0369 3.30127 54.0879 3.30127 36.6432C3.30127 19.1986 16.5064 11.2445 28.7465 11.2445C35.5358 11.2445 41.8401 13.5644 46.4714 17.7725C51.5148 22.4073 54.1918 28.9503 54.1918 36.6282C54.1918 44.306 51.5148 50.7988 46.4714 55.4337C41.8207 59.6768 35.5018 62.0369 28.7465 62.0369Z"
        fill="url(#paint0_radial_462_927)" />
    <path
        d="M50.0001 21.7449C52.402 25.8657 53.6345 30.6024 53.552 35.4092C53.552 43.0501 50.8783 49.5142 45.8415 54.1257C41.1977 58.3317 34.8896 60.68 28.1398 60.68C20.2304 60.68 11.9182 57.3603 7.03662 50.3103C11.7483 58.3217 20.6234 62.037 29.0181 62.037C35.763 62.037 42.0712 59.6886 46.715 55.4827C51.7566 50.8711 54.4255 44.407 54.4255 36.7662C54.4255 31.008 52.9067 25.8907 50.0001 21.7449Z"
        fill="#792D85" />
    <path
        d="M37.3917 46.3646C37.9798 46.3546 38.5194 46.6855 38.8013 47.2169C39.1415 47.9689 39.054 48.8513 38.5728 49.5131C37.4938 51.2026 33.9455 53.8849 28.9974 53.8849C24.0493 53.8849 20.501 51.2026 19.4268 49.5131C18.9456 48.8513 18.8581 47.9689 19.1983 47.2219C19.4754 46.6855 20.0198 46.3546 20.6079 46.3646C20.8072 46.3646 21.0065 46.3947 21.1961 46.4599C23.7236 47.247 26.3532 47.638 28.9974 47.623C31.6318 47.638 34.2517 47.247 36.7744 46.4599C36.964 46.3947 37.1633 46.3646 37.3625 46.3646H37.3917Z"
        fill="#422B0D" />
    <path
        d="M26.149 36.9793C25.0602 35.5655 20.5738 32.8482 18.9552 32.0561C18.3525 31.7703 17.7255 31.5397 17.0839 31.3692C16.9672 31.3341 16.8409 31.3191 16.7193 31.3191C16.0729 31.3341 15.5188 31.8104 15.3875 32.4672C15.2369 33.149 15.5771 33.8509 16.1993 34.1317C16.9624 34.5177 18.2942 35.2497 19.6746 36.0569C18.5226 36.7638 17.8178 38.0472 17.8178 39.431V40.1629C17.8178 42.2385 19.451 43.9231 21.4633 43.9231C23.4756 43.9231 25.1088 42.2385 25.1088 40.1629V39.431C25.1088 39.4009 25.1088 39.3758 25.1088 39.3457C25.6289 39.3106 26.0955 38.9898 26.324 38.5085C26.5621 38.0071 26.4941 37.4105 26.149 36.9793Z"
        fill="#422B0D" />
    <path
        d="M43.3461 32.4672C43.21 31.8054 42.6461 31.3341 41.99 31.3291C41.8684 31.3291 41.7421 31.3441 41.6254 31.3792C40.9838 31.5447 40.3568 31.7753 39.7541 32.0561C38.1355 32.8382 33.6491 35.5655 32.5603 36.9693C32.2152 37.4055 32.1569 38.0071 32.3999 38.5085C32.6332 38.9948 33.095 39.3106 33.6199 39.3457V39.4309V40.1629C33.6199 42.2385 35.2531 43.923 37.2654 43.923C39.2777 43.923 40.9109 42.2385 40.9109 40.1629V39.4309C40.9109 38.0522 40.2061 36.7738 39.059 36.0669C40.4394 35.2597 41.7712 34.5277 42.5343 34.1417C43.1614 33.8609 43.5065 33.154 43.3461 32.4672Z"
        fill="#422B0D" />
    <path
        d="M21.2898 36.7855C20.5572 36.4343 19.6751 36.7442 19.3191 37.4776C19.0456 38.051 19.1695 38.7379 19.6286 39.1821C20.3612 39.5334 21.2434 39.2235 21.5994 38.49C21.8728 37.9167 21.749 37.2297 21.2898 36.7855Z"
        fill="#896024" />
    <path
        d="M37.1639 36.7855C36.4313 36.4343 35.5491 36.7442 35.1931 37.4776C34.9197 38.051 35.0435 38.7379 35.5026 39.1821C36.2352 39.5334 37.1174 39.2235 37.4734 38.49C37.7468 37.9167 37.623 37.2297 37.1639 36.7855Z"
        fill="#896024" />
    <defs>
        <radialGradient id="paint0_radial_462_927" cx="0" cy="0" r="1"
            gradientUnits="userSpaceOnUse"
            gradientTransform="translate(28.7465 36.6408) scale(24.99 25.8764)">
            <stop stop-color="#FF00FF" />
            <stop offset="0.86" stop-color="#DF0BE2" />
            <stop offset="1" stop-color="#792D85" />
        </radialGradient>
    </defs>
</svg>