<svg width="68" height="68" viewBox="0 0 68 68" fill="none" xmlns="http://www.w3.org/2000/svg">
    <path
        d="M27.9293 59.9339C16.5315 59.9339 4.23486 52.2855 4.23486 35.5026C4.23486 18.7197 16.5315 11.0713 27.9293 11.0713C34.2614 11.0713 40.1033 13.3003 44.4337 17.3649C49.1317 21.8228 51.6237 28.1164 51.6237 35.5026C51.6237 42.8888 49.1317 49.1387 44.4337 53.5966C40.1033 57.6612 34.2206 59.9339 27.9293 59.9339Z"
        fill="url(#paint0_radial_462_642)" />
    <path
        d="M47.5008 20.9377C49.6746 24.7004 50.8084 29.1806 50.8084 34.164C50.8084 41.558 48.3205 47.8146 43.6303 52.2773C39.3072 56.3462 33.4342 58.6213 27.1534 58.6213C19.7877 58.6213 12.0631 55.4055 7.50342 48.5846C11.8918 56.3112 20.1466 59.9339 27.9691 59.9339C34.2499 59.9339 40.1228 57.6588 44.446 53.5898C49.1362 49.1271 51.6241 42.8706 51.6241 35.4765C51.6241 29.9025 50.2088 24.9498 47.5008 20.9377Z"
        fill="#EB8F00" />
    <path
        d="M28.173 8.01733C14.7054 8.01733 3.76807 10.9762 3.76807 14.6256C3.76807 18.275 9.96317 22.1123 28.173 22.1123C45.3789 22.1123 52.5576 18.2794 52.5576 14.6256C52.5576 10.9718 41.6406 8.01733 28.173 8.01733ZM28.173 17.3878C17.7581 17.3878 9.3102 16.5137 9.3102 14.3634C9.3102 12.2131 17.7581 9.99282 28.173 9.99282C38.588 9.99282 47.0358 12.2305 47.0358 14.3852C47.0358 16.5399 38.5717 17.3878 28.173 17.3878Z"
        fill="#4FC3F7" />
    <path
        d="M27.7652 48.0516C24.0636 48.0822 20.5294 46.4172 18.0522 43.4718C17.8645 43.2402 17.8196 42.9124 17.9379 42.6327C18.0563 42.3487 18.3175 42.1651 18.6072 42.1608C18.7378 42.1608 18.8684 42.2001 18.9827 42.27C20.9498 43.4805 24.2391 44.9838 27.7652 44.9838H27.8223C31.3443 44.9838 34.6378 43.4805 36.6008 42.27C36.715 42.2001 36.8456 42.1608 36.9762 42.1608C37.266 42.1651 37.5272 42.3487 37.6455 42.6327C37.768 42.9124 37.7231 43.2402 37.5313 43.4718C35.054 46.4172 31.5116 48.0866 27.8101 48.0516"
        fill="#422B0D" />
    <path
        d="M22.0516 32.8787L21.9904 32.7913L21.8149 32.5509L21.5986 32.3018C21.5088 32.1926 21.4027 32.0877 21.3007 31.9741C21.1987 31.8605 21.0722 31.7512 20.9579 31.6594C20.8518 31.572 20.7375 31.489 20.6151 31.4234C20.5335 31.3754 20.4437 31.336 20.3498 31.3142C20.3212 31.3098 20.2927 31.3098 20.2641 31.3142C20.2641 31.3142 20.2396 31.3142 20.2274 31.3142H20.1947H20.3049H20.0804C20.06 31.3142 20.0192 31.3142 20.0804 31.3142H20.1131H20.0682C19.9743 31.336 19.8846 31.371 19.7989 31.4234C19.6805 31.4934 19.5622 31.572 19.456 31.6594C19.3377 31.7556 19.2234 31.8605 19.1173 31.9741C18.901 32.1969 18.7092 32.4111 18.5868 32.5815L18.3746 32.8437L18.2807 32.9617C17.693 33.6653 16.7013 33.7789 15.9871 33.2283C15.53 32.8874 15.2974 32.2975 15.3872 31.7075C15.3872 31.7075 15.4158 31.5327 15.4933 31.2224C15.6157 30.781 15.7871 30.3528 16.0034 29.9507C16.3503 29.2952 16.8197 28.7227 17.3828 28.2683C17.7542 27.9623 18.1664 27.7176 18.6072 27.5472C18.7296 27.4947 18.8561 27.4554 18.9826 27.4205C19.1173 27.3768 19.252 27.3462 19.3907 27.3199L19.6397 27.2806L19.8478 27.2544H20.0723H20.3947H20.6028C20.7416 27.2544 20.8763 27.2937 21.0109 27.3156C21.2721 27.3636 21.5333 27.4379 21.7823 27.5384C22.223 27.7089 22.6352 27.9536 23.0066 28.2595C23.5698 28.714 24.0391 29.2865 24.386 29.942C24.5125 30.1692 24.6227 30.4096 24.7125 30.6543C24.79 30.851 24.8553 31.0476 24.9084 31.253C24.937 31.3579 24.9614 31.4628 24.9737 31.5677V31.6769C25.0961 32.5684 24.5166 33.3987 23.6841 33.5298C23.6637 33.5342 23.6432 33.5342 23.6228 33.5386C23.027 33.6303 22.4312 33.3769 22.0516 32.8787Z"
        fill="#422B0D" />
    <path
        d="M38.1558 32.8787L38.0905 32.7913L37.915 32.5509L37.6987 32.3018C37.6089 32.1926 37.5028 32.0877 37.4008 31.9741C37.2988 31.8605 37.1722 31.7512 37.058 31.6594C36.9519 31.572 36.8376 31.489 36.7152 31.4234C36.6335 31.3754 36.5438 31.336 36.4499 31.3142C36.4213 31.3098 36.3928 31.3098 36.3642 31.3142C36.3642 31.3142 36.3397 31.3142 36.3275 31.3142H36.2948H36.405H36.1805C36.1601 31.3142 36.1193 31.3142 36.1805 31.3142H36.2132H36.1683C36.0744 31.336 35.9847 31.371 35.8989 31.4234C35.7806 31.489 35.6663 31.572 35.5602 31.6594C35.4378 31.7556 35.3235 31.8605 35.2174 31.9741C35.0011 32.1969 34.8093 32.4111 34.6869 32.5815L34.4746 32.8437L34.3849 32.9617C33.7931 33.6653 32.8055 33.7789 32.0872 33.2283C31.6301 32.8874 31.3975 32.2975 31.4873 31.7075C31.4873 31.7075 31.5159 31.5327 31.5975 31.2224C31.7199 30.7767 31.8872 30.3484 32.1076 29.9507C32.4545 29.2952 32.9198 28.7227 33.4829 28.2683C33.8543 27.9623 34.2665 27.7176 34.7073 27.5472C34.8297 27.4947 34.9562 27.4554 35.0827 27.4205C35.2174 27.3768 35.3521 27.3462 35.4908 27.3199L35.7439 27.2806L35.9479 27.2544H36.1724H36.4948H36.7029C36.8417 27.2544 36.9764 27.2937 37.111 27.3156C37.3763 27.3636 37.6334 27.4379 37.8824 27.5384C38.3231 27.7089 38.7353 27.9536 39.1067 28.2595C39.6699 28.714 40.1392 29.2865 40.4861 29.942C40.6126 30.1692 40.7228 30.4096 40.8126 30.6543C40.8901 30.8466 40.9554 31.0432 41.0085 31.2443C41.037 31.3492 41.0615 31.454 41.0738 31.5589V31.6682C41.2044 32.5597 40.633 33.3943 39.8005 33.5342C39.7882 33.5342 39.776 33.5386 39.7637 33.5386C39.1557 33.6478 38.5394 33.3943 38.1558 32.8787Z"
        fill="#422B0D" />
    <defs>
        <radialGradient id="paint0_radial_462_642" cx="0" cy="0" r="1"
            gradientUnits="userSpaceOnUse"
            gradientTransform="translate(27.9293 35.5025) scale(23.2694 24.8944)">
            <stop offset="0.5" stop-color="#FDE030" />
            <stop offset="0.92" stop-color="#F7C02B" />
            <stop offset="1" stop-color="#F4A223" />
        </radialGradient>
    </defs>
</svg>