<svg width="67" height="68" viewBox="0 0 67 68" fill="none" xmlns="http://www.w3.org/2000/svg">
    <path
        d="M30.2401 57.4934C18.5551 57.4934 5.94873 50.0852 5.94873 33.8295C5.94873 17.5737 18.5551 10.1655 30.2401 10.1655C36.7317 10.1655 42.7208 12.3245 47.1603 16.2614C51.9766 20.5793 54.5314 26.6752 54.5314 33.8295C54.5314 40.9837 51.9766 47.0372 47.1603 51.3552C42.7208 55.2921 36.6898 57.4934 30.2401 57.4934Z"
        fill="url(#paint0_radial_462_35)" />
    <path
        d="M30.2401 57.4934C18.5551 57.4934 5.94873 50.0852 5.94873 33.8295C5.94873 17.5737 18.5551 10.1655 30.2401 10.1655C36.7317 10.1655 42.7208 12.3245 47.1603 16.2614C51.9766 20.5793 54.5314 26.6752 54.5314 33.8295C54.5314 40.9837 51.9766 47.0372 47.1603 51.3552C42.7208 55.2921 36.6898 57.4934 30.2401 57.4934Z"
        fill="url(#paint1_linear_462_35)" />
    <path
        d="M50.3002 19.4978C52.531 23.1639 53.6946 27.5292 53.6946 32.3847C53.6946 39.589 51.1415 45.6851 46.3283 50.0333C41.8917 53.9978 35.8647 56.2145 29.4192 56.2145C21.8604 56.2145 13.9332 53.0813 9.25391 46.4353C13.7574 53.9637 22.2287 57.4934 30.2563 57.4934C36.7018 57.4934 42.7288 55.2767 47.1653 51.3121C51.9786 46.9639 54.5317 40.8679 54.5317 33.6636C54.5317 28.2326 53.0793 23.4069 50.3002 19.4978Z"
        fill="#EB8F00" />
    <path opacity="0.66"
        d="M6.2793 38.7449C6.70006 37.6247 8.55982 37.6076 9.93571 38.2857C12.5991 39.6032 12.2836 42.4872 13.6174 43.0622C14.9512 43.6373 19.163 40.1139 25.0831 39.556C25.7479 39.4916 29.6736 38.9895 30.0607 40.6718C30.2122 41.337 29.1014 41.4657 29.1014 41.4657C26.6946 42.3756 24.2458 43.3026 22.0915 44.7403C19.6469 46.3668 17.5094 48.6671 14.6693 49.3452C13.5627 49.607 12.313 49.5683 11.4126 48.8688C10.2934 48.0105 10.0451 46.4355 9.63697 45.0664C9.16992 43.5 8.39993 42.0408 7.38169 40.7748"
        fill="url(#paint2_linear_462_35)" />
    <path
        d="M6.1505 38.7271C5.38879 39.6684 7.00846 42.1684 7.29724 43.4419C7.99198 46.5169 7.29724 47.275 7.24283 50.0093C7.1968 53.0162 8.07987 55.5461 10.3315 57.1603C12.4492 58.6893 14.7804 58.8639 18.0448 57.8843C21.3093 56.9047 23.5149 56.432 23.6823 54.7965C23.7743 54.1193 23.4228 53.4549 22.8117 53.1653C23.1382 53.0077 23.3977 52.7394 23.5442 52.4029C24.3226 50.5119 22.7699 50.1116 22.7699 50.1116C22.9833 49.8518 23.1633 49.5664 23.3056 49.2598C23.7702 48.3185 23.6948 47.0408 22.3556 46.6234C21.7403 46.4317 21.5729 46.534 21.5729 46.534C22.2091 45.8696 22.9708 45.3372 23.812 44.9794C26.0636 43.9956 28.7338 43.3993 29.3992 42.8243C30.366 41.9725 30.4246 40.3328 28.7171 39.843C26.2645 39.1105 21.7529 40.8141 19.0074 42.5901C16.2619 44.3661 13.7424 45.3244 12.9054 45.0007C12.0684 44.677 11.5494 44.1489 11.2313 42.8712C10.6412 40.4946 10.185 39.5747 9.18476 38.6846C8.3561 37.9605 6.73643 38.0031 6.1505 38.7271Z"
        fill="url(#paint3_radial_462_35)" />
    <path
        d="M19.8973 48.129C19.8973 48.129 19.2894 47.6966 21.7168 45.6683C23.3709 44.2801 24.3262 44.0292 26.3069 43.506C30.3099 42.481 30.0576 41.162 30.0576 41.162C30.2727 43.1038 28.4366 43.5362 27.0926 43.9773C26.952 44.0206 26.8197 44.0768 26.6791 44.1114C22.0766 45.3396 20.468 48.5139 19.8973 48.129Z"
        fill="url(#paint4_linear_462_35)" />
    <path
        d="M23.7515 52.68C24.122 52.064 24.2242 51.3155 24.0283 50.6225C23.892 50.2161 23.6322 49.8611 23.2787 49.6173C23.3299 49.5488 23.381 49.4847 23.4278 49.4077C23.8068 48.8131 23.8622 48.0645 23.5769 47.4186C23.2532 46.9096 22.7251 46.5716 22.1332 46.4946C22.5377 46.6914 22.8401 47.055 22.9593 47.4913C23.0275 48.0174 22.9508 48.5564 22.7464 49.0441C22.4739 49.7114 21.8649 50.1776 21.1537 50.2717C20.1231 50.4771 20.4382 50.9048 20.4382 50.9048C20.5276 51.247 21.7456 50.9305 22.6698 50.2375C22.9295 50.3744 23.1254 50.6097 23.2191 50.8877C23.3171 51.3197 23.2575 51.7774 23.053 52.171C22.7677 52.7998 22.2141 53.2703 21.5497 53.4543C20.6341 53.7066 20.8854 54.0446 20.8854 54.0446C20.8854 54.0446 20.9279 54.7717 22.8103 53.574C23.0317 54.0018 23.3256 54.9557 22.7379 55.5717C20.7448 57.6805 14.8721 58.4932 14.8721 58.4932C17.8532 58.4932 21.95 57.3383 23.2191 56.2817C23.7131 55.8925 24.0027 55.3022 24.007 54.6734C24.0624 54.0873 23.8452 53.5056 23.4235 53.0949C23.5428 52.9666 23.6535 52.8297 23.7515 52.68Z"
        fill="url(#paint5_linear_462_35)" />
    <path
        d="M35.7981 37.2564C35.664 37.2311 35.5384 37.1761 35.4337 37.0872C33.5448 35.5558 31.2916 34.5574 28.9002 34.1851C26.5087 33.7663 24.0544 33.9948 21.7803 34.8451C21.6546 34.8958 21.5206 34.9128 21.3866 34.8916C21.0934 34.8408 20.8547 34.6209 20.7751 34.329C20.6955 34.0413 20.7919 33.7367 21.018 33.5463C25.4575 29.8235 32.0413 30.4412 35.7269 34.9255C36.0284 35.2935 36.3048 35.6827 36.5561 36.0846C36.7153 36.3342 36.7153 36.6557 36.5561 36.9053C36.3928 37.1634 36.0954 37.2987 35.7981 37.2564Z"
        fill="#422B0D" />
    <path
        d="M37.4311 20.25C39.1859 20.25 40.7816 21.7476 40.7816 24.2351C40.7816 26.7226 39.1859 28.216 37.4311 28.216C35.6763 28.216 34.0806 26.7184 34.0806 24.2351C34.0806 21.7518 35.6763 20.25 37.4311 20.25Z"
        fill="#422B0D" />
    <path
        d="M22.9277 16.396C21.1728 16.396 19.5771 17.8936 19.5771 20.3769C19.5771 22.8601 21.1728 24.362 22.9277 24.362C24.6867 24.362 26.2782 22.8644 26.2782 20.3769C26.2782 17.8893 24.6867 16.396 22.9277 16.396Z"
        fill="#422B0D" />
    <path
        d="M20.2431 11.586C20.0546 11.2729 20.0295 10.8837 20.1761 10.5495C20.3352 10.2153 20.6493 9.98688 21.0137 9.94034C23.2962 9.58075 25.6249 10.1265 27.5179 11.4591C28.2257 11.9498 28.8539 12.5421 29.3858 13.2232C29.4193 13.2655 29.4486 13.312 29.478 13.3628C29.7628 13.8112 29.6664 14.4035 29.256 14.7377C28.8162 15.1057 28.1713 15.093 27.7483 14.7038L27.9242 14.4162L27.7106 14.67C25.8761 13.1216 23.581 12.2375 21.1938 12.1656C20.7959 12.1656 20.4273 11.954 20.2263 11.6071L20.2431 11.586Z"
        fill="#422B0D" />
    <path
        d="M42.5533 19.1543C42.8632 18.9808 43.0726 18.6635 43.1145 18.3082C43.1396 17.9401 42.9847 17.5848 42.6957 17.3605C40.8822 15.901 38.5787 15.203 36.2711 15.423C35.4167 15.4949 34.579 15.698 33.7833 16.0237L33.6325 16.0956C33.1676 16.3452 32.9624 16.9079 33.1551 17.4028C33.3603 17.9401 33.9173 18.2447 34.4743 18.122V17.7836L34.533 18.1136C36.8783 17.6736 39.3033 18.0416 41.4183 19.1585C41.7659 19.3573 42.1889 19.3573 42.5366 19.1585L42.5533 19.1543Z"
        fill="#422B0D" />
    <defs>
        <radialGradient id="paint0_radial_462_35" cx="0" cy="0" r="1" gradientUnits="userSpaceOnUse"
            gradientTransform="translate(30.2401 33.8295) scale(23.8557 24.1125)">
            <stop offset="0.5" stop-color="#F61971" />
            <stop offset="0.92" stop-color="#F61976" />
            <stop offset="1" stop-color="#F61976" />
        </radialGradient>
        <linearGradient id="paint1_linear_462_35" x1="30.2401" y1="57.4934" x2="30.2401"
            y2="10.1655" gradientUnits="userSpaceOnUse">
            <stop stop-color="#F4A223" />
            <stop offset="0.08" stop-color="#F7C02B" />
            <stop offset="0.54" stop-color="#FDE030" stop-opacity="0" />
        </linearGradient>
        <linearGradient id="paint2_linear_462_35" x1="18.2682" y1="52.1777" x2="18.1588"
            y2="37.8522" gradientUnits="userSpaceOnUse">
            <stop stop-color="#BF360C" />
            <stop offset="1" stop-color="#BF360C" stop-opacity="0.2" />
        </linearGradient>
        <radialGradient id="paint3_radial_462_35" cx="0" cy="0" r="1" gradientUnits="userSpaceOnUse"
            gradientTransform="translate(20.8363 42.2243) scale(24.7805 23.7047)">
            <stop offset="0.27" stop-color="#FFF176" />
            <stop offset="1" stop-color="#FFC400" />
        </radialGradient>
        <linearGradient id="paint4_linear_462_35" x1="20.0632" y1="47.2003" x2="30.6596"
            y2="42.1684" gradientUnits="userSpaceOnUse">
            <stop offset="0.13" stop-color="#DA6727" />
            <stop offset="1" stop-color="#FFC400" />
        </linearGradient>
        <linearGradient id="paint5_linear_462_35" x1="19.4839" y1="57.6249" x2="19.5741"
            y2="41.3829" gradientUnits="userSpaceOnUse">
            <stop offset="0.13" stop-color="#DA6727" />
            <stop offset="1" stop-color="#FFC400" />
        </linearGradient>
    </defs>
</svg>