<svg width="68" height="68" viewBox="0 0 68 68" fill="none" xmlns="http://www.w3.org/2000/svg">
    <path
        d="M34.2018 60.597C49.4711 60.597 61.8494 48.78 61.8494 34.203C61.8494 19.6261 49.4711 7.80908 34.2018 7.80908C18.9324 7.80908 6.5542 19.6261 6.5542 34.203C6.5542 48.78 18.9324 60.597 34.2018 60.597Z"
        fill="#FFCE52" />
    <path
        d="M34.2018 11.1707C48.8228 11.1707 60.6761 20.9377 60.6761 32.9848H61.8494C61.5176 26.2018 58.4599 19.8015 53.3113 15.1132C48.1627 10.4249 41.319 7.80908 34.2018 7.80908C27.0846 7.80908 20.2409 10.4249 15.0923 15.1132C9.9437 19.8015 6.88595 26.2018 6.5542 32.9848H7.72749C7.72749 20.9377 19.5808 11.1707 34.2018 11.1707Z"
        fill="#FFE369" />
    <path
        d="M60.6473 32.9849C60.6473 45.0571 48.8069 54.8445 34.2018 54.8445C19.5966 54.8445 7.75627 45.0571 7.75627 32.9849H6.58425C6.56742 33.3668 6.5542 33.7499 6.5542 34.1354C6.5542 41.1534 9.46706 47.884 14.652 52.8466C19.8369 57.8091 26.8692 60.597 34.2018 60.597C41.5344 60.597 48.5667 57.8091 53.7516 52.8466C58.9365 47.884 61.8494 41.1534 61.8494 34.1354C61.8494 33.7499 61.8362 33.3668 61.8193 32.9849H60.6473Z"
        fill="#FFB32B" />
    <path
        d="M50.2031 16.1992C50.5902 15.8294 50.467 15.1126 49.9279 14.5983C49.3888 14.084 48.638 13.9669 48.2508 14.3368C47.8637 14.7066 47.9868 15.4234 48.5259 15.9377C49.065 16.452 49.8159 16.5691 50.2031 16.1992Z"
        fill="#F6FAFD" />
    <path
        d="M42.1981 11.7171C42.392 11.5319 42.3306 11.1734 42.061 10.9162C41.7915 10.6591 41.4158 10.6007 41.222 10.7858C41.0282 10.971 41.0896 11.3296 41.3592 11.5867C41.6287 11.8439 42.0043 11.9022 42.1981 11.7171Z"
        fill="#F6FAFD" />
    <path
        d="M47.5748 14.8354C48.3491 14.0957 48.1024 12.6618 47.0237 11.6328C45.945 10.6037 44.4429 10.3692 43.6686 11.1089C42.8943 11.8486 43.141 13.2824 44.2197 14.3115C45.2984 15.3405 46.8005 15.5751 47.5748 14.8354Z"
        fill="#F6FAFD" />
    <path
        d="M48.5302 34.203C52.5426 34.203 55.7953 31.1124 55.7953 27.3C55.7953 23.4876 52.5426 20.397 48.5302 20.397C44.5178 20.397 41.2651 23.4876 41.2651 27.3C41.2651 31.1124 44.5178 34.203 48.5302 34.203Z"
        fill="url(#paint0_radial_462_110)" />
    <path
        d="M19.8735 34.203C23.8858 34.203 27.1385 31.1124 27.1385 27.3C27.1385 23.4876 23.8858 20.397 19.8735 20.397C15.8611 20.397 12.6084 23.4876 12.6084 27.3C12.6084 31.1124 15.8611 34.203 19.8735 34.203Z"
        fill="url(#paint1_radial_462_110)" />
    <path
        d="M34.2017 38.6697C28.972 38.6697 24.7168 35.2089 24.7168 30.9546H27.088C27.088 33.9933 30.2785 36.4654 34.2017 36.4654C38.1249 36.4654 41.3154 33.9933 41.3154 30.9546H43.6867C43.6867 35.2089 39.4315 38.6697 34.2017 38.6697Z"
        fill="#273941" />
    <path
        d="M50.9517 21.6151H48.53C48.53 20.7105 48.1473 19.8429 47.4661 19.2033C46.7848 18.5636 45.8609 18.2042 44.8975 18.2042C43.9341 18.2042 43.0101 18.5636 42.3289 19.2033C41.6477 19.8429 41.2649 20.7105 41.2649 21.6151H38.8433C38.8433 20.1074 39.4811 18.6615 40.6165 17.5954C41.7519 16.5292 43.2918 15.9303 44.8975 15.9303C46.5032 15.9303 48.0431 16.5292 49.1785 17.5954C50.3138 18.6615 50.9517 20.1074 50.9517 21.6151Z"
        fill="#273941" />
    <path
        d="M29.5601 21.6151H27.1384C27.1384 20.7105 26.7557 19.8429 26.0745 19.2033C25.3932 18.5636 24.4693 18.2042 23.5059 18.2042C22.5425 18.2042 21.6185 18.5636 20.9373 19.2033C20.2561 19.8429 19.8733 20.7105 19.8733 21.6151H17.4517C17.4517 20.1074 18.0895 18.6615 19.2249 17.5954C20.3603 16.5292 21.9002 15.9303 23.5059 15.9303C25.1116 15.9303 26.6515 16.5292 27.7869 17.5954C28.9222 18.6615 29.5601 20.1074 29.5601 21.6151Z"
        fill="#273941" />
    <defs>
        <radialGradient id="paint0_radial_462_110" cx="0" cy="0" r="1"
            gradientUnits="userSpaceOnUse"
            gradientTransform="translate(48.5302 27.3) scale(7.26506 6.90303)">
            <stop stop-color="#FF568D" />
            <stop offset="0.454" stop-color="#FF9678" />
            <stop offset="0.817" stop-color="#FFC26A" />
            <stop offset="1" stop-color="#FFD364" />
        </radialGradient>
        <radialGradient id="paint1_radial_462_110" cx="0" cy="0" r="1"
            gradientUnits="userSpaceOnUse"
            gradientTransform="translate(19.8735 7.16616) scale(0.605422 0.575253)">
            <stop stop-color="#FF568D" />
            <stop offset="0.454" stop-color="#FF9678" />
            <stop offset="0.817" stop-color="#FFC26A" />
            <stop offset="1" stop-color="#FFD364" />
        </radialGradient>
    </defs>
</svg>