<svg width="16" height="16" viewBox="0 0 16 16" fill="none" xmlns="http://www.w3.org/2000/svg">
<path fill-rule="evenodd" clip-rule="evenodd" d="M4.21103 12.779C3.75929 12.7877 3.28793 12.7968 2.78601 12.5877C2.25992 12.3685 1.28914 11.8549 0.813152 10.8027C0.614823 10.3643 0.5 9.83194 0.5 9.23695V4.28914C0.5 3.03653 0.781837 2.25365 1.5334 1.47077C2.12839 0.850992 2.85491 0.58142 3.75679 0.531315C4.22651 0.505219 4.71503 0.5 5.16597 0.5H11.7735C12.5251 0.5 13.2766 0.656576 13.7463 0.907098C14.7171 1.42484 15.5 2.47286 15.5 3.7881V9.26827C15.5 9.86326 15.3747 10.8027 14.6232 11.6795C14.0595 12.3372 13.0261 12.7756 12.0866 12.7756H11.523C11.2724 12.7756 10.9906 12.8382 10.7401 13.214C10.4896 13.5898 9.92589 14.3413 9.64405 14.6858C9.36221 15.0303 8.89248 15.5 8.01566 15.5C7.13883 15.5 6.6691 15.0616 6.32464 14.6232C6.09908 14.3361 5.81982 13.955 5.57476 13.6207C5.44557 13.4444 5.32589 13.2811 5.2286 13.1514C4.94676 12.7756 4.66493 12.7756 4.47704 12.7756C4.38908 12.7756 4.30044 12.7773 4.21103 12.779ZM8.96268 4.45326C8.96268 3.93162 8.53981 3.50875 8.01817 3.50875C7.49653 3.50875 7.07366 3.93162 7.07366 4.45326V5.95945H5.58437C5.06273 5.95945 4.63986 6.38232 4.63986 6.90396C4.63986 7.4256 5.06273 7.84847 5.58437 7.84847H7.07366V9.35467C7.07366 9.8763 7.49653 10.2992 8.01817 10.2992C8.53981 10.2992 8.96268 9.8763 8.96268 9.35467V7.84847H10.3844C10.906 7.84847 11.3289 7.4256 11.3289 6.90396C11.3289 6.38232 10.906 5.95945 10.3844 5.95945H8.96268V4.45326Z" fill="white"/>
</svg>
