<svg width="22" height="22" viewBox="0 0 22 22" fill="none" xmlns="http://www.w3.org/2000/svg">
<path d="M16.0721 17.7227C16.8715 17.7798 18.4092 17.8941 18.6784 17.8941C19.3637 17.8941 19.8899 17.4166 19.8899 16.6819C19.8899 15.7758 19.6818 13.9513 19.6818 13.3023C19.6818 12.7268 20 11.1839 20 9.788C20 5.56351 16.2801 2.00024 12.2175 2.00024C8.99932 2.00024 6.74779 3.51861 5.40177 5.49004M5.35282 19.7676C5.04691 19.7676 3.26037 19.9268 2.90551 19.9268C2.40381 19.9268 2.08566 19.5962 2.08566 19.0696C2.08566 18.4329 2.24473 17.037 2.24473 16.5839C2.24473 16.3145 2 15.2002 2 14.6125C2 11.7594 4.31271 9.20024 7.40857 9.20024C10.4065 9.20024 12.8049 11.6125 12.8049 14.6002C12.8049 17.3921 10.5656 20.0002 7.40857 20.0002C6.57648 20.0002 5.78355 19.7676 5.35282 19.7676Z" stroke="white" stroke-opacity="0.9" stroke-width="2.4" stroke-linecap="round"/>
</svg>
