<svg width="22" height="22" viewBox="0 0 22 22" fill="none" xmlns="http://www.w3.org/2000/svg">
<g clip-path="url(#clip0_1308_13606)">
<path d="M9.12781 4.57176C8.46077 4.58305 7.11632 4.60469 6.52748 4.6141C5.32907 4.6141 4.59137 4.95496 4.02608 5.4326C2.92377 6.36399 2.82677 7.3095 2.74005 8.57958C2.70613 9.07632 2.72592 12.7944 2.74005 14.5913C2.74005 15.6525 2.83986 16.7504 3.14988 17.3008C3.65864 18.204 4.53484 19.0103 5.84913 19.1495C6.78186 19.2483 8.63318 19.2483 9.94748 19.2483C11.4964 19.2483 12.6326 19.244 13.961 19.1777C14.8655 19.1326 15.671 18.8526 16.3776 18.1334C17.1125 17.3855 17.3612 16.567 17.3952 15.3816C17.4093 14.8877 17.4234 13.7022 17.4234 12.8273C17.4234 12.3898 17.7767 11.91 18.342 11.91C18.7942 11.91 19.2606 12.2628 19.2606 12.912C19.2606 13.2958 19.2766 14.6054 19.2323 15.3816C19.1334 17.1174 18.8484 18.2745 17.805 19.3047C16.5472 20.5466 15.4732 21.0687 12.8446 21.0687C11.9175 21.0687 8.3364 21.1217 6.18831 21.0264C4.28046 20.9417 3.3336 20.2785 2.35848 19.3047C1.46815 18.4157 0.916992 17.075 0.916992 15.2969V8.66425C0.916992 7.04137 1.24072 5.65839 2.37261 4.5012C3.55972 3.28757 4.69029 2.86107 6.52748 2.77954C7.03624 2.75696 8.48244 2.7419 9.14194 2.7372C9.63657 2.7372 10.0747 3.14645 10.0747 3.64037C10.0747 3.95083 9.87681 4.55909 9.12781 4.57176Z" fill="white"/>
<path d="M6.47095 12.0229C6.44834 12.5535 6.41442 13.9469 6.40029 14.5772C6.38616 15.1981 6.83839 15.5791 7.38955 15.5791H9.96161C10.4817 15.6017 11.177 15.3392 11.5727 14.9441C11.8892 14.628 17.5365 8.93238 20.3912 6.08175C20.8575 5.61605 21.0837 4.98101 21.0837 4.58588C21.0837 4.16251 21.0271 3.68906 20.8293 3.35813C20.264 2.41262 19.4726 1.6788 18.7942 1.25544C18.4551 1.04376 18.017 0.916748 17.6213 0.916748C17.2256 0.916748 16.5472 1.02964 16.0385 1.52357C15.5297 2.01749 7.61566 9.97667 7.1493 10.4565C6.68294 10.9363 6.49922 11.3596 6.47095 12.0229Z" fill="white"/>
</g>
<defs>
<clipPath id="clip0_1308_13606">
<rect width="22" height="22" fill="white"/>
</clipPath>
</defs>
</svg>
