<svg width="20" height="4" viewBox="0 0 20 4" fill="none" xmlns="http://www.w3.org/2000/svg">
<path d="M4.5 2C4.5 3.10457 3.60457 4 2.5 4C1.39543 4 0.5 3.10457 0.5 2C0.5 0.895431 1.39543 0 2.5 0C3.60457 0 4.5 0.895431 4.5 2Z" fill="#EEEEEE"/>
<path d="M12 2C12 3.10457 11.1046 4 10 4C8.89543 4 8 3.10457 8 2C8 0.895431 8.89543 0 10 0C11.1046 0 12 0.895431 12 2Z" fill="#EEEEEE"/>
<path d="M17.5 4C18.6046 4 19.5 3.10457 19.5 2C19.5 0.895431 18.6046 0 17.5 0C16.3954 0 15.5 0.895431 15.5 2C15.5 3.10457 16.3954 4 17.5 4Z" fill="#EEEEEE"/>
</svg>
