<svg width="24" height="25" viewBox="0 0 24 25" fill="none" xmlns="http://www.w3.org/2000/svg">
<path fill-rule="evenodd" clip-rule="evenodd" d="M11.9942 4.5C6.19113 4.5 2 9.70438 2 12.5138C2 15.3233 6.27173 20.5046 11.9942 20.5046C17.7168 20.5046 22 15.3463 22 12.5138C22 9.54318 17.6592 4.5 11.9942 4.5ZM16.0012 12.5138C16.0012 14.7268 14.2072 16.5207 11.9942 16.5207C9.78129 16.5207 7.98733 14.7268 7.98733 12.5138C7.98733 10.3009 9.78129 8.50691 11.9942 8.50691C14.2072 8.50691 16.0012 10.3009 16.0012 12.5138ZM11.9942 14.4942C13.1007 14.4942 13.9977 13.5973 13.9977 12.4908C13.9977 11.3843 13.1007 10.4873 11.9942 10.4873C10.8878 10.4873 9.99079 11.3843 9.99079 12.4908C9.99079 13.5973 10.8878 14.4942 11.9942 14.4942Z" fill="white"/>
</svg>
