<svg width="14" height="18" viewBox="0 0 14 18" fill="none" xmlns="http://www.w3.org/2000/svg">
<path d="M9.92842 10.804C8.94354 11.5037 8.05447 12.5809 7.85388 13.8099C7.50248 15.9629 8.88481 17.079 9.37866 17.2087C9.60131 17.2671 9.8231 17.1053 9.86819 16.829C9.89432 16.6689 9.88266 16.2641 9.95108 15.8449C10.1221 14.7969 11.1902 14.013 11.844 13.4157C12.447 12.8649 13.1828 12.0599 13.3647 10.9453C13.6959 8.91606 12.3547 7.84582 12.0234 7.79166C11.766 7.74957 11.5585 7.90148 11.5196 8.13965C11.4979 8.27303 11.5076 8.39199 11.4656 8.64921C11.3101 9.60188 10.7968 10.1871 9.92842 10.804Z" fill="white" fill-opacity="0.3"/>
<path d="M0.583496 10.8121C0.583496 14.675 3.89094 17.3334 6.98291 17.3334C7.93097 17.099 5.79783 15.3477 5.79783 12.8195C5.79783 10.7015 9.71759 9.24965 9.99947 7.39418C10.3011 5.4085 9.48234 2.8217 7.44617 1.31779C7.05832 1.03133 6.51965 0.666748 6.27186 0.666748C5.90557 0.666748 5.8354 0.959717 5.79783 1.29609C5.70087 2.16414 5.39394 2.88029 5.20529 3.23836C4.64508 4.30173 3.97712 4.84427 3.27685 5.3868C1.73625 6.58038 0.583496 8.21883 0.583496 10.8121Z" fill="white" fill-opacity="0.8"/>
</svg>
