<svg width="19" height="18" viewBox="0 0 19 18" fill="none" xmlns="http://www.w3.org/2000/svg">
<path fill-rule="evenodd" clip-rule="evenodd" d="M8.83219 10.2482V17.75H6.05897C4.81668 17.75 4.01357 17.5116 3.42379 17.0224C2.38227 16.1584 2.16895 15.2535 2.16895 13.9238V11.1765C2.16895 10.6371 2.47011 10.2482 3.09753 10.2482H8.83219ZM10.5263 10.2483V17.7501H13.2995C14.5418 17.7501 15.3449 17.5117 15.9347 17.0225C16.9762 16.1585 17.1895 15.2537 17.1895 13.9239V11.1766C17.1895 10.6372 16.8884 10.2483 16.2609 10.2483H10.5263Z" fill="white" fill-opacity="0.8"/>
<path d="M8.83219 8.57975V4.41487H7.5648C6.93737 4.41487 6.33504 3.87545 6.33504 3.18548C6.33504 2.45789 6.88718 1.90591 7.61499 1.90591C8.26751 1.90591 8.83219 2.47043 8.83219 3.12276V4.38979H10.5011V3.12276C10.5011 2.47043 11.0658 1.90591 11.7183 1.90591C12.4336 1.90591 13.0108 2.44534 13.0108 3.19803C13.0108 3.77509 12.4713 4.41487 11.7936 4.41487H10.5011V8.57975H16.6499C17.7793 8.57975 18.8333 7.88979 18.8333 6.39695C18.8333 5.29301 17.8169 4.41487 16.8507 4.41487H14.3786C14.5392 4.06362 14.6672 3.73746 14.6672 3.14785C14.6672 1.49194 13.312 0.25 11.7685 0.25C11.0357 0.25 10.1874 0.53853 9.67294 1.12814C9.0405 0.495878 8.26751 0.25 7.58989 0.25C5.92094 0.25 4.6661 1.57975 4.6661 3.16039C4.6661 3.64211 4.81668 4.16398 4.96726 4.41487H2.5454C1.41604 4.41487 0.5 5.40591 0.5 6.45968C0.5 7.51344 1.27801 8.57975 2.62069 8.57975H8.83219Z" fill="white" fill-opacity="0.8"/>
</svg>
