<svg width="18" height="18" viewBox="0 0 18 18" fill="none" xmlns="http://www.w3.org/2000/svg">
<path d="M6 8C7.10457 8 8 7.10457 8 6C8 4.89543 7.10457 4 6 4C4.89543 4 4 4.89543 4 6C4 7.10457 4.89543 8 6 8Z" fill="white" fill-opacity="0.8"/>
<path fill-rule="evenodd" clip-rule="evenodd" d="M0 4.2C0 1.8804 1.8804 0 4.2 0H13.8C16.1196 0 18 1.8804 18 4.2V13.8C18 16.1196 16.1196 18 13.8 18H4.2C1.8804 18 0 16.1196 0 13.8V4.2ZM2 12.5522V13.8C2 15.015 2.98497 16 4.2 16H13.8C15.015 16 16 15.015 16 13.8V11.1122L14.0645 9.71867C13.2245 9.1139 12.0766 9.1764 11.3073 9.86879L8.03063 12.8178C6.56192 14.1396 4.37045 14.259 2.7669 13.1044L2 12.5522ZM16 8.64777L15.2331 8.0956C13.6295 6.94104 11.4381 7.06037 9.96937 8.38221L6.69271 11.3312C5.92338 12.0236 4.77546 12.0861 3.93551 11.4813L2 10.0878V4.2C2 2.98497 2.98497 2 4.2 2H13.8C15.015 2 16 2.98497 16 4.2V8.64777Z" fill="white" fill-opacity="0.8"/>
</svg>
