<svg width="18" height="20" viewBox="0 0 18 20" fill="none" xmlns="http://www.w3.org/2000/svg">
  <path fill-rule="evenodd" clip-rule="evenodd" d="M9 0.5C5.96243 0.5 3.5 2.96243 3.5 6V8C3.5 11.0376 5.96243 13.5 9 13.5C12.0376 13.5 14.5 11.0376 14.5 8V6C14.5 2.96243 12.0376 0.5 9 0.5ZM9 11.5C7.067 11.5 5.5 9.933 5.5 8V6C5.5 4.067 7.067 2.5 9 2.5C10.933 2.5 12.5 4.067 12.5 6V8C12.5 9.933 10.933 11.5 9 11.5Z" fill="white"/>
  <path d="M1 7C1.55228 7 2 7.44772 2 8C2 11.866 5.13401 15 9 15C12.866 15 16 11.866 16 8C16 7.44772 16.4477 7 17 7C17.5523 7 18 7.44772 18 8C18 12.6326 14.5 16.4476 10 16.9451V18.5C10 19.0523 9.55229 19.5 9 19.5C8.44772 19.5 8 19.0523 8 18.5V16.9451C3.50005 16.4476 0 12.6326 0 8C0 7.44772 0.447715 7 1 7Z" fill="white"/>
</svg>
