<svg width="16" height="16" viewBox="0 0 16 16" fill="none" xmlns="http://www.w3.org/2000/svg">
<path d="M7.99999 0.916687C7.51099 0.916687 7.11457 1.3131 7.11457 1.8021V7.1146H1.80207C1.31307 7.1146 0.916656 7.51102 0.916656 8.00002C0.916656 8.48902 1.31307 8.88544 1.80207 8.88544H7.11457V14.1979C7.11457 14.6869 7.51099 15.0834 7.99999 15.0834C8.48899 15.0834 8.88541 14.6869 8.88541 14.1979V8.88544H14.1979C14.6869 8.88544 15.0833 8.48902 15.0833 8.00002C15.0833 7.51102 14.6869 7.1146 14.1979 7.1146H8.88541V1.8021C8.88541 1.3131 8.48899 0.916687 7.99999 0.916687Z" fill="white" fill-opacity="0.8"/>
</svg>
