<svg width="34" height="34" viewBox="0 0 34 34" fill="none" xmlns="http://www.w3.org/2000/svg">
<rect x="0.5" y="0.5" width="33" height="33" rx="8.5" fill="url(#paint0_linear_52_767)"/>
<rect x="0.5" y="0.5" width="33" height="33" rx="8.5" stroke="white"/>
<path d="M20.3635 14.9078C21.6357 15.6428 22.2719 16.0103 22.4853 16.4901C22.6716 16.9086 22.6716 17.3865 22.4853 17.805C22.2719 18.2848 21.6357 18.6523 20.3635 19.3874L16.0019 21.9071C14.7297 22.6421 14.0935 23.0096 13.5715 22.9547C13.1162 22.9068 12.7026 22.6679 12.4335 22.2973C12.125 21.8724 12.125 21.1374 12.125 19.6673L12.125 14.6278C12.125 13.1578 12.125 12.4228 12.4335 11.9979C12.7026 11.6273 13.1162 11.3883 13.5715 11.3404C14.0935 11.2856 14.7297 11.6531 16.0019 12.3881L20.3635 14.9078Z" fill="white"/>
<defs>
<linearGradient id="paint0_linear_52_767" x1="-2.33333" y1="22.3333" x2="39" y2="22.3333" gradientUnits="userSpaceOnUse">
<stop stop-color="#7D34DC"/>
<stop offset="1" stop-color="#F134B0"/>
</linearGradient>
</defs>
</svg>
