<svg xmlns="http://www.w3.org/2000/svg" xmlns:xlink="http://www.w3.org/1999/xlink" version="1.1" x="0px" y="0px"
    viewBox="0 0 60 75" style="enable-background:new 0 0 60 60;" xml:space="preserve">
    <path
        fill="white"
        d="M52.2566528,40.7000122c-0.3200073-0.1699829-0.6799927-0.1600342-0.9700317,0l-0.0199585,0.0100098l-7.7700195,1.4599609  c-0.539978,0.1000366-0.9000244,0.6199951-0.7999878,1.1600342c0.0999756,0.5499878,0.6199951,0.8999634,1.1699829,0.7999878  l5.8300171-1.0999756C45.4266357,49.2399902,38.3566284,53,30.7466431,53c-12.6900024,0-23-10.3200073-23-23s10.3099976-23,23-23  c6.8300171,0,13.2700195,3.0100098,17.6500244,8.2600098c0.3599854,0.4299927,0.9899902,0.4799805,1.4099731,0.1300049  c0.4299927-0.3599854,0.4799805-0.9899902,0.1300049-1.4099731C45.166626,8.2700195,38.1766357,5,30.7466431,5  c-13.789978,0-25,11.210022-25,25s11.210022,25,25,25c8.2000122,0,15.8300171-4.0299683,20.4799805-10.6699829l1.0400391,5.5499878  c0.0899658,0.4799805,0.5099487,0.8099976,0.9799805,0.8099976c0.0599976,0,0.1300049,0,0.1900024-0.0100098  c0.539978-0.1099854,0.8999634-0.6300049,0.7999878-1.1699829l-1.4699707-7.8200073  C52.8066406,41.2999878,52.6166382,40.9000244,52.2566528,40.7000122z" />
    <path
        fill="white"
        d="M29.3066406,23.3600464c-0.8499756-0.5300293-1.8800049-0.5599976-2.7600098-0.0700073  c-0.8699951,0.4899902-1.3999634,1.3800049-1.3999634,2.3800049v9.9699707c0,1,0.5299683,1.8900146,1.3999634,2.3800049  c0.4199829,0.2299805,0.8699951,0.3499756,1.3300171,0.3499756c0.4899902,0,0.9899902-0.1399536,1.4299927-0.4199829  l8.0100098-4.9899902c0.7999878-0.5,1.2799683-1.3599854,1.2799683-2.3099976c0-0.9400024-0.4799805-1.8099976-1.2799683-2.3099976  L29.3066406,23.3600464z" />
</svg>
