<svg width="28" height="28" viewBox="0 0 28 28" fill="none" xmlns="http://www.w3.org/2000/svg">
<path d="M24.653 11.6824C24.1694 11.2132 23.6848 10.7406 23.1994 10.2645C23.1857 9.60497 23.1686 8.94579 23.148 8.28691C23.1207 7.4044 22.7384 6.56248 22.0871 5.90847C21.4359 5.25445 20.5912 4.87546 19.7097 4.84763C19.0507 4.82726 18.3917 4.81024 17.7328 4.79655C17.2576 4.3119 16.7866 3.82785 16.3197 3.34441C15.6875 2.69587 14.8693 2.33328 13.9987 2.33374C13.1281 2.3342 12.3093 2.6986 11.6813 3.34441C11.212 3.82876 10.7394 4.31387 10.2637 4.79975C9.6047 4.81313 8.94587 4.83015 8.28719 4.85083C6.47226 4.91285 4.91036 6.47583 4.84847 8.28965C4.82814 8.94913 4.811 9.60831 4.79704 10.2672C4.3116 10.743 3.82708 11.2155 3.34346 11.6847C2.69767 12.3136 2.33496 13.1345 2.33496 14.0011C2.33496 14.8676 2.6954 15.6886 3.34346 16.3198C3.82708 16.7886 4.31251 17.2607 4.79977 17.7359C4.81282 18.3954 4.82981 19.055 4.85074 19.7148C4.87851 20.5987 5.26033 21.4383 5.91112 22.0933C6.56191 22.7482 7.40612 23.1263 8.28901 23.1536C8.94799 23.1746 9.60698 23.1918 10.266 23.2052C10.7411 23.6895 11.213 24.1733 11.6818 24.6564C12.3112 25.305 13.1303 25.6675 14.0028 25.6671C14.8752 25.6666 15.6921 25.305 16.3238 24.6569C16.7925 24.1728 17.2646 23.6882 17.74 23.2029C18.399 23.1892 19.0578 23.172 19.7165 23.1514C21.531 23.0898 23.0929 21.5268 23.1548 19.7125C23.1754 19.0537 23.1924 18.3948 23.2058 17.7359C23.6912 17.2598 24.1759 16.7871 24.6598 16.318C25.3056 15.6895 25.6683 14.8695 25.6683 13.9997C25.6683 13.13 25.2997 12.3136 24.653 11.6824Z" fill="url(#paint0_linear_343_9763)"/>
<path d="M9.74219 13.3984L12.984 16.625L18.2589 11.375" stroke="white" stroke-width="2.33333" stroke-linecap="round" stroke-linejoin="round"/>
<defs>
<linearGradient id="paint0_linear_343_9763" x1="2.33496" y1="2.33374" x2="25.6683" y2="25.6671" gradientUnits="userSpaceOnUse">
<stop stop-color="#C334DB"/>
<stop offset="1" stop-color="#FA06C3"/>
</linearGradient>
</defs>
</svg>
