<svg width="24" height="24" viewBox="0 0 24 24" fill="none" xmlns="http://www.w3.org/2000/svg">
<path d="M0.558756 19.3269C0.528697 19.8379 0.446034 20.9551 0.408461 21.4498C0.348343 22.2614 1.00964 23.5727 2.6441 23.5727C3.26031 23.5727 4.69187 23.3849 5.38699 23.3849C5.91302 23.3849 6.79601 23.6667 7.77293 23.6667C12.0376 23.6667 15.2501 20.2099 15.2501 16.1895C15.2501 11.8685 11.7558 8.73108 7.79171 8.73108C3.82768 8.73108 0.333313 11.7746 0.333313 16.0955C0.333313 16.9034 0.521182 17.9554 0.558756 18.2748C0.59633 18.5942 0.59633 18.6881 0.558756 19.3269Z" fill="white"/>
<path d="M13.2211 0.333313C9.20071 0.333313 4.93609 2.58774 3.1889 7.5287C4.74822 6.68329 6.60812 6.3827 7.81048 6.3827C13.2211 6.3827 17.5985 10.8164 17.5985 16.1895C17.5985 18.1245 17.0762 19.8003 16.3397 21.0177C16.5276 20.9989 16.9409 20.9613 17.0912 20.9613C17.5421 20.9613 20.0971 21.1868 20.905 21.1868C22.5206 21.1868 23.5351 20.0408 23.5351 18.7445C23.5351 17.4482 23.3097 15.5695 23.3097 14.6865C23.3097 13.9538 23.6666 12.2254 23.6666 10.7413C23.6666 5.3682 19.1953 0.333313 13.2211 0.333313Z" fill="white"/>
</svg>
