<svg width="24" height="24" viewBox="0 0 24 24" fill="none" xmlns="http://www.w3.org/2000/svg">
<path d="M10.2616 0.600934C11.394 0.247239 12.6074 0.247239 13.7398 0.600934C14.4507 0.822973 15.0648 1.21469 15.7002 1.72565C16.3163 2.22109 17.0211 2.88681 17.8934 3.71066L21.0625 6.70366C21.8284 7.42654 22.3585 7.92686 22.7458 8.53152C23.0881 9.06577 23.3409 9.65228 23.4943 10.2679C23.6679 10.9647 23.6677 11.6937 23.6674 12.7468L23.6674 15.0835C23.6674 16.3478 23.6674 17.3676 23.5999 18.1934C23.5304 19.0438 23.3837 19.7906 23.0316 20.4817C22.4723 21.5793 21.5799 22.4717 20.4823 23.0309C19.7913 23.383 19.0444 23.5298 18.1941 23.5993C17.8346 23.6286 17.4383 23.6452 17.0011 23.6546C16.1724 23.6723 15.5 22.9944 15.5 22.1656V16.875C15.5 14.942 13.933 13.375 12 13.375C10.067 13.375 8.5 14.942 8.5 16.875V22.1656C8.5 22.9944 7.82757 23.6723 6.99892 23.6545C6.56226 23.6452 6.16645 23.6286 5.80731 23.5993C4.95699 23.5298 4.2101 23.383 3.51909 23.0309C2.42148 22.4717 1.52909 21.5793 0.969834 20.4817C0.617748 19.7906 0.470967 19.0438 0.401492 18.1934C0.334017 17.3676 0.334026 16.3477 0.334038 15.0833L0.334011 12.7468C0.333695 11.6936 0.333476 10.9647 0.507091 10.2679C0.660489 9.65228 0.913303 9.06577 1.25557 8.53152C1.64294 7.92686 2.17302 7.42653 2.93889 6.70364L6.108 3.71063C6.9803 2.88678 7.68514 2.22109 8.30122 1.72565C8.93661 1.21469 9.55071 0.822973 10.2616 0.600934Z" fill="white"/>
</svg>
