<svg width="24" height="24" viewBox="0 0 24 24" fill="none" xmlns="http://www.w3.org/2000/svg">
<path d="M5 21H19" stroke="white" stroke-width="2" stroke-linecap="round" stroke-linejoin="round"/>
<path fill-rule="evenodd" clip-rule="evenodd" d="M12 2.0072C11.7315 2.0072 11.468 2.07926 11.2368 2.21585C11.0057 2.35244 10.8155 2.54856 10.686 2.78374L10.6772 2.80005L7.73103 8.394L3.46868 4.74169C3.46218 4.73613 3.45562 4.73065 3.44899 4.72525C3.20268 4.52492 2.89915 4.40791 2.58211 4.39106C2.26506 4.37421 1.95085 4.45839 1.68469 4.63149C1.41854 4.80459 1.21417 5.05768 1.10101 5.35433C0.987854 5.65097 0.97174 5.97587 1.05499 6.28225L1.05498 6.28226L1.05617 6.28657L3.88902 16.531L3.88917 16.5316L4.80331 16.2788L4.8033 16.2788L3.88902 16.531C4.00481 16.9507 4.25437 17.3211 4.5998 17.586C4.94524 17.851 5.36769 17.996 5.80302 17.999L5.80302 17.999H5.81H18.191V17.9991L18.199 17.999C18.634 17.9955 19.056 17.8503 19.401 17.5854C19.7459 17.3207 19.995 16.9507 20.1108 16.5316L20.111 16.531L22.9448 6.28563L22.946 6.28125C23.0293 5.97486 23.0131 5.64996 22.9 5.35333C22.7868 5.05669 22.5825 4.8036 22.3163 4.63049C22.0502 4.45739 21.7359 4.37321 21.4189 4.39006C21.1018 4.40691 20.7983 4.52392 20.552 4.72425C20.5454 4.72962 20.5389 4.73508 20.5324 4.74061L16.269 8.393L13.3228 2.79999L13.314 2.78374C13.1845 2.54856 12.9943 2.35244 12.7632 2.21585C12.532 2.07926 12.2685 2.0072 12 2.0072ZM8.11567 8.6107L7.74763 8.41686L7.739 8.41231L7.73535 8.41657L7.72107 8.43324L7.09401 9.16504L7.73078 8.39448L7.73103 8.394L7.73168 8.39456L8.11961 8.60501" fill="white"/>
</svg>
