<svg width="22" height="21" viewBox="0 0 22 21" fill="none" xmlns="http://www.w3.org/2000/svg">
<path d="M1.38464 10.209C1.48599 10.4027 1.72669 10.5732 2.03074 10.7386C4.49265 12.0087 9.54822 14.6162 10.0752 14.8849C10.734 15.2207 11.4434 15.1303 11.9248 14.8849C12.4062 14.6395 19.6653 10.9194 20.0833 10.6611C20.5014 10.4027 20.5267 10.3381 20.6154 10.196M1.38464 15.1045C1.51133 15.3241 1.66588 15.4093 1.87871 15.5436C4.46309 16.887 9.72304 19.615 10.0879 19.7804C10.544 19.987 10.7973 20 11.0254 20C11.2534 20 11.6461 19.9095 11.9122 19.7804C12.1782 19.6512 18.7405 16.2541 19.9693 15.647C20.3114 15.4532 20.5141 15.2724 20.6154 15.1045" stroke="white" stroke-width="2" stroke-linecap="round"/>
<path d="M1.47431 4.3861C1.27026 4.5185 1 4.95158 1 5.30085C1 5.62325 1.1054 6.01262 1.47431 6.21413C1.84321 6.41563 9.68248 10.2121 9.94598 10.333C10.2095 10.4539 10.5125 10.5882 10.9868 10.5882C11.4611 10.5882 11.6588 10.4808 12.0277 10.333C12.3966 10.1852 20.1859 6.40885 20.4231 6.27451C20.6594 6.14069 21 5.75321 21 5.31428C21 4.87097 20.7656 4.48836 20.4231 4.31373C19.7169 3.93759 14.6012 1.48217 12.1462 0.308972C11.7773 0.137022 11.4084 0 11 0C10.473 0 10.1568 0.181122 9.85375 0.308972C9.47167 0.470175 1.90909 4.104 1.47431 4.3861Z" fill="white"/>
</svg>
