<svg width="24" height="24" viewBox="0 0 24 24" fill="none" xmlns="http://www.w3.org/2000/svg">
<path fill-rule="evenodd" clip-rule="evenodd" d="M2.47561 4.0271C1 5.60705 1 7.69377 1 10.2127V15.9512C1 19.2304 3.54878 22.0027 7.43902 22.0027C8.61951 22.0027 14.6382 21.9729 17.0379 21.958C20.0488 21.958 23 19.603 23 15.9959V12.2995C23 9.58672 21.8374 7.41057 19.0054 6.32249C19.0054 4.34011 18.0515 2 14.5786 2H7.76694C5.66531 2 4.10435 2.2832 2.47561 4.0271ZM4.10029 5.21953C3.40869 5.95883 3.17617 6.68024 3.10164 7.41059C4.36858 6.2927 5.79947 5.97969 8.07996 5.97969H15.5623C15.9081 5.97969 16.6604 5.99957 16.9932 6.0095C16.9932 5.10029 16.5014 3.9824 14.7128 3.9824H8.89974C8.19622 3.9824 7.23037 3.9824 6.47021 4.07183C5.27779 4.22089 4.59216 4.69374 4.10029 5.21953ZM14.0271 10.9729C13.4673 10.9729 13.0136 11.4267 13.0136 11.9864C13.0136 12.5462 13.4673 13 14.0271 13H17.0081C17.5679 13 18.0217 12.5462 18.0217 11.9864C18.0217 11.4267 17.5679 10.9729 17.0081 10.9729H14.0271Z" fill="white"/>
</svg>
