<?xml version="1.0" standalone="no"?>
<!DOCTYPE svg PUBLIC "-//W3C//DTD SVG 20010904//EN" "http://www.w3.org/TR/2001/REC-SVG-20010904/DTD/svg10.dtd">
<svg version="1.0" xmlns="http://www.w3.org/2000/svg"
    width="501.000000pt" height="498.000000pt" viewBox="0 0 501.000000 498.000000"
    preserveAspectRatio="xMidYMid meet">

    <g transform="translate(0.000000,498.000000) scale(0.100000,-0.100000)"
        fill="#000000" stroke="none">
        <path
            d="M2315 3955 c-431 -64 -806 -308 -1026 -670 -125 -206 -182 -369 -214
-611 -24 -185 -16 -329 30 -528 19 -82 87 -260 131 -344 168 -318 467 -577
804 -697 239 -85 570 -99 825 -35 307 77 597 272 791 533 93 124 137 202 197
351 73 182 100 330 101 541 1 192 -20 325 -75 483 -116 330 -351 619 -644 791
-279 164 -611 231 -920 186z m435 -55 c314 -67 535 -183 735 -384 254 -256
392 -567 420 -941 18 -253 -61 -579 -194 -800 -153 -253 -340 -430 -591 -555
-198 -100 -386 -142 -620 -142 -331 1 -625 109 -891 328 -235 194 -424 534
-475 854 -23 146 -15 439 15 560 48 188 117 347 212 488 128 190 327 365 528
467 121 60 305 115 466 139 56 8 340 -2 395 -14z" />
    </g>
</svg>